<?xml version="1.0" encoding="iso-8859-1"?>
<!-- Generator: Adobe Illustrator 19.0.0, SVG Export Plug-In . SVG Version: 6.00 Build 0)  -->
<svg version="1.1" id="Layer_1" xmlns="http://www.w3.org/2000/svg" xmlns:xlink="http://www.w3.org/1999/xlink" x="0px" y="0px"
	 viewBox="0 0 392.598 392.598" style="enable-background:new 0 0 392.598 392.598;" xml:space="preserve">
<path style="fill:#56ACE0;" d="M301.446,268.319c0,16.873,13.705,30.448,30.448,30.448h38.853v-60.962h-38.853
	C315.022,237.871,301.446,251.576,301.446,268.319z"/>
<path style="fill:#194F82;" d="M315.022,268.319c0,6.012,4.848,10.925,10.925,10.925h10.149c6.012,0,10.925-4.849,10.925-10.925
	c0-6.012-4.848-10.925-10.925-10.925h-10.15C319.935,257.459,315.022,262.307,315.022,268.319z"/>
<g>
	<path style="fill:#FFFFFF;" d="M279.596,268.319c0-28.832,23.467-52.299,52.299-52.299h38.853v-54.949H46.675
		c-9.115,0-17.648-2.715-24.824-7.24v192c0,13.705,11.119,24.824,24.824,24.824h324.073v-49.972h-38.853
		C303.063,320.618,279.596,297.152,279.596,268.319z"/>
	<path style="fill:#FFFFFF;" d="M46.675,139.285h280.501V89.572h-40.727l19.135,16.614c6.982,5.56,3.814,18.747-7.111,19.135H61.349
		c-10.02-0.129-14.998-12.735-7.176-19.071l18.941-16.679h-26.44c-13.705,0-24.824,11.119-24.824,24.824
		S32.905,139.285,46.675,139.285z"/>
</g>
<polygon style="fill:#56ACE0;" points="90.246,103.6 269.123,103.6 178.941,25.378 "/>
<path style="fill:#194F82;" d="M381.673,139.285h-32.711V78.711c0-6.012-4.848-10.925-10.925-10.925h-76.865L185.988,2.687
	c-4.073-3.556-10.279-3.556-14.352,0.065L97.745,67.915H46.675C20.945,67.851,0,88.796,0,114.525V345.96
	c0,25.665,20.945,46.61,46.675,46.61h334.998c6.012,0,10.925-4.848,10.925-10.925V150.21
	C392.533,144.133,387.685,139.285,381.673,139.285z M178.941,25.378l90.182,78.222H90.246L178.941,25.378z M46.675,89.572h26.44
	l-18.941,16.679c-7.822,6.335-2.844,18.941,7.176,19.071h236.994c10.925-0.388,14.093-13.511,7.111-19.135l-19.071-16.614h40.727
	v49.713H46.61c-13.705,0-24.824-11.119-24.824-24.824S32.905,89.572,46.675,89.572z M370.747,298.832h-38.853
	c-16.873,0-30.449-13.705-30.449-30.448c0-16.873,13.705-30.448,30.449-30.448h38.853V298.832z M370.747,216.02h-38.853
	c-28.832,0-52.299,23.467-52.299,52.299s23.467,52.299,52.299,52.299h38.853v50.101H46.675c-13.705,0-24.824-11.119-24.824-24.824
	v-192c7.176,4.59,15.709,7.24,24.824,7.24h324.073L370.747,216.02L370.747,216.02z"/>
<path style="fill:#FFC10D;" d="M331.895,216.02h38.853v-54.949H46.675c-9.115,0-17.648-2.715-24.824-7.24v74.408h59.281
	c6.012,0,10.925,4.848,10.925,10.925s-4.848,10.925-10.925,10.925H21.786v28.444h34.263c6.012,0,10.925,4.848,10.925,10.925
	c0,6.012-4.848,10.925-10.925,10.925H21.786v45.576c0,13.705,11.119,24.824,24.824,24.824h324.073v-49.972H331.83
	c-28.832,0-52.299-23.467-52.299-52.299C279.596,239.487,303.063,216.02,331.895,216.02z"/>
<g>
</g>
<g>
</g>
<g>
</g>
<g>
</g>
<g>
</g>
<g>
</g>
<g>
</g>
<g>
</g>
<g>
</g>
<g>
</g>
<g>
</g>
<g>
</g>
<g>
</g>
<g>
</g>
<g>
</g>
</svg>
