<?xml version="1.0" encoding="iso-8859-1"?>
<!-- Generator: Adobe Illustrator 19.0.0, SVG Export Plug-In . SVG Version: 6.00 Build 0)  -->
<svg version="1.1" id="Layer_1" xmlns="http://www.w3.org/2000/svg" xmlns:xlink="http://www.w3.org/1999/xlink" x="0px" y="0px"
	 viewBox="0 0 392.59 392.59" style="enable-background:new 0 0 392.59 392.59;" xml:space="preserve">
<g>
	<path style="fill:#56ACE0;" d="M306.781,30.505c-2.909-7.111-11.055-10.537-18.166-7.628L54.659,118.424
		c-7.176,2.909-10.667,11.119-7.758,18.295l7.37,17.842h28.768l235.248-96.259L306.781,30.505z"/>
	<path style="fill:#56ACE0;" d="M369.682,184.364L326.498,78.602l-185.923,76.089H288.55c19.782,0,35.879,16.097,35.879,35.879
		v27.539l37.56-15.321C369.164,199.814,372.655,191.539,369.682,184.364z"/>
</g>
<path style="fill:#FFFFFF;" d="M288.55,176.477H35.912c-7.758,0-14.093,6.335-14.093,14.093v166.141
	c0,7.758,6.335,14.093,14.093,14.093h252.574c7.758,0,14.093-6.335,14.093-14.093V190.57
	C302.643,182.748,296.308,176.477,288.55,176.477z"/>
<path style="fill:#194F82;" d="M389.916,176.089L327.015,22.295c-3.62-8.857-10.537-15.838-19.329-19.523s-18.618-3.685-27.41-0.065
	L46.449,98.255c-18.295,7.499-27.152,28.444-19.717,46.739l4.073,10.02C13.48,157.471,0.033,172.469,0.033,190.57v166.141
	c0,19.782,16.097,35.879,35.879,35.879h252.574c19.782,0,35.879-16.097,35.879-35.879V241.64l45.834-18.683
	C388.558,215.329,397.35,194.384,389.916,176.089z M54.659,118.424l233.956-95.483c7.111-2.909,15.192,0.453,18.166,7.628
	l11.442,27.798L83.039,154.626H54.271l-7.37-17.842C43.993,129.543,47.484,121.398,54.659,118.424z M302.643,356.647
	c0,7.758-6.335,14.093-14.093,14.093H35.912c-7.758,0-14.093-6.335-14.093-14.093V190.505c0-7.758,6.335-14.093,14.093-14.093
	h252.574c7.758,0,14.093,6.335,14.093,14.093v166.141H302.643z M362.053,202.723l-37.56,15.321v-27.539
	c0-19.782-16.097-35.879-35.879-35.879h-148.04l185.923-76.024l43.248,105.762C372.655,191.539,369.164,199.814,362.053,202.723z"/>
<path style="fill:#FFC10D;" d="M43.605,337.964V209.188c0-6.012,4.848-10.925,10.925-10.925h215.337
	c6.012,0,10.925,4.848,10.925,10.925v128.905c0,6.012-4.848,10.925-10.925,10.925H54.595
	C48.583,348.954,43.605,343.976,43.605,337.964z"/>
<g>
	<path style="fill:#194F82;" d="M82.328,331.628H70.045c-6.012,0-10.925-4.848-10.925-10.925s4.848-10.925,10.925-10.925h12.283
		c6.012,0,10.925,4.849,10.925,10.925C93.189,326.78,88.34,331.628,82.328,331.628z"/>
	<path style="fill:#194F82;" d="M136.114,331.628h-12.283c-6.012,0-10.925-4.848-10.925-10.925s4.848-10.925,10.925-10.925h12.283
		c6.012,0,10.925,4.849,10.925,10.925C146.975,326.78,142.061,331.628,136.114,331.628z"/>
</g>
<g>
	<path style="fill:#FFFFFF;" d="M212.591,304.735c-1.616-3.426-4.913-5.495-8.663-5.495c-5.301,0-9.632,4.331-9.632,9.632
		c0,5.301,4.331,9.632,9.632,9.632c3.685,0,7.046-2.069,8.663-5.495c0.84-1.681,2.069-3.168,3.62-4.202
		C214.659,307.903,213.431,306.481,212.591,304.735z"/>
	<path style="fill:#FFFFFF;" d="M240.841,299.24c-3.685,0-7.046,2.069-8.663,5.495c-0.84,1.681-2.069,3.168-3.62,4.267
		c1.552,1.099,2.78,2.457,3.62,4.202c1.616,3.426,4.913,5.495,8.663,5.495c5.301,0,9.632-4.331,9.632-9.632
		C250.538,303.572,246.142,299.24,240.841,299.24z"/>
</g>
<path style="fill:#194F82;" d="M240.841,277.39c-6.788,0-13.188,2.133-18.489,5.947c-5.236-3.879-11.636-5.947-18.489-5.947
	c-17.39,0-31.547,14.158-31.547,31.547c0,17.39,14.158,31.547,31.547,31.547c6.788,0,13.188-2.133,18.489-5.947
	c5.236,3.879,11.636,5.947,18.489,5.947c17.39,0,31.547-14.158,31.547-31.547C272.389,291.548,258.166,277.39,240.841,277.39z
	 M240.841,318.634c-3.685,0-7.046-2.069-8.663-5.495c-0.84-1.681-2.069-3.168-3.62-4.202c1.552-1.099,2.78-2.457,3.62-4.267
	c1.616-3.426,4.913-5.495,8.663-5.495c5.301,0,9.632,4.331,9.632,9.632C250.538,314.238,246.142,318.634,240.841,318.634z
	 M212.591,313.204c-1.616,3.426-4.913,5.495-8.663,5.495c-5.301,0-9.632-4.331-9.632-9.632c0-5.301,4.331-9.632,9.632-9.632
	c3.685,0,7.046,2.069,8.663,5.495c0.84,1.681,2.069,3.168,3.62,4.202C214.659,310.036,213.431,311.394,212.591,313.204z"/>
<g>
</g>
<g>
</g>
<g>
</g>
<g>
</g>
<g>
</g>
<g>
</g>
<g>
</g>
<g>
</g>
<g>
</g>
<g>
</g>
<g>
</g>
<g>
</g>
<g>
</g>
<g>
</g>
<g>
</g>
</svg>
