<?xml version="1.0" encoding="iso-8859-1"?>
<!-- Generator: Adobe Illustrator 19.0.0, SVG Export Plug-In . SVG Version: 6.00 Build 0)  -->
<svg version="1.1" id="Layer_1" xmlns="http://www.w3.org/2000/svg" xmlns:xlink="http://www.w3.org/1999/xlink" x="0px" y="0px"
	 viewBox="0 0 392.631 392.631" style="enable-background:new 0 0 392.631 392.631;" xml:space="preserve">
<path style="fill:#FFFFFF;" d="M196.38,21.786c-57.018,0-103.37,46.352-103.37,103.37S139.362,228.59,196.38,228.59
	s103.37-46.416,103.37-103.434C299.75,68.202,253.398,21.786,196.38,21.786z"/>
<path style="fill:#FFC10D;" d="M196.38,52.105c-29.026,0-54.109,17.067-65.939,41.632h35.943c6.012,0,10.925,4.848,10.925,10.925
	c0,6.077-4.848,10.925-10.925,10.925h-42.473c-0.388,3.168-0.711,6.4-0.711,9.632c0,3.297,0.323,6.465,0.711,9.632h21.851
	c6.012,0,10.925,4.848,10.925,10.925c0,6.012-4.848,10.925-10.925,10.925h-15.386c11.83,24.566,36.848,41.632,65.939,41.632
	c40.339,0,73.18-32.84,73.18-73.18C269.56,84.945,236.719,52.105,196.38,52.105z"/>
<path style="fill:#56ACE0;" d="M153.002,242.683V357.43l36.137-31.935c4.073-3.62,10.279-3.62,14.481,0l36.137,31.935V242.683
	c-13.511,5.042-28.121,7.758-43.378,7.758C181.123,250.44,166.578,247.725,153.002,242.683z"/>
<path style="fill:#194F82;" d="M196.38,0C127.273,0,71.095,56.178,71.095,125.285c0,45.188,24.113,84.816,60.057,106.861v149.527
	c0,9.374,11.055,14.352,18.101,8.21l47.063-41.503l47.063,41.503c7.046,6.206,18.101,1.228,18.101-8.21V232.145
	c36.008-22.044,60.057-61.673,60.057-106.861C321.665,56.178,265.487,0,196.38,0z M239.758,357.43l-36.202-31.871
	c-4.073-3.62-10.279-3.62-14.481,0l-36.137,31.935V242.683c13.511,5.042,28.121,7.758,43.378,7.758
	c15.257,0,29.802-2.78,43.378-7.758V357.43H239.758z M196.38,228.655c-57.018,0-103.37-46.352-103.37-103.37
	S139.362,21.851,196.38,21.851s103.37,46.352,103.37,103.37S253.398,228.655,196.38,228.655z"/>
<g>
</g>
<g>
</g>
<g>
</g>
<g>
</g>
<g>
</g>
<g>
</g>
<g>
</g>
<g>
</g>
<g>
</g>
<g>
</g>
<g>
</g>
<g>
</g>
<g>
</g>
<g>
</g>
<g>
</g>
</svg>
