<?xml version="1.0" encoding="UTF-8" standalone="no"?>
<svg
   xmlns:dc="http://purl.org/dc/elements/1.1/"
   xmlns:cc="http://creativecommons.org/ns#"
   xmlns:rdf="http://www.w3.org/1999/02/22-rdf-syntax-ns#"
   xmlns:svg="http://www.w3.org/2000/svg"
   xmlns="http://www.w3.org/2000/svg"
   xmlns:sodipodi="http://sodipodi.sourceforge.net/DTD/sodipodi-0.dtd"
   xmlns:inkscape="http://www.inkscape.org/namespaces/inkscape"
   version="1.1"
   id="Layer_1"
   x="0px"
   y="0px"
   viewBox="0 0 24 24"
   xml:space="preserve"
   sodipodi:docname="LOAN_ACC_NORMAL.svg"
   width="24"
   height="24"
   inkscape:version="1.0.2-2 (e86c870879, 2021-01-15)"><metadata
   id="metadata2672"><rdf:RDF><cc:Work
       rdf:about=""><dc:format>image/svg+xml</dc:format><dc:type
         rdf:resource="http://purl.org/dc/dcmitype/StillImage" /><dc:title></dc:title></cc:Work></rdf:RDF></metadata><defs
   id="defs2670" /><sodipodi:namedview
   pagecolor="#ffffff"
   bordercolor="#666666"
   borderopacity="1"
   objecttolerance="10"
   gridtolerance="10"
   guidetolerance="10"
   inkscape:pageopacity="0"
   inkscape:pageshadow="2"
   inkscape:window-width="2005"
   inkscape:window-height="992"
   id="namedview2668"
   showgrid="true"
   inkscape:zoom="17.593752"
   inkscape:cx="-0.87455932"
   inkscape:cy="20.850156"
   inkscape:window-x="0"
   inkscape:window-y="0"
   inkscape:window-maximized="0"
   inkscape:current-layer="Layer_1"><inkscape:grid
     type="xygrid"
     id="grid3235" /></sodipodi:namedview>
<g
   id="g2635"
   transform="matrix(0.04283735,0,0,0.04283735,1.0482863,1.0703414)">
	<g
   id="g2615">
		<g
   id="g2613">
			<path
   style="fill:#50a5dc"
   d="M 10,11 V 282.681 H 111.374 V 171.239 c 0,-32.51 26.355,-58.865 58.865,-58.865 H 281.681 V 11 Z"
   id="path2607" />
			<path
   style="fill:#fce600"
   d="M 324.19,112.374 H 281.682 170.239 c -32.51,0 -58.865,26.355 -58.865,58.865 v 111.442 42.508 c 0,32.51 26.355,58.865 58.865,58.865 h 59.851 c -0.739,-5.753 -1.123,-11.617 -1.123,-17.571 0,-31.59 10.734,-60.67 28.748,-83.802 6.966,-8.945 15.021,-17 23.966,-23.966 23.132,-18.014 52.212,-28.748 83.802,-28.748 5.954,0 11.818,0.383 17.571,1.123 v -59.851 c 0.001,-32.51 -26.354,-58.865 -58.864,-58.865 z"
   id="path2609" />
			<path
   style="fill:#50a5dc"
   d="m 383.055,231.09 c -5.753,-0.739 -11.617,-1.123 -17.571,-1.123 -31.59,0 -60.67,10.734 -83.802,28.748 -8.945,6.966 -17,15.021 -23.966,23.966 -18.014,23.132 -28.748,52.212 -28.748,83.802 0,5.954 0.383,11.818 1.123,17.571 C 238.712,451.151 296.042,503 365.484,503 440.88,503 502,441.879 502,366.484 502,297.042 450.151,239.712 383.055,231.09 Z"
   id="path2611" />
		</g>
	</g>
	<path
   d="m 163.412,244.648 c -5.523,0 -10,4.477 -10,10 v 45.957 c 0,5.523 4.477,10 10,10 5.523,0 10,-4.477 10,-10 v -45.957 c 0,-5.523 -4.477,-10 -10,-10 z"
   id="path2617"
   style="fill:#194f82;fill-opacity:1" />
	<path
   d="m 163.412,209.907 c -5.523,0 -10,-4.477 -10,-10 0,-25.637 20.857,-46.495 46.495,-46.495 h 45.28 c 5.523,0 10,4.477 10,10 0,5.523 -4.477,10 -10,10 h -45.28 c -14.609,0 -26.495,11.885 -26.495,26.495 0,5.523 -4.477,10 -10,10 z"
   id="path2619"
   style="fill:#194f82;fill-opacity:1" />
	<path
   d="m 149.22,71.363 h -12.165 c -5.523,0 -10,-4.477 -10,-10 0,-5.523 4.477,-10 10,-10 h 12.165 c 5.523,0 10,4.477 10,10 0,5.523 -4.477,10 -10,10 z"
   id="path2621"
   style="fill:#194f82;fill-opacity:1" />
	<path
   d="M 92.45,71.363 H 62.714 c -5.523,0 -10,-4.477 -10,-10 0,-5.523 4.477,-10 10,-10 H 92.45 c 5.523,0 10,4.477 10,10 0,5.523 -4.477,10 -10,10 z"
   id="path2623"
   style="fill:#194f82;fill-opacity:1" />
	<g
   id="g2627">
		<path
   d="m 393.055,221.58 v -51.341 c 0,-37.973 -30.893,-68.865 -68.866,-68.865 H 291.681 V 10 c 0,-5.523 -4.477,-10 -10,-10 H 10 C 4.477,0 0,4.477 0,10 v 271.681 c 0,5.523 4.477,10 10,10 h 91.374 v 32.508 c 0,37.973 30.893,68.866 68.865,68.866 H 221.58 C 234.516,460.708 294.117,512 365.483,512 446.273,512 512,446.273 512,365.483 512,294.117 460.708,234.516 393.055,221.58 Z M 101.374,271.681 H 20 V 20 h 251.681 v 81.374 H 170.239 c -37.973,0 -68.865,30.893 -68.865,68.865 z m 117.593,93.802 c 0,2.539 0.065,5.064 0.194,7.572 h -48.922 c -26.944,0 -48.865,-21.921 -48.865,-48.866 v -32.508 -20 -101.442 c 0,-26.944 21.921,-48.865 48.865,-48.865 h 101.442 20 32.508 c 26.945,0 48.866,21.921 48.866,48.865 v 48.922 c -2.508,-0.128 -5.032,-0.194 -7.572,-0.194 -79.735,0 -146.516,66.779 -146.516,146.516 z M 365.483,492 c -60.294,0 -110.864,-42.399 -123.482,-98.945 -1.449,-6.495 -2.397,-13.175 -2.802,-20 -0.149,-2.506 -0.233,-5.029 -0.233,-7.572 0,-68.843 57.673,-126.517 126.517,-126.517 2.543,0 5.066,0.084 7.572,0.233 6.825,0.405 13.505,1.352 20,2.802 C 449.601,254.619 492,305.19 492,365.483 492,435.245 435.245,492 365.483,492 Z"
   id="path2625"
   style="stroke:#194f82;stroke-opacity:1;fill:#194f82;fill-opacity:1" />
	</g>
	<path
   d="m 438.996,305.063 c -11.759,-14.292 -27.257,-24.78 -44.818,-30.328 -5.27,-1.665 -10.884,1.257 -12.548,6.523 -1.664,5.267 1.257,10.884 6.523,12.548 13.863,4.379 26.104,12.666 35.399,23.964 1.977,2.403 4.841,3.647 7.728,3.647 2.236,0 4.486,-0.747 6.348,-2.278 4.264,-3.509 4.877,-9.811 1.368,-14.076 z"
   id="path2629"
   style="fill:#194f82;fill-opacity:1" />
	<g
   id="g2633">
		<path
   d="m 280,375 c -5.523,0 -10,-4.477 -10,-10 0,-40.99 26.101,-77.261 64.949,-90.257 5.237,-1.75 10.904,1.073 12.656,6.311 1.752,5.237 -1.073,10.904 -6.311,12.656 C 310.613,303.974 290,332.623 290,365 c 0,5.523 -4.477,10 -10,10 z"
   id="path2631"
   style="fill:#194f82;fill-opacity:1" />
	</g>
</g>
<path
   style="fill:#e43333;fill-opacity:1;stroke:#e43333;stroke-width:2.63664;stroke-linecap:butt;stroke-linejoin:round;stroke-miterlimit:4;stroke-dasharray:none;stroke-opacity:1"
   d="m 18.408349,18.472648 -4.074125,3.954959 4.074125,-3.954959 -4.074094,-4.133232 4.074094,4.133232 4.014067,-4.133232 -4.014067,4.133232 4.014067,3.954959 -4.014067,-3.954959"
/>
</svg>
