<?xml version="1.0" encoding="iso-8859-1"?>
<!-- Generator: Adobe Illustrator 19.0.0, SVG Export Plug-In . SVG Version: 6.00 Build 0)  -->
<svg version="1.1" id="Layer_1" xmlns="http://www.w3.org/2000/svg" xmlns:xlink="http://www.w3.org/1999/xlink" x="0px" y="0px"
	 viewBox="0 0 392.591 392.591" style="enable-background:new 0 0 392.591 392.591;" xml:space="preserve">
<path style="fill:#FFC10D;" d="M196.331,23.972L173.77,38.712h16.937c6.012,0,10.925,4.848,10.925,10.925
	s-4.848,10.925-10.925,10.925h-50.295l-23.014,15.063h31.418c6.012,0,10.925,4.848,10.925,10.925
	c0,6.012-4.848,10.925-10.925,10.925h-64.84l-36.461,23.79h297.503L196.331,23.972z"/>
<rect x="88.63" y="184.166" style="fill:#56ACE0;" width="20.816" height="145.325"/>
<g>
	<path style="fill:#FFFFFF;" d="M72.016,152.748c0,5.301,4.331,9.632,9.632,9.632h34.651c5.301,0,9.632-4.331,9.632-9.632v-9.762
		H72.016L72.016,152.748L72.016,152.748z"/>
	<path style="fill:#FFFFFF;" d="M125.996,361.039c0-5.301-4.331-9.632-9.632-9.632H81.713c-5.301,0-9.632,4.331-9.632,9.632v9.632
		h53.915C125.996,370.671,125.996,361.039,125.996,361.039z"/>
</g>
<rect x="283.281" y="184.166" style="fill:#56ACE0;" width="20.816" height="145.325"/>
<g>
	<path style="fill:#FFFFFF;" d="M310.949,162.38c5.301,0,9.632-4.331,9.632-9.632v-9.762h-53.915v9.632
		c0,5.301,4.331,9.632,9.632,9.632h34.586v0.129H310.949z"/>
	<path style="fill:#FFFFFF;" d="M320.646,361.039c0-5.301-4.331-9.632-9.632-9.632h-34.586c-5.301,0-9.632,4.331-9.632,9.632v9.632
		h54.044v-9.632H320.646z"/>
</g>
<path style="fill:#194F82;" d="M381.737,370.8h-39.305v-9.632c0-11.96-6.723-22.432-16.614-27.733V180.481
	c9.891-5.301,16.614-15.774,16.614-27.733v-9.762h39.24c10.796,0,15.063-14.093,5.947-20.04L202.279,1.798
	c-3.62-2.392-8.339-2.392-11.895,0L4.978,123.011c-9.051,5.947-4.848,20.04,5.947,20.04H50.23v9.632
	c0,11.96,6.723,22.432,16.614,27.733V333.37c-9.891,5.301-16.614,15.709-16.614,27.669v9.632H10.925
	C4.913,370.671,0,375.52,0,381.596s4.848,10.99,10.925,10.99h370.683c6.012,0,10.925-4.848,10.925-10.925
	C392.533,375.649,387.749,370.8,381.737,370.8z M84.04,97.411h64.84c6.012,0,10.925-4.848,10.925-10.925
	c0-6.012-4.848-10.925-10.925-10.925h-31.418l23.014-15.063h50.295c6.012,0,10.925-4.848,10.925-10.925
	c0-6.012-4.848-10.925-10.925-10.925h-16.937l22.497-14.739l148.752,97.228H47.58L84.04,97.411z M109.382,329.621H88.566V184.166
	h20.816V329.621z M72.016,361.039c0-5.301,4.331-9.632,9.632-9.632h34.651c5.301,0,9.632,4.331,9.632,9.632v9.632H72.016
	L72.016,361.039L72.016,361.039z M125.996,152.748c0,5.301-4.331,9.632-9.632,9.632H81.713c-5.301,0-9.632-4.331-9.632-9.632v-9.762
	h53.915C125.996,142.986,125.996,152.748,125.996,152.748z M304.032,329.621h-20.816V184.166h20.816V329.621z M266.667,152.748
	v-9.762h54.044v9.632c0,5.301-4.331,9.632-9.632,9.632h-34.586C270.998,162.38,266.667,158.049,266.667,152.748z M266.667,361.039
	c0-5.301,4.331-9.632,9.632-9.632h34.586c5.301,0,9.632,4.331,9.632,9.632v9.632h-53.915v-9.632H266.667z M244.881,361.039v9.632
	h-97.099v-9.632c0-11.96-6.723-22.432-16.614-27.733V180.481c9.891-5.301,16.614-15.774,16.614-27.733v-9.762h96.97v9.632
	c0,11.96,6.723,22.432,16.614,27.733v152.954C251.604,338.671,244.881,349.079,244.881,361.039z"/>
<g>
</g>
<g>
</g>
<g>
</g>
<g>
</g>
<g>
</g>
<g>
</g>
<g>
</g>
<g>
</g>
<g>
</g>
<g>
</g>
<g>
</g>
<g>
</g>
<g>
</g>
<g>
</g>
<g>
</g>
</svg>
