<?xml version="1.0" encoding="iso-8859-1"?>
<!-- Generator: Adobe Illustrator 19.0.0, SVG Export Plug-In . SVG Version: 6.00 Build 0)  -->
<svg version="1.1" id="Layer_1" xmlns="http://www.w3.org/2000/svg" xmlns:xlink="http://www.w3.org/1999/xlink" x="0px" y="0px"
	 viewBox="0 0 508.032 508.032" style="enable-background:new 0 0 508.032 508.032;" xml:space="preserve">
<path style="fill:#FFC10D;" d="M254.002,127.878c-55.8,0-103.2,36.5-119.9,86.8h31.2c7.8,0,14.1,6.3,14.1,14.1s-6.3,14.1-14.1,14.1
	h-37.1c-0.3,3.7-0.6,7.4-0.6,11.2s0.2,7.5,0.6,11.2h26.1c7.8,0,14.1,6.3,14.1,14.1c0,7.8-6.3,14.1-14.1,14.1h-20.2
	c16.6,50.3,64,86.8,119.9,86.8c69.6,0,126.3-56.6,126.3-126.3S323.602,127.878,254.002,127.878z"/>
<path style="fill:#194F82;" d="M254.002,99.578c-85.2,0-154.5,69.3-154.5,154.5s69.3,154.6,154.5,154.6s154.5-69.3,154.5-154.5
	S339.202,99.578,254.002,99.578z M254.002,380.378c-55.8,0-103.2-36.5-119.9-86.8h20.2c7.8,0,14.1-6.3,14.1-14.1
	c0-7.8-6.3-14.1-14.1-14.1h-26.1c-0.3-3.7-0.6-7.4-0.6-11.2c0-3.8,0.2-7.5,0.6-11.2h37.1c7.8,0,14.1-6.3,14.1-14.1
	s-6.3-14.1-14.1-14.1h-31.2c16.6-50.3,64-86.8,119.9-86.8c69.6,0,126.3,56.6,126.3,126.3S323.602,380.378,254.002,380.378z"/>
<g>
	<path style="fill:#194F82;" d="M254.002,196.078c12.1,0,22,9.9,22,22c0,7.8,6.3,14.1,14.1,14.1s14.1-6.3,14.1-14.1
		c0-22.8-15.3-42.1-36.2-48.2v-9.9c0-7.8-6.3-14.1-14.1-14.1c-7.8,0-14.1,6.3-14.1,14.1v9.9c-20.9,6.1-36.2,25.4-36.2,48.2
		c0,27.7,22.5,50.3,50.3,50.3c-0.4,0.1,0,0,0.1,0c11.2,1,21.9,10.3,21.9,21.8c0,12.2-9.9,22-22,22c-12.1,0-22-9.9-22-22
		c0-7.8-6.3-14.1-14.1-14.1s-14.1,6.3-14.1,14.1c0,22.8,15.3,42.1,36.2,48.2v9.8c0,7.8,6.3,14.1,14.1,14.1c7.8,0,14.1-6.3,14.1-14.1
		v-9.8c20.9-6.1,36.2-25.4,36.2-48.2c0-27.7-24.4-50.1-52.2-50.1c0.4-0.1,0,0-0.1,0c-11.2-1-20-10.5-20-21.9
		C232.002,205.978,241.802,196.078,254.002,196.078z"/>
	<path style="fill:#194F82;" d="M492.402,316.078c-7.4-2.4-15.4,1.6-17.8,9c-39.1,118.3-167.1,182.7-285.4,143.6
		c-118.3-39.2-182.7-167.2-143.6-285.5c39.1-118.2,167.1-182.6,285.4-143.5c38,12.6,70.9,34.5,97,63.7l-43.7,1.3
		c-7.8-1.3-15,3.9-16.2,11.6c-1.3,7.7,3.9,15,11.6,16.2l79.3,4.6c8.1,1.3,14.9-4,16.2-11.6l12.7-77.5c1.3-7.7-3.9-15-11.6-16.2
		c-7.8-1.3-15,3.9-16.2,11.6l-7.5,45.2c-29.9-34.7-68.9-61.2-112.8-75.7c-133-44-277,28.4-321,161.5c-44,133,28.1,278.3,161.5,321.1
		c137.4,44,277-31.9,321.1-161.5C503.902,326.478,499.802,318.478,492.402,316.078z"/>
</g>
<g>
</g>
<g>
</g>
<g>
</g>
<g>
</g>
<g>
</g>
<g>
</g>
<g>
</g>
<g>
</g>
<g>
</g>
<g>
</g>
<g>
</g>
<g>
</g>
<g>
</g>
<g>
</g>
<g>
</g>
</svg>
