<?xml version="1.0" encoding="iso-8859-1"?>
<!-- Generator: Adobe Illustrator 19.0.0, SVG Export Plug-In . SVG Version: 6.00 Build 0)  -->
<svg version="1.1" id="Layer_1" xmlns="http://www.w3.org/2000/svg" xmlns:xlink="http://www.w3.org/1999/xlink" x="0px" y="0px"
	 viewBox="0 0 512 512" style="enable-background:new 0 0 512 512;" xml:space="preserve">
<path style="fill:#194F82;" d="M191.448,406.768H63.583l51.386-89.001l5.623,20.918c2.793,10.389,12.19,17.237,22.46,17.237
	c2,0,4.034-0.259,6.056-0.805c12.414-3.334,19.771-16.103,16.434-28.515l-20.182-75.078c-0.002-0.006-0.003-0.014-0.005-0.022
	c-0.002-0.003-0.003-0.005-0.003-0.009c-0.006-0.017-0.012-0.034-0.017-0.051c-0.062-0.225-0.146-0.436-0.214-0.658
	c-0.149-0.495-0.293-0.993-0.475-1.471c-0.011-0.028-0.02-0.059-0.029-0.088c-0.048-0.129-0.113-0.247-0.164-0.374
	c-0.064-0.157-0.137-0.306-0.203-0.459c-0.166-0.391-0.326-0.787-0.51-1.165c-0.023-0.043-0.039-0.093-0.062-0.138
	c-0.15-0.299-0.33-0.58-0.492-0.874c-0.067-0.119-0.133-0.236-0.2-0.355c-0.074-0.135-0.15-0.268-0.227-0.4
	c-0.04-0.078-0.082-0.152-0.126-0.225c-0.031-0.048-0.054-0.101-0.085-0.149c-0.178-0.284-0.385-0.546-0.576-0.819
	c-0.211-0.303-0.414-0.614-0.638-0.908c-0.116-0.15-0.242-0.292-0.365-0.436c-0.106-0.124-0.208-0.25-0.313-0.374
	c-0.016-0.017-0.031-0.036-0.045-0.054c-0.248-0.293-0.492-0.594-0.752-0.874c-0.002-0.003-0.005-0.005-0.006-0.008
	c-0.23-0.244-0.478-0.469-0.717-0.701c-0.025-0.025-0.05-0.05-0.076-0.074c-0.278-0.268-0.548-0.546-0.838-0.799
	c-0.003-0.003-0.006-0.005-0.009-0.008c-0.199-0.172-0.41-0.332-0.616-0.493c-0.121-0.095-0.239-0.194-0.36-0.289
	c-0.265-0.209-0.521-0.43-0.797-0.627c-0.563-0.403-1.148-0.777-1.745-1.129c-0.062-0.036-0.116-0.079-0.178-0.115
	c-0.003-0.002-0.005-0.002-0.006-0.005c-0.563-0.323-1.145-0.61-1.733-0.886c-0.099-0.048-0.194-0.105-0.295-0.152
	c-0.008-0.005-0.014-0.006-0.02-0.009c-0.317-0.144-0.647-0.258-0.971-0.388c-0.064-0.025-0.127-0.05-0.191-0.074
	c-0.31-0.123-0.616-0.258-0.934-0.365c-0.006-0.002-0.012-0.005-0.019-0.006c-0.389-0.132-0.788-0.233-1.184-0.344
	c-0.033-0.011-0.067-0.019-0.099-0.028c-0.098-0.028-0.197-0.054-0.293-0.082c-0.203-0.059-0.403-0.123-0.61-0.169
	c-0.399-0.095-0.805-0.157-1.209-0.23c-0.242-0.043-0.486-0.087-0.728-0.127c-0.098-0.017-0.197-0.039-0.295-0.051
	c-0.005,0-0.008-0.002-0.008-0.002c-0.393-0.051-0.787-0.073-1.178-0.104c-0.368-0.029-0.732-0.07-1.102-0.082
	c-0.389-0.012-0.782,0.006-1.174,0.014c-0.171,0.003-0.343-0.002-0.514,0.005c-0.155,0.006-0.306-0.005-0.459,0.005
	c-0.043,0.005-0.087,0.011-0.13,0.014c-0.388,0.026-0.777,0.084-1.165,0.13c-0.068,0.008-0.135,0.014-0.203,0.022
	c-0.276,0.034-0.549,0.048-0.825,0.093c-0.022,0.003-0.043,0.009-0.065,0.014c-0.115,0.02-0.23,0.051-0.346,0.074
	c-0.5,0.09-0.996,0.199-1.489,0.321c-0.141,0.029-0.284,0.054-0.424,0.092l-0.006,0.002h-0.003l-0.003,0.002l-75.141,20.165
	c-12.415,3.331-19.777,16.095-16.446,28.509c2.79,10.394,12.19,17.247,22.463,17.247c1.997,0,4.028-0.259,6.046-0.802l20.855-5.598
	L3.119,418.404c-4.158,7.199-4.158,16.071,0,23.273c4.158,7.199,11.84,11.636,20.154,11.636h168.175
	c12.853,0,23.273-10.42,23.273-23.273S204.302,406.768,191.448,406.768z"/>
<path style="fill:#C7EBFF;" d="M424.794,272.759c-6.428-11.132-20.66-14.943-31.791-8.519c-11.132,6.428-14.946,20.662-8.518,31.792
	l63.932,110.736l-102.768-0.003l15.303-15.327c9.083-9.095,9.07-23.831-0.028-32.912c-9.095-9.081-23.831-9.07-32.912,0.026
	l-54.953,55.042c-0.101,0.101-0.186,0.213-0.285,0.317c-0.428,0.445-0.85,0.898-1.243,1.376c-0.022,0.025-0.045,0.048-0.065,0.074
	c-0.219,0.267-0.403,0.551-0.607,0.824c-0.022,0.028-0.042,0.057-0.064,0.087c-0.208,0.281-0.427,0.555-0.619,0.842
	c-0.029,0.045-0.065,0.087-0.095,0.13c-0.194,0.293-0.354,0.602-0.531,0.901c-0.006,0.009-0.012,0.019-0.017,0.028
	c-0.135,0.225-0.27,0.45-0.402,0.678c-0.042,0.074-0.092,0.147-0.13,0.222c-0.028,0.053-0.064,0.102-0.092,0.157
	c-0.149,0.284-0.265,0.577-0.4,0.863c-0.012,0.023-0.023,0.048-0.033,0.07c-0.09,0.191-0.175,0.38-0.264,0.569
	c-0.064,0.135-0.132,0.267-0.188,0.405c-0.022,0.054-0.051,0.105-0.073,0.16c-0.118,0.29-0.203,0.59-0.309,0.883
	c-0.005,0.012-0.008,0.025-0.012,0.034c-0.127,0.357-0.264,0.707-0.372,1.069c-0.016,0.048-0.036,0.095-0.05,0.144
	c-0.095,0.315-0.154,0.638-0.233,0.956l0,0c-0.093,0.371-0.197,0.739-0.272,1.112c-0.008,0.037-0.02,0.074-0.028,0.113
	c-0.051,0.271-0.076,0.546-0.118,0.819c-0.019,0.112-0.031,0.223-0.048,0.337c-0.022,0.154-0.042,0.307-0.065,0.459
	c-0.028,0.172-0.057,0.343-0.074,0.517c-0.003,0.028-0.009,0.056-0.012,0.082c-0.025,0.253-0.02,0.507-0.036,0.76
	c-0.028,0.433-0.057,0.867-0.06,1.302c0,0.051-0.008,0.101-0.008,0.152c0,0.002,0,0.005,0,0.005c0,0.003,0,0.008,0,0.012
	c0,0.203,0.023,0.406,0.029,0.61c0.016,0.542,0.028,1.083,0.079,1.621c0.003,0.022,0.006,0.04,0.009,0.062
	c0.014,0.141,0.039,0.278,0.061,0.417c0.022,0.177,0.051,0.352,0.076,0.529c0.057,0.403,0.099,0.807,0.175,1.207
	c0.006,0.033,0.019,0.065,0.025,0.098c0.073,0.368,0.175,0.723,0.265,1.085c0.084,0.332,0.147,0.669,0.245,0.999
	c0.012,0.042,0.033,0.084,0.043,0.127c0.109,0.355,0.242,0.698,0.366,1.047c0.113,0.32,0.209,0.642,0.337,0.957
	c0.02,0.048,0.047,0.096,0.067,0.144c0.135,0.323,0.292,0.632,0.441,0.946c0.152,0.324,0.285,0.655,0.453,0.973
	c0.026,0.048,0.057,0.095,0.085,0.143c0.011,0.022,0.026,0.042,0.036,0.062c0.149,0.273,0.318,0.54,0.479,0.81
	c0.191,0.323,0.365,0.652,0.573,0.967c0.026,0.039,0.057,0.074,0.084,0.113c0.02,0.031,0.045,0.061,0.065,0.09
	c0.191,0.282,0.405,0.552,0.61,0.829c0.213,0.284,0.403,0.577,0.63,0.852c0.016,0.019,0.034,0.036,0.048,0.054l0.002,0.003
	c0.458,0.554,0.943,1.092,1.458,1.612c0.029,0.03,0.053,0.061,0.082,0.092l55.045,54.998c4.544,4.541,10.498,6.81,16.449,6.81
	c5.959,0,11.919-2.275,16.463-6.824c9.084-9.092,9.079-23.827-0.014-32.912l-15.275-15.262l142.98,0.001
	c8.313,0,15.996-4.437,20.154-11.636c4.158-7.201,4.158-16.072,0-23.273L424.794,272.759z"/>
<path style="fill:#FFC10D;" d="M349.595,221.953c0.006,0.002,0.011,0.003,0.017,0.005c0.019,0.005,0.036,0.008,0.053,0.012
	c0.282,0.074,0.563,0.133,0.846,0.197c0.216,0.048,0.43,0.104,0.647,0.147c0.146,0.028,0.292,0.045,0.438,0.071
	c0.348,0.061,0.695,0.126,1.044,0.171c0.239,0.031,0.478,0.045,0.715,0.07c0.07,0.006,0.14,0.012,0.209,0.02
	c0.059,0.005,0.118,0.011,0.175,0.017c0.135,0.014,0.27,0.031,0.403,0.039c0.5,0.033,1.001,0.048,1.499,0.048
	c0.047,0,0.092-0.005,0.138-0.006c0.532-0.003,1.061-0.026,1.587-0.067c0.186-0.014,0.369-0.034,0.554-0.054
	c0.258-0.025,0.51-0.061,0.766-0.095c0.151-0.02,0.303-0.034,0.453-0.056c0.101-0.016,0.203-0.022,0.303-0.039
	c0.081-0.014,0.158-0.036,0.239-0.05c0.082-0.014,0.161-0.036,0.242-0.051c0.368-0.07,0.739-0.143,1.102-0.231
	c0.088-0.02,0.178-0.033,0.267-0.056c0.012-0.003,0.023-0.006,0.034-0.009c0.017-0.005,0.033-0.011,0.048-0.016
	c0.579-0.147,1.151-0.315,1.714-0.506c0.002,0,0.003-0.002,0.003-0.002c0.014-0.005,0.026-0.009,0.037-0.012
	c0.169-0.059,0.337-0.129,0.504-0.195c0.355-0.133,0.712-0.261,1.063-0.41c0.048-0.022,0.099-0.036,0.146-0.056
	c0.109-0.048,0.213-0.105,0.321-0.155c0.206-0.093,0.41-0.197,0.613-0.295c0.163-0.078,0.329-0.152,0.49-0.234
	c0.085-0.045,0.175-0.082,0.262-0.127c0.096-0.051,0.186-0.112,0.282-0.164c0.149-0.082,0.298-0.154,0.445-0.237
	c0.116-0.067,0.222-0.147,0.335-0.216c0.006-0.003,0.011-0.006,0.016-0.009c0.177-0.109,0.363-0.202,0.538-0.315
	c0.237-0.152,0.465-0.324,0.697-0.486c0.054-0.037,0.11-0.076,0.164-0.113c0.149-0.105,0.299-0.205,0.447-0.312
	c0.074-0.056,0.155-0.102,0.228-0.158c0.316-0.242,0.617-0.504,0.925-0.76c0.057-0.048,0.118-0.096,0.175-0.144
	c0.112-0.098,0.23-0.183,0.341-0.282c0.002-0.002,0.005-0.003,0.006-0.005c0.306-0.273,0.594-0.568,0.886-0.856
	c0.155-0.152,0.316-0.295,0.467-0.451c0.04-0.043,0.078-0.092,0.118-0.133c0.065-0.07,0.127-0.144,0.191-0.217
	c0.095-0.112,0.192-0.222,0.289-0.33c0.163-0.185,0.33-0.365,0.487-0.554c0.053-0.064,0.11-0.119,0.163-0.185
	c0.088-0.109,0.163-0.227,0.25-0.337c0.161-0.205,0.312-0.419,0.467-0.628c0.121-0.168,0.251-0.326,0.369-0.496
	c0.016-0.023,0.033-0.042,0.048-0.065c0.127-0.186,0.237-0.388,0.36-0.58c0.132-0.208,0.264-0.417,0.391-0.63
	c0.064-0.107,0.135-0.209,0.197-0.318c0.022-0.036,0.043-0.067,0.064-0.102c0.157-0.275,0.29-0.565,0.433-0.847
	c0.102-0.2,0.213-0.399,0.309-0.602c0.223-0.469,0.424-0.951,0.617-1.438c0.037-0.095,0.078-0.191,0.116-0.285
	c0.033-0.081,0.07-0.16,0.099-0.244c0.227-0.624,0.433-1.26,0.611-1.911c0.003-0.012,0.008-0.025,0.011-0.034
	c0.009-0.031,0.02-0.059,0.028-0.09c0,0,0-0.002,0.002-0.003l0,0v-0.002c0.002-0.002,0.002-0.005,0.003-0.008
	c0.002-0.005,0.002-0.008,0.002-0.011l20.103-75.148c3.322-12.417-4.051-25.176-16.468-28.497
	c-12.412-3.32-25.173,4.053-28.495,16.468l-5.581,20.859l-71.48-123.82c-4.156-7.202-11.84-11.638-20.154-11.638
	c-8.313,0-15.998,4.436-20.154,11.636L151.789,160.97c-6.428,11.131-2.614,25.366,8.518,31.792
	c11.127,6.425,25.363,2.613,31.791-8.519L256.031,73.51l51.382,89.001l-20.925-5.589c-12.404-3.316-25.173,4.06-28.489,16.479
	c-3.317,12.418,4.062,25.173,16.48,28.489L349.595,221.953z"/>
</svg>
