<?xml version="1.0" encoding="iso-8859-1"?>
<!-- Generator: Adobe Illustrator 19.0.0, SVG Export Plug-In . SVG Version: 6.00 Build 0)  -->
<svg version="1.1" id="Layer_1" xmlns="http://www.w3.org/2000/svg" xmlns:xlink="http://www.w3.org/1999/xlink" x="0px" y="0px"
	 viewBox="0 0 392.533 392.533" style="enable-background:new 0 0 392.533 392.533;" xml:space="preserve">
<path style="fill:#FFFFFF;" d="M359.822,21.786H32.711c-6.012,0-10.925,4.848-10.925,10.925v285.543
	c0,6.012,4.848,10.925,10.925,10.925h327.111c6.012,0,10.925-4.848,10.925-10.925V32.711
	C370.747,26.699,365.834,21.786,359.822,21.786z"/>
<g>
	<polygon style="fill:#56ACE0;" points="76.477,350.966 76.477,370.747 116.493,370.747 116.493,350.966 	"/>
	<polygon style="fill:#56ACE0;" points="276.04,350.966 276.04,370.747 316.057,370.747 316.057,350.966 	"/>
</g>
<path style="fill:#194F82;" d="M359.822,0H32.711C14.675,0,0,14.675,0,32.711v285.543c0,18.036,14.675,32.711,32.711,32.711h21.98
	v19.782c0,12.024,9.826,21.786,21.786,21.786h39.952c12.024,0,21.786-9.826,21.786-21.786v-19.782h115.911v19.782
	c0,12.024,9.826,21.786,21.786,21.786h40.081c12.024,0,21.786-9.826,21.786-21.786v-19.782h22.044
	c18.036,0,32.711-14.675,32.711-32.711V32.711C392.533,14.675,377.859,0,359.822,0z M76.477,370.747v-19.782h39.952v19.782H76.477z
	 M276.04,370.747v-19.782h40.016v19.782H276.04z M370.747,318.19c0,6.012-4.848,10.925-10.925,10.925H32.711
	c-6.012,0-10.925-4.848-10.925-10.925V32.711c0-6.012,4.848-10.925,10.925-10.925h327.111c6.012,0,10.925,4.848,10.925,10.925
	v285.543l0,0V318.19z"/>
<path style="fill:#FFC10D;" d="M272.549,97.875c0-6.012,4.848-10.925,10.925-10.925h43.766V65.293H65.422v220.057h261.754V160.582
	h-10.99c-6.012,0-10.925-4.848-10.925-10.925c0-6.012,4.848-10.925,10.925-10.925h10.99v-30.061H283.41
	C277.398,108.8,272.549,103.952,272.549,97.875z"/>
<g>
	<path style="fill:#194F82;" d="M253.285,164.59h-9.115c-1.745-11.83-6.4-22.691-13.188-31.935l6.465-6.465
		c4.267-4.267,4.267-11.119,0-15.451c-4.267-4.267-11.119-4.267-15.451,0l-6.465,6.465c-9.18-6.788-20.105-11.442-31.935-13.188
		v-9.18c0-6.012-4.848-10.925-10.925-10.925c-6.012,0-10.925,4.848-10.925,10.925v9.18c-11.83,1.745-22.691,6.4-31.935,13.188
		l-6.465-6.465c-4.267-4.267-11.119-4.267-15.451,0c-4.267,4.267-4.267,11.119,0,15.451l6.465,6.465
		c-6.788,9.18-11.442,20.105-13.188,31.935h-9.18c-6.012,0-10.925,4.848-10.925,10.925c0,6.012,4.848,10.925,10.925,10.925h9.244
		c1.745,11.83,6.4,22.691,13.188,31.935l-6.465,6.465c-4.267,4.267-4.267,11.119,0,15.451c4.267,4.267,11.119,4.267,15.451,0
		l6.465-6.465c9.18,6.788,20.105,11.442,31.935,13.188v9.18c0,6.012,4.848,10.925,10.925,10.925c6.012,0,10.925-4.848,10.925-10.925
		v-9.18c11.83-1.745,22.691-6.4,31.935-13.188l6.465,6.465c4.267,4.267,11.119,4.267,15.451,0c4.267-4.267,4.267-11.119,0-15.451
		l-6.465-6.465c6.788-9.18,11.442-20.105,13.188-31.935h9.18c6.012,0,10.925-4.848,10.925-10.925
		C264.21,169.438,259.297,164.59,253.285,164.59z M122.117,175.451c0-27.927,22.691-50.618,50.618-50.618
		s50.618,22.691,50.618,50.618s-22.691,50.618-50.618,50.618S122.117,203.378,122.117,175.451z"/>
	<path style="fill:#194F82;" d="M327.111,43.572H65.422c-12.024,0-21.786,9.826-21.786,21.786v220.057
		c0,12.024,9.826,21.786,21.786,21.786h261.754c12.024,0,21.786-9.826,21.786-21.786V65.422
		C348.962,53.398,339.135,43.572,327.111,43.572z M65.422,285.543V65.422h261.754v220.057H65.422V285.543z"/>
</g>
<g>
</g>
<g>
</g>
<g>
</g>
<g>
</g>
<g>
</g>
<g>
</g>
<g>
</g>
<g>
</g>
<g>
</g>
<g>
</g>
<g>
</g>
<g>
</g>
<g>
</g>
<g>
</g>
<g>
</g>
</svg>
