<?xml version="1.0" encoding="iso-8859-1"?>
<!-- Generator: Adobe Illustrator 19.0.0, SVG Export Plug-In . SVG Version: 6.00 Build 0)  -->
<svg version="1.1" id="Layer_1" xmlns="http://www.w3.org/2000/svg" xmlns:xlink="http://www.w3.org/1999/xlink" x="0px" y="0px"
	 viewBox="0 0 392.663 392.663" style="enable-background:new 0 0 392.663 392.663;" xml:space="preserve">
<path style="fill:#194F82;" d="M189.091,186.174h36.913c6.012,0,10.925-4.848,10.925-10.925c0-6.012-4.848-10.925-10.925-10.925
	h-13.123v-6.077c0-6.012-4.848-10.925-10.925-10.925s-10.925,4.848-10.925,10.925v6.077h-2.004
	c-18.36,0-33.293,14.933-33.293,33.293s14.933,33.293,33.293,33.293h14.545c6.335,0,11.507,5.172,11.507,11.507
	s-5.172,11.507-11.507,11.507h-36.913c-6.012,0-10.925,4.848-10.925,10.925c0,6.012,4.848,10.925,10.925,10.925h24.372v6.077
	c0,6.012,4.848,10.925,10.925,10.925s10.925-4.848,10.925-10.925v-7.499c13.899-4.008,24.113-16.873,24.113-32
	c0-18.36-14.933-33.293-33.293-33.293h-14.545c-6.335,0-11.507-5.172-11.507-11.507
	C177.584,191.281,182.756,186.174,189.091,186.174z"/>
<polygon style="fill:#56ACE0;" points="370.812,60.242 196.331,22.166 21.851,60.242 21.851,100.065 370.812,100.065 "/>
<rect x="21.851" y="340.097" style="fill:#FFFFFF;" width="348.962" height="30.707"/>
<g>
	<rect x="40.404" y="121.85" style="fill:#FFC10D;" width="26.182" height="196.396"/>
	<rect x="326.141" y="121.85" style="fill:#FFC10D;" width="26.182" height="196.396"/>
</g>
<path style="fill:#194F82;" d="M381.737,121.85c6.012,0,10.925-4.848,10.925-10.925V51.451c0-5.107-3.556-9.568-8.598-10.667
	L198.659,0.251c-1.552-0.323-3.103-0.323-4.655,0L8.663,40.784c-5.042,1.099-8.598,5.56-8.598,10.667v59.475
	c0,6.012,4.848,10.925,10.925,10.925h7.564v196.396h-7.628C4.913,318.311,0,323.224,0,329.236v52.493
	c0,6.012,4.848,10.925,10.925,10.925h370.747c6.012,0,10.925-4.848,10.925-10.925v-52.493c0-6.012-4.848-10.925-10.925-10.925
	h-7.564V121.786h7.628V121.85z M370.812,370.804H21.851v-30.707h348.962L370.812,370.804L370.812,370.804z M40.404,318.311V121.786
	h26.117v196.396H40.404V318.311z M88.372,318.311V121.786h215.984v196.396H88.372V318.311z M326.141,318.311V121.786h26.182v196.396
	h-26.182V318.311z M370.812,100.065H21.851V60.242l174.481-38.077l174.481,38.077V100.065z"/>
<g>
</g>
<g>
</g>
<g>
</g>
<g>
</g>
<g>
</g>
<g>
</g>
<g>
</g>
<g>
</g>
<g>
</g>
<g>
</g>
<g>
</g>
<g>
</g>
<g>
</g>
<g>
</g>
<g>
</g>
</svg>
