<?xml version="1.0" encoding="iso-8859-1"?>
<!-- Generator: Adobe Illustrator 19.0.0, SVG Export Plug-In . SVG Version: 6.00 Build 0)  -->
<svg version="1.1" id="Layer_1" xmlns="http://www.w3.org/2000/svg" xmlns:xlink="http://www.w3.org/1999/xlink" x="0px" y="0px"
	 viewBox="0 0 392.598 392.598" style="enable-background:new 0 0 392.598 392.598;" xml:space="preserve">
<rect x="21.851" y="117.204" style="fill:#FFFFFF;" width="348.962" height="231.499"/>
<path style="fill:#FFC10D;" d="M43.636,138.925v23.014h48.679c6.012,0,10.925,4.848,10.925,10.925
	c0,6.012-4.848,10.925-10.925,10.925H43.636v143.063h305.325V138.925H43.636z"/>
<g>
	<path style="fill:#194F82;" d="M194.844,221.996c-0.129,0-0.129,0-0.065,0c-8.598-0.776-15.321-7.952-15.321-16.743
		c0-9.244,7.564-16.873,16.873-16.873s16.873,7.564,16.873,16.873c0,6.012,4.848,10.925,10.925,10.925
		c6.012,0,10.925-4.848,10.925-10.925c0-17.519-11.766-32.323-27.733-37.042v-7.564c0-6.012-4.848-10.925-10.925-10.925
		s-10.925,4.848-10.925,10.925v7.564c-15.968,4.719-27.733,19.523-27.733,37.042c0,21.333,17.325,38.659,38.659,38.659
		c0.129,0,0.129,0,0.065,0c8.598,0.776,16.743,7.887,16.743,16.679c0,9.18-7.434,16.614-16.549,16.743c-0.065,0-0.129,0-0.323,0
		c-0.065,0-0.129,0-0.323,0c-9.115-0.129-16.549-7.628-16.549-16.743c0-6.012-4.848-10.925-10.925-10.925
		c-6.012,0-10.925,4.848-10.925,10.925c0,17.519,11.766,32.323,27.733,37.042v7.499c0,6.012,4.848,10.925,10.925,10.925
		s10.925-4.848,10.925-10.925v-7.499c15.968-4.719,27.733-19.523,27.733-37.042C234.99,239.192,216.178,221.996,194.844,221.996z"/>
	<path style="fill:#194F82;" d="M196.396,243.846h-0.065C196.008,243.911,196.331,243.846,196.396,243.846z"/>
	<path style="fill:#194F82;" d="M194.78,221.996h0.065C195.168,221.996,194.909,221.996,194.78,221.996z"/>
	<path style="fill:#194F82;" d="M311.143,254.19c-6.012,0-10.925-4.848-10.925-10.925v-20.945c0-6.012,4.848-10.925,10.925-10.925
		c6.012,0,10.925,4.848,10.925,10.925v20.945C322.133,249.341,317.156,254.19,311.143,254.19z"/>
	<path style="fill:#194F82;" d="M81.455,254.19c-6.012,0-10.925-4.848-10.925-10.925v-20.945c0-6.012,4.848-10.925,10.925-10.925
		s10.925,4.848,10.925,10.925v20.945C92.38,249.341,87.467,254.19,81.455,254.19z"/>
	<path style="fill:#194F82;" d="M381.737,95.418h-27.733c0-6.012-4.848-10.925-10.925-10.925h-20.945
		c-6.012,0-10.925,4.848-10.925,10.925h-18.036V32.97c0-6.012-4.848-10.925-10.925-10.925H110.352
		c-6.012,0-10.925,4.848-10.925,10.925v62.448H81.39c0-6.012-4.848-10.925-10.925-10.925H49.648
		c-6.012,0-10.925,4.848-10.925,10.925H10.925C4.913,95.418,0,100.267,0,106.343v253.285c0,6.012,4.848,10.925,10.925,10.925
		h370.747c6.012,0,10.925-4.848,10.925-10.925V106.279C392.598,100.267,387.749,95.418,381.737,95.418z M121.212,43.895h150.238
		v51.523H121.212V43.895z M370.812,348.768H21.851V117.204h348.962L370.812,348.768L370.812,348.768z"/>
</g>
<g>
</g>
<g>
</g>
<g>
</g>
<g>
</g>
<g>
</g>
<g>
</g>
<g>
</g>
<g>
</g>
<g>
</g>
<g>
</g>
<g>
</g>
<g>
</g>
<g>
</g>
<g>
</g>
<g>
</g>
</svg>
