<?xml version="1.0" encoding="iso-8859-1"?>
<!-- Generator: Adobe Illustrator 19.0.0, SVG Export Plug-In . SVG Version: 6.00 Build 0)  -->
<svg version="1.1" id="Layer_1" xmlns="http://www.w3.org/2000/svg" xmlns:xlink="http://www.w3.org/1999/xlink" x="0px" y="0px"
	 viewBox="0 0 392.709 392.709" style="enable-background:new 0 0 392.709 392.709;" xml:space="preserve">
<rect x="88.501" y="287.861" style="fill:#FFC10D;" width="27.345" height="82.747"/>
<rect x="201.568" y="247.005" style="fill:#56ACE0;" width="27.345" height="123.669"/>
<rect x="314.634" y="192.896" style="fill:#FFC10D;" width="27.345" height="177.713"/>
<g>
	<path style="fill:#194F82;" d="M99.103,137.946c-9.18,0-16.679-7.499-16.679-16.679c0-6.012-4.848-10.925-10.925-10.925
		s-10.925,4.848-10.925,10.925c0,17.455,11.636,32.129,27.604,36.913v7.434c0,6.012,4.848,10.925,10.925,10.925
		c6.077,0,10.925-4.848,10.925-10.925v-7.37c15.903-4.719,27.604-19.459,27.604-36.913c0-21.269-17.261-38.465-38.465-38.465
		c0.323-0.065,0,0-0.065,0c-8.469-0.776-16.614-7.822-16.614-16.549c0-9.18,7.499-16.679,16.679-16.679s16.679,7.499,16.679,16.679
		c0,6.012,4.848,10.925,10.925,10.925s10.925-4.848,10.925-10.925c0-17.455-11.636-32.129-27.604-36.913v-7.564
		c0-6.012-4.848-10.925-10.925-10.925c-6.077,0-10.925,4.848-10.925,10.925v7.499c-15.968,4.784-27.604,19.523-27.604,36.913
		c0,21.269,17.261,38.465,38.465,38.465c-0.323,0.065,0,0,0.065,0c8.469,0.776,16.614,7.822,16.614,16.549
		C115.846,130.447,108.347,137.946,99.103,137.946z"/>
	<path style="fill:#194F82;" d="M381.673,370.868H363.83V182.164c0-6.012-4.849-10.925-10.925-10.925h-49.131
		c-6.012,0-10.925,4.848-10.925,10.925v188.703h-42.214V236.274c0-6.012-4.848-10.925-10.925-10.925h-49.131
		c-6.012,0-10.925,4.848-10.925,10.925v134.529h-42.214V277.13c0-6.012-4.848-10.925-10.925-10.925H77.382
		c-6.012,0-10.925,4.848-10.925,10.925v93.673H21.786v-94.836l66.327-60.186h55.337c3.814,0,7.37-2.004,9.374-5.236l30.707-50.877
		l57.018,7.822c3.879,0.517,7.822-1.099,10.214-4.267l61.673-82.23l73.115-26.958c5.624-2.069,8.598-8.339,6.465-13.964
		c-2.069-5.624-8.339-8.469-13.964-6.465l-76.089,28.057c-2.004,0.711-3.685,2.004-4.913,3.685l-59.798,79.644l-57.794-7.952
		c-4.331-0.646-8.598,1.487-10.796,5.172l-31.16,51.782H84.105c-2.715,0-5.301,1.034-7.37,2.844L21.98,246.552V10.981
		c0-6.012-4.848-10.925-10.925-10.925S0,4.969,0,10.981v370.747c0,6.012,4.848,10.925,10.925,10.925h370.747
		c6.012,0,10.925-4.848,10.925-10.925C392.533,375.716,387.685,370.868,381.673,370.868z M115.846,370.868H88.501v-82.812h27.345
		V370.868z M228.848,370.868h-27.345V247.263h27.345V370.868z M341.98,370.868h-27.345V193.154h27.345V370.868z"/>
</g>
<g>
</g>
<g>
</g>
<g>
</g>
<g>
</g>
<g>
</g>
<g>
</g>
<g>
</g>
<g>
</g>
<g>
</g>
<g>
</g>
<g>
</g>
<g>
</g>
<g>
</g>
<g>
</g>
<g>
</g>
</svg>
