<?xml version="1.0" encoding="UTF-8" standalone="no"?>
<svg
   xmlns:dc="http://purl.org/dc/elements/1.1/"
   xmlns:cc="http://creativecommons.org/ns#"
   xmlns:rdf="http://www.w3.org/1999/02/22-rdf-syntax-ns#"
   xmlns:svg="http://www.w3.org/2000/svg"
   xmlns="http://www.w3.org/2000/svg"
   xmlns:sodipodi="http://sodipodi.sourceforge.net/DTD/sodipodi-0.dtd"
   xmlns:inkscape="http://www.inkscape.org/namespaces/inkscape"
   version="1.1"
   id="Capa_1"
   x="0px"
   y="0px"
   viewBox="0 0 24 24"
   xml:space="preserve"
   sodipodi:docname="CATEGORY.svg"
   inkscape:version="1.0.2-2 (e86c870879, 2021-01-15)"
   width="24"
   height="24"><metadata
   id="metadata937"><rdf:RDF><cc:Work
       rdf:about=""><dc:format>image/svg+xml</dc:format><dc:type
         rdf:resource="http://purl.org/dc/dcmitype/StillImage" /><dc:title></dc:title></cc:Work></rdf:RDF></metadata><defs
   id="defs935">
	
	</defs><sodipodi:namedview
   pagecolor="#ffffff"
   bordercolor="#666666"
   borderopacity="1"
   objecttolerance="10"
   gridtolerance="10"
   guidetolerance="10"
   inkscape:pageopacity="0"
   inkscape:pageshadow="2"
   inkscape:window-width="2199"
   inkscape:window-height="1300"
   id="namedview933"
   showgrid="true"
   inkscape:zoom="34.319066"
   inkscape:cx="11.473788"
   inkscape:cy="4.3982625"
   inkscape:window-x="176"
   inkscape:window-y="43"
   inkscape:window-maximized="0"
   inkscape:current-layer="Capa_1"
   inkscape:document-rotation="0"><inkscape:grid
     type="xygrid"
     id="grid6396" /></sodipodi:namedview>
<g
   id="g888"
   transform="matrix(0.04298736,0,0,0.04298736,1.0036742,1.0036722)">
		<path
   style="fill:#ffc10d;fill-opacity:1"
   d="M 480,0 H 309.258 C 298.57,0 288.524,4.16 280.969,11.715 L 9.375,283.313 C 3.328,289.355 0,297.395 0,305.941 c 0,8.546 3.328,16.582 9.375,22.625 L 183.43,502.625 c 6.047,6.047 14.078,9.375 22.633,9.375 8.547,0 16.578,-3.328 22.625,-9.375 L 500.282,231.027 c 7.555,-7.555 11.719,-17.602 11.719,-28.281 V 32 C 512,14.355 497.648,0 480,0 Z m -68,128 c -15.464,0 -28,-12.536 -28,-28 0,-15.464 12.536,-28 28,-28 15.464,0 28,12.536 28,28 0,15.464 -12.536,28 -28,28 z"
   id="path886" />
</g>
<g
   style="fill:#194f82;fill-opacity:1"
   transform="matrix(0.04298736,0,0,0.04298736,1.0036742,1.0036722)">
<path
   style="fill:#194f82;fill-opacity:1"
   d="M 480,0 H 309.258 C 298.57,0 288.524,4.16 280.969,11.715 L 9.375,283.313 C 3.328,289.355 0,297.395 0,305.941 c 0,8.546 3.328,16.582 9.375,22.625 L 183.43,502.625 c 6.047,6.047 14.078,9.375 22.633,9.375 8.547,0 16.578,-3.328 22.625,-9.375 L 500.282,231.027 c 7.555,-7.555 11.719,-17.602 11.719,-28.281 V 32 C 512,14.355 497.648,0 480,0 Z M 472,202.745 206.059,468.687 43.314,305.941 309.255,40 H 472 Z"
   id="path890" />
</g>
<g
   transform="matrix(0.04298736,0,0,0.04298736,1.0036742,1.0036722)">
<path
   style="fill:#56ace0;fill-opacity:1"
   d="m 206.063,476.688 c -2.047,0 -4.094,-0.781 -5.656,-2.344 l -3.648,-3.648 c -3.125,-3.125 -3.125,-8.188 0,-11.313 2.414,-2.414 5.992,-2.969 8.938,-1.641 l 2.375,-2.375 c 3.125,-3.125 8.188,-3.125 11.313,0 3.125,3.125 3.125,8.188 0,11.313 l -7.664,7.664 c -1.565,1.562 -3.612,2.344 -5.658,2.344 z m -26.274,-26.274 c -2.047,0 -4.094,-0.781 -5.656,-2.344 L 162.82,436.754 c -3.125,-3.125 -3.125,-8.191 0,-11.313 3.125,-3.125 8.188,-3.125 11.313,0 l 11.313,11.316 c 3.125,3.125 3.125,8.191 0,11.313 -1.563,1.563 -3.61,2.344 -5.657,2.344 z m 56.57,-4.019 c -2.047,0 -4.094,-0.781 -5.656,-2.344 -3.125,-3.125 -3.125,-8.188 0,-11.313 l 11.313,-11.313 c 3.125,-3.125 8.188,-3.125 11.313,0 3.125,3.125 3.125,8.188 0,11.313 l -11.313,11.313 c -1.563,1.562 -3.61,2.344 -5.657,2.344 z m -90.515,-29.922 c -2.047,0 -4.094,-0.781 -5.656,-2.344 l -11.313,-11.313 c -3.125,-3.125 -3.125,-8.188 0,-11.313 3.125,-3.125 8.188,-3.125 11.313,0 l 11.312,11.313 c 3.125,3.125 3.125,8.188 0,11.313 -1.562,1.562 -3.609,2.344 -5.656,2.344 z m 124.453,-4.02 c -2.047,0 -4.094,-0.781 -5.656,-2.344 -3.125,-3.125 -3.125,-8.188 0,-11.313 l 11.313,-11.313 c 3.125,-3.125 8.188,-3.125 11.313,0 3.125,3.125 3.125,8.188 0,11.313 l -11.313,11.313 c -1.563,1.563 -3.61,2.344 -5.657,2.344 z M 111.906,382.531 c -2.047,0 -4.094,-0.781 -5.656,-2.344 L 94.937,368.874 c -3.125,-3.125 -3.125,-8.188 0,-11.313 3.125,-3.125 8.188,-3.125 11.313,0 l 11.313,11.313 c 3.125,3.125 3.125,8.188 0,11.313 -1.563,1.563 -3.61,2.344 -5.657,2.344 z m 192.328,-4.019 c -2.047,0 -4.094,-0.781 -5.656,-2.344 -3.125,-3.125 -3.125,-8.191 0,-11.316 l 11.32,-11.313 c 3.125,-3.117 8.188,-3.121 11.313,0.004 3.125,3.125 3.125,8.191 0,11.316 l -11.32,11.313 c -1.563,1.558 -3.61,2.34 -5.657,2.34 z M 77.961,348.59 c -2.047,0 -4.094,-0.781 -5.656,-2.344 L 60.992,334.933 c -3.125,-3.125 -3.125,-8.188 0,-11.313 3.125,-3.125 8.188,-3.125 11.313,0 l 11.313,11.313 c 3.125,3.125 3.125,8.188 0,11.313 -1.563,1.563 -3.61,2.344 -5.657,2.344 z m 260.219,-4.02 c -2.047,0 -4.094,-0.781 -5.656,-2.344 -3.125,-3.125 -3.125,-8.188 0,-11.313 L 343.837,319.6 c 3.125,-3.125 8.188,-3.125 11.313,0 3.125,3.125 3.125,8.188 0,11.313 l -11.313,11.313 c -1.564,1.563 -3.61,2.344 -5.657,2.344 z M 44.023,314.648 c -2.039,0 -4.078,-0.773 -5.641,-2.328 l -0.711,-0.707 c -1.508,-1.5 -2.359,-3.535 -2.359,-5.66 0,-2.125 0.836,-4.164 2.344,-5.668 L 48.258,289.68 c 3.125,-3.125 8.188,-3.125 11.313,0 3.125,3.121 3.125,8.188 0,11.313 l -7.852,7.859 c -0.359,1.258 -1.031,2.445 -2.023,3.438 -1.563,1.573 -3.618,2.358 -5.673,2.358 z m 328.094,-4.019 c -2.047,0 -4.094,-0.781 -5.656,-2.344 -3.125,-3.125 -3.125,-8.188 0,-11.313 l 11.313,-11.313 c 3.125,-3.125 8.188,-3.125 11.313,0 3.125,3.125 3.125,8.188 0,11.313 l -11.313,11.313 c -1.563,1.563 -3.61,2.344 -5.657,2.344 z M 76.547,280.707 c -2.047,0 -4.094,-0.781 -5.656,-2.344 -3.125,-3.125 -3.125,-8.188 0,-11.313 l 11.313,-11.313 c 3.125,-3.125 8.188,-3.125 11.313,0 3.125,3.125 3.125,8.188 0,11.313 l -11.313,11.313 c -1.563,1.563 -3.61,2.344 -5.657,2.344 z m 329.516,-4.019 c -2.047,0 -4.094,-0.781 -5.656,-2.344 -3.125,-3.125 -3.125,-8.188 0,-11.313 l 11.313,-11.313 c 3.125,-3.125 8.188,-3.125 11.313,0 3.125,3.125 3.125,8.188 0,11.313 l -11.313,11.313 c -1.564,1.562 -3.611,2.344 -5.657,2.344 z M 110.484,246.77 c -2.047,0 -4.094,-0.781 -5.656,-2.344 -3.125,-3.121 -3.125,-8.188 0,-11.313 l 11.313,-11.316 c 3.125,-3.125 8.188,-3.125 11.313,0 3.125,3.121 3.125,8.188 0,11.313 l -11.313,11.316 c -1.563,1.562 -3.61,2.344 -5.657,2.344 z M 440,242.746 c -2.047,0 -4.094,-0.781 -5.656,-2.344 -3.125,-3.125 -3.125,-8.188 0,-11.313 l 11.313,-11.313 c 3.125,-3.125 8.188,-3.125 11.313,0 3.125,3.125 3.125,8.188 0,11.313 l -11.313,11.313 c -1.563,1.563 -3.61,2.344 -5.657,2.344 z M 144.43,212.828 c -2.047,0 -4.094,-0.781 -5.656,-2.344 -3.125,-3.121 -3.125,-8.188 0,-11.313 l 11.313,-11.316 c 3.125,-3.125 8.188,-3.125 11.313,0 3.125,3.121 3.125,8.188 0,11.313 l -11.313,11.316 c -1.564,1.563 -3.61,2.344 -5.657,2.344 z M 472,208 c -4.422,0 -8,-3.582 -8,-8 v -16 c 0,-4.418 3.578,-8 8,-8 4.422,0 8,3.582 8,8 v 16 c 0,4.418 -3.578,8 -8,8 z M 178.367,178.887 c -2.047,0 -4.094,-0.781 -5.656,-2.344 -3.125,-3.125 -3.125,-8.188 0,-11.313 l 11.313,-11.313 c 3.125,-3.125 8.188,-3.125 11.313,0 3.125,3.125 3.125,8.188 0,11.313 l -11.313,11.313 c -1.563,1.562 -3.61,2.344 -5.657,2.344 z M 472,160 c -4.422,0 -8,-3.582 -8,-8 v -16 c 0,-4.418 3.578,-8 8,-8 4.422,0 8,3.582 8,8 v 16 c 0,4.418 -3.578,8 -8,8 z M 212.313,144.945 c -2.047,0 -4.094,-0.781 -5.656,-2.344 -3.125,-3.125 -3.125,-8.188 0,-11.313 l 11.313,-11.313 c 3.125,-3.125 8.188,-3.125 11.313,0 3.125,3.125 3.125,8.188 0,11.313 l -11.313,11.313 c -1.564,1.563 -3.611,2.344 -5.657,2.344 z M 472,112 c -4.422,0 -8,-3.582 -8,-8 V 88 c 0,-4.418 3.578,-8 8,-8 4.422,0 8,3.582 8,8 v 16 c 0,4.418 -3.578,8 -8,8 z m -225.75,-0.996 c -2.047,0 -4.094,-0.781 -5.656,-2.344 -3.125,-3.125 -3.125,-8.188 0,-11.313 l 11.313,-11.313 c 3.125,-3.125 8.188,-3.125 11.313,0 3.125,3.125 3.125,8.188 0,11.313 l -11.313,11.313 c -1.563,1.563 -3.61,2.344 -5.657,2.344 z m 33.945,-33.941 c -2.047,0 -4.094,-0.781 -5.656,-2.344 -3.125,-3.125 -3.125,-8.188 0,-11.313 l 11.313,-11.313 c 3.125,-3.125 8.188,-3.125 11.313,0 3.125,3.125 3.125,8.188 0,11.313 l -11.313,11.313 c -1.563,1.562 -3.61,2.344 -5.657,2.344 z M 472,64 c -4.422,0 -8,-3.582 -8,-8 v -8 h -3.844 c -4.422,0 -8,-3.582 -8,-8 0,-4.418 3.578,-8 8,-8 H 472 c 4.422,0 8,3.582 8,8 v 16 c 0,4.418 -3.578,8 -8,8 z M 428.156,48 h -16 c -4.422,0 -8,-3.582 -8,-8 0,-4.418 3.578,-8 8,-8 h 16 c 4.422,0 8,3.582 8,8 0,4.418 -3.578,8 -8,8 z m -48,0 h -16 c -4.422,0 -8,-3.582 -8,-8 0,-4.418 3.578,-8 8,-8 h 16 c 4.422,0 8,3.582 8,8 0,4.418 -3.578,8 -8,8 z m -48,0 h -16 c -4.422,0 -8,-3.582 -8,-8 0,-4.418 3.578,-8 8,-8 h 16 c 4.422,0 8,3.582 8,8 0,4.418 -3.578,8 -8,8 z"
   id="path894" />
</g>
</svg>
