<?xml version="1.0" encoding="UTF-8" standalone="no"?>
<svg
   xmlns:dc="http://purl.org/dc/elements/1.1/"
   xmlns:cc="http://creativecommons.org/ns#"
   xmlns:rdf="http://www.w3.org/1999/02/22-rdf-syntax-ns#"
   xmlns:svg="http://www.w3.org/2000/svg"
   xmlns="http://www.w3.org/2000/svg"
   xmlns:sodipodi="http://sodipodi.sourceforge.net/DTD/sodipodi-0.dtd"
   xmlns:inkscape="http://www.inkscape.org/namespaces/inkscape"
   version="1.1"
   id="Layer_1"
   x="0px"
   y="0px"
   viewBox="0 0 24.000001 24.000001"
   xml:space="preserve"
   sodipodi:docname="CURRATES2.svg"
   width="24"
   height="24"
   inkscape:version="1.0.2-2 (e86c870879, 2021-01-15)"><metadata
   id="metadata5701"><rdf:RDF><cc:Work
       rdf:about=""><dc:format>image/svg+xml</dc:format><dc:type
         rdf:resource="http://purl.org/dc/dcmitype/StillImage" /><dc:title></dc:title></cc:Work></rdf:RDF></metadata><defs
   id="defs5699" /><sodipodi:namedview
   pagecolor="#ffffff"
   bordercolor="#666666"
   borderopacity="1"
   objecttolerance="10"
   gridtolerance="10"
   guidetolerance="10"
   inkscape:pageopacity="0"
   inkscape:pageshadow="2"
   inkscape:window-width="1126"
   inkscape:window-height="758"
   id="namedview5697"
   showgrid="true"
   inkscape:zoom="155.39516"
   inkscape:cx="22.35072"
   inkscape:cy="22.512126"
   inkscape:window-x="0"
   inkscape:window-y="0"
   inkscape:window-maximized="0"
   inkscape:current-layer="Layer_1"><inkscape:grid
     type="xygrid"
     id="grid6264" /></sodipodi:namedview>
<g
   id="g5656"
   transform="matrix(0.05600624,0,0,0.05600624,1.0175587,1.0175621)">
	<path
   style="fill:#ffffff"
   d="m 245.98,102.659 c 3.426,16.226 5.495,33.745 6.077,52.234 h 57.277 c -1.745,-23.079 -8.986,-44.671 -20.299,-63.418 -14.869,4.654 -29.221,8.339 -43.055,11.184 z"
   id="path5630" />
	<path
   style="fill:#ffffff"
   d="m 176.743,205.317 c 7.822,-11.055 17.455,-20.687 28.574,-28.574 h -28.574 z"
   id="path5632" />
	<path
   style="fill:#ffffff"
   d="m 216.824,31.289 c 9.632,13.317 17.713,30.448 23.661,50.23 11.378,-2.327 23.014,-5.107 34.974,-8.663 -15.516,-18.424 -35.685,-32.84 -58.635,-41.567 z"
   id="path5634" />
	<path
   style="fill:#ffffff"
   d="M 176.743,24.178 V 89.083 C 190.189,88.63 204.347,87.402 219.151,85.204 208.873,52.751 193.034,31.03 176.743,24.178 Z"
   id="path5636" />
	<path
   style="fill:#ffffff"
   d="m 154.828,176.808 h -53.527 c 0.646,17.519 2.521,33.745 5.624,48.356 15.903,-2.457 31.935,-3.943 47.903,-4.461 z"
   id="path5638" />
	<path
   style="fill:#ffffff"
   d="m 176.743,154.893 h 53.527 c -0.646,-17.455 -2.521,-33.681 -5.56,-48.291 -16.873,2.651 -32.84,4.008 -47.903,4.655 v 43.636 z"
   id="path5640" />
	<path
   style="fill:#ffffff"
   d="m 114.748,300.412 c -9.632,-13.382 -17.713,-30.448 -23.725,-50.295 -11.636,2.392 -23.337,5.301 -34.974,8.727 15.644,18.489 35.749,32.841 58.699,41.568 z"
   id="path5642" />
	<path
   style="fill:#ffffff"
   d="M 22.238,154.893 H 79.58 C 80.226,136.857 82.231,119.79 85.463,103.887 65.293,99.814 50.554,94.901 42.344,91.927 31.03,110.61 23.919,132.073 22.238,154.893 Z"
   id="path5644" />
	<path
   style="fill:#ffffff"
   d="M 85.592,228.913 C 82.166,212.687 80.097,195.168 79.515,176.679 H 22.238 c 1.745,23.079 8.986,44.671 20.299,63.418 14.352,-4.331 28.703,-8.145 43.055,-11.184 z"
   id="path5646" />
	<path
   style="fill:#ffffff"
   d="m 112.162,86.044 c 12.735,1.681 27.152,2.844 42.667,3.168 V 24.178 c -16.421,6.852 -32.453,28.961 -42.667,61.866 z"
   id="path5648" />
	<path
   style="fill:#ffffff"
   d="m 154.828,111.386 c -17.713,-0.323 -33.875,-1.681 -48.162,-3.814 -2.909,14.352 -4.784,30.19 -5.43,47.321 h 53.527 v -43.507 z"
   id="path5650" />
	<path
   style="fill:#ffffff"
   d="m 154.828,307.523 v -65.034 c -14.158,0.517 -28.251,1.875 -42.408,3.943 10.214,32.453 26.053,54.239 42.408,61.091 z"
   id="path5652" />
	<path
   style="fill:#ffffff"
   d="m 55.531,73.374 c 8.016,2.651 19.911,6.077 35.232,9.115 C 96.775,62.255 104.921,44.8 114.747,31.289 91.539,40.081 71.24,54.756 55.531,73.374 Z"
   id="path5654" />
</g>
<path
   style="fill:#56ace0;stroke-width:0.0560062"
   d="m 17.143715,10.29354 -0.626372,0.626374 c -0.05791,-0.0036 -0.112246,-0.0036 -0.170147,-0.0036 -2.994262,0 -5.43451,2.436664 -5.43451,5.43451 0,0.05791 0,0.112245 0.0036,0.170146 l -0.611866,0.611868 c -3.7726923,0 -6.8429546,-3.070263 -6.8429546,-6.842957 0,-3.7726921 3.0666219,-6.8428421 6.8428986,-6.8428421 3.769054,0.00723 6.839314,3.0739026 6.839314,6.8465391 z"
   id="path5658" />
<path
   style="fill:#194f82;stroke-width:0.0560062"
   d="m 19.547841,10.514429 c 0.02538,-0.06519 0.03982,-0.137608 0.03982,-0.213608 0,-5.1195868 -4.167313,-9.2832589 -9.286843,-9.2832589 -5.1195316,0 -9.2832597,4.1673125 -9.2832597,9.2868429 0,5.119531 4.1636721,9.283259 9.2832597,9.283259 0.07241,0 0.148472,-0.01809 0.213607,-0.03982 1.13323,2.056493 3.32369,3.454073 5.83277,3.454073 3.671321,0.0036 6.654662,-2.983396 6.654662,-6.651077 0,-2.512721 -1.397525,-4.69954 -3.454016,-5.836411 z M 7.4441632,2.7699414 C 6.8938459,3.5266417 6.4412594,4.5042308 6.1009094,5.637461 5.2500627,5.4673142 4.5766435,5.2753807 4.1276975,5.1269642 5.0074435,4.08424 6.1443143,3.2623483 7.4441632,2.7699414 Z M 3.3854467,6.1660481 C 3.845258,6.3361949 4.6707341,6.6077692 5.80038,6.8358826 5.6193679,7.7229096 5.5071313,8.6824084 5.4708952,9.6925371 H 2.2630256 C 2.3571724,8.4144746 2.7554325,7.2124126 3.3854467,6.1660481 Z m 0.01809,8.3056709 C 2.7662978,13.421769 2.3608126,12.208842 2.266666,10.919914 H 5.47812 c 0.03618,1.0355 0.152057,2.016672 0.3403501,2.92543 -0.8110266,0.162978 -1.6147721,0.376585 -2.4149334,0.626375 z m 0.7566999,1.042723 C 4.8083412,15.322566 5.4636702,15.159644 6.1189993,15.025676 6.4557089,16.137175 6.9082952,17.100259 7.4477474,17.84251 6.1588198,17.353743 5.0328145,16.549943 4.1602366,15.514442 Z M 9.6888928,18.24077 C 8.7728553,17.8606 7.8858285,16.640447 7.3137807,14.819293 8.1067171,14.703416 8.896013,14.627414 9.6888935,14.59846 Z m 0,-4.869687 C 8.7945857,13.407259 7.8966937,13.486966 7.0060263,13.620927 6.832239,12.799036 6.723643,11.890278 6.6910473,10.912689 h 2.9978462 z m 0,-3.6785459 H 6.6910473 C 6.7200026,8.7366785 6.8286546,7.8496517 6.9951612,7.0422657 7.7953224,7.1545022 8.7004393,7.2377835 9.6925339,7.2558735 v 2.4366636 z m 0,-3.678546 C 8.8163162,5.995901 8.0125706,5.9307097 7.299275,5.8365633 7.8713229,3.9936778 8.76199,2.7554358 9.6888935,2.3716251 Z m 7.5127902,0.126742 c 0.637238,1.0499491 1.042724,2.2628764 1.13687,3.551804 H 15.130684 C 15.094504,8.6570377 14.978627,7.6758643 14.790334,6.767107 15.568764,6.6077692 16.372567,6.4013862 17.201683,6.1407331 Z M 16.448567,5.0980089 c -0.669834,0.1991582 -1.325163,0.3547996 -1.958762,0.4851822 -0.33671,-1.1079155 -0.789296,-2.0673584 -1.325164,-2.8131937 1.28176,0.4887106 2.411348,1.2960964 3.283926,2.3280115 z M 10.91627,2.371681 c 0.916038,0.3801703 1.803065,1.6003224 2.375113,3.417837 -0.832758,0.1194616 -1.622053,0.1846525 -2.375113,0.2172481 z m 0,4.8769678 c 0.843622,-0.028955 1.745156,-0.1122363 2.682867,-0.2607092 0.170146,0.8182512 0.282384,1.7270085 0.311396,2.7045975 H 10.912686 V 7.2486488 Z m 0,3.6712652 h 1.600322 c -0.619149,0.438081 -1.1586,0.977588 -1.600322,1.600322 z m 5.430926,10.865436 c -2.994262,0 -5.43451,-2.436664 -5.43451,-5.434511 0,-2.997846 2.440303,-5.430925 5.43451,-5.430925 2.994205,0 5.43451,2.436664 5.43451,5.434509 0,2.997848 -2.436664,5.430927 -5.43451,5.430927 z"
   id="path5660" />
<path
   style="fill:#ffc10d;stroke-width:0.0560062"
   d="m 16.347196,10.919914 c -2.994262,0 -5.43451,2.436664 -5.43451,5.434509 0,2.997848 2.440303,5.430927 5.43451,5.430927 2.994205,0 5.43451,-2.436664 5.43451,-5.434511 0,-2.997846 -2.436664,-5.430925 -5.43451,-5.430925 z"
   id="path5662" />
<path
   style="fill:#194f82;stroke-width:0.0560062"
   d="m 16.347196,13.689703 c 0.568463,0 1.028273,0.463452 1.028273,1.028274 0,0.33671 0.271519,0.611869 0.611869,0.611869 0.33671,0 0.611869,-0.271519 0.611869,-0.611869 0,-1.028274 -0.69515,-1.897211 -1.640144,-2.165145 v -0.470676 c 0,-0.33671 -0.271516,-0.611869 -0.611867,-0.611869 -0.33671,0 -0.611869,0.271519 -0.611869,0.611869 v 0.470676 c -0.944993,0.267934 -1.640142,1.13323 -1.640142,2.165145 0,1.241883 1.09341,2.244787 2.335292,2.244787 -0.01809,0.0036 0,0 0.0036,0 0.525003,0.04704 0.937715,0.488767 0.937715,1.024635 0,0.568462 -0.463453,1.028273 -1.028276,1.028273 -0.564823,0 -1.028275,-0.46345 -1.028275,-1.028273 0,-0.33671 -0.271518,-0.611868 -0.611867,-0.611868 -0.33671,0 -0.61187,0.271516 -0.61187,0.611868 0,1.028273 0.69515,1.89721 1.640143,2.165144 v 0.467037 c 0,0.336709 0.271518,0.611868 0.611869,0.611868 0.336709,0 0.611869,-0.271518 0.611869,-0.611868 v -0.470677 c 0.944993,-0.267935 1.640142,-1.133231 1.640142,-2.165147 0,-1.241881 -1.010128,-2.252009 -2.252011,-2.252009 0.01809,-0.0036 0,0 -0.0036,0 -0.528587,-0.04704 -1.024634,-0.481542 -1.024634,-1.01741 5.6e-5,-0.564822 0.463508,-1.024634 1.031914,-1.024634 z"
   id="path5664" />
<g
   id="g5666"
   transform="matrix(0.05600624,0,0,0.05600624,1.0175587,1.0175621)">
</g>
<g
   id="g5668"
   transform="matrix(0.05600624,0,0,0.05600624,1.0175587,1.0175621)">
</g>
<g
   id="g5670"
   transform="matrix(0.05600624,0,0,0.05600624,1.0175587,1.0175621)">
</g>
<g
   id="g5672"
   transform="matrix(0.05600624,0,0,0.05600624,1.0175587,1.0175621)">
</g>
<g
   id="g5674"
   transform="matrix(0.05600624,0,0,0.05600624,1.0175587,1.0175621)">
</g>
<g
   id="g5676"
   transform="matrix(0.05600624,0,0,0.05600624,1.0175587,1.0175621)">
</g>
<g
   id="g5678"
   transform="matrix(0.05600624,0,0,0.05600624,1.0175587,1.0175621)">
</g>
<g
   id="g5680"
   transform="matrix(0.05600624,0,0,0.05600624,1.0175587,1.0175621)">
</g>
<g
   id="g5682"
   transform="matrix(0.05600624,0,0,0.05600624,1.0175587,1.0175621)">
</g>
<g
   id="g5684"
   transform="matrix(0.05600624,0,0,0.05600624,1.0175587,1.0175621)">
</g>
<g
   id="g5686"
   transform="matrix(0.05600624,0,0,0.05600624,1.0175587,1.0175621)">
</g>
<g
   id="g5688"
   transform="matrix(0.05600624,0,0,0.05600624,1.0175587,1.0175621)">
</g>
<g
   id="g5690"
   transform="matrix(0.05600624,0,0,0.05600624,1.0175587,1.0175621)">
</g>
<g
   id="g5692"
   transform="matrix(0.05600624,0,0,0.05600624,1.0175587,1.0175621)">
</g>
<g
   id="g5694"
   transform="matrix(0.05600624,0,0,0.05600624,1.0175587,1.0175621)">
</g>
</svg>
