<?xml version="1.0" encoding="iso-8859-1"?>
<!-- Generator: Adobe Illustrator 19.0.0, SVG Export Plug-In . SVG Version: 6.00 Build 0)  -->
<svg version="1.1" id="Layer_1" xmlns="http://www.w3.org/2000/svg" xmlns:xlink="http://www.w3.org/1999/xlink" x="0px" y="0px"
	 viewBox="0 0 392.533 392.533" style="enable-background:new 0 0 392.533 392.533;" xml:space="preserve">
<path style="fill:#FFFFFF;" d="M370.747,196.267c0-96.194-78.287-174.481-174.481-174.481c-96.194,0-174.481,78.287-174.481,174.481
	s78.287,174.481,174.481,174.481S370.747,292.461,370.747,196.267z"/>
<path style="fill:#FFC10D;" d="M324.137,196.267c0-70.529-57.406-127.871-127.871-127.871c-53.398,0-99.232,32.905-118.368,79.451
	h41.115c6.012,0,10.925,4.848,10.925,10.925c0,6.012-4.848,10.925-10.925,10.925H71.176c-1.616,7.758-2.521,15.774-2.715,23.984
	h29.931c6.012,0,10.925,4.848,10.925,10.925c0,6.077-4.848,10.925-10.925,10.925H69.818c9.244,61.479,62.448,108.8,126.513,108.8
	C266.796,324.137,324.137,266.796,324.137,196.267z"/>
<g>
	<path style="fill:#194F82;" d="M196.267,0C87.984,0,0,87.984,0,196.267s87.984,196.267,196.267,196.267
		s196.267-87.984,196.267-196.267S304.549,0,196.267,0z M21.786,196.267c0-96.194,78.287-174.481,174.481-174.481
		s174.481,78.287,174.481,174.481s-78.287,174.481-174.481,174.481S21.786,292.461,21.786,196.267z"/>
	<path style="fill:#194F82;" d="M196.267,46.481c-82.554,0-149.786,67.232-149.786,149.786s67.232,149.786,149.786,149.786
		s149.786-67.232,149.786-149.786S278.82,46.481,196.267,46.481z M69.754,215.337h28.509c6.012,0,10.925-4.848,10.925-10.925
		s-4.848-10.925-10.925-10.925H68.461c0.129-8.21,1.099-16.226,2.715-23.984h47.838c6.012,0,10.925-4.848,10.925-10.925
		c0-6.012-4.848-10.925-10.925-10.925H77.964c19.071-46.61,64.905-79.451,118.303-79.451c70.529,0,127.871,57.406,127.871,127.871
		s-57.341,128.065-127.871,128.065C132.202,324.137,79.063,276.881,69.754,215.337z"/>
	<path style="fill:#194F82;" d="M196.267,134.4c13.834,0,25.083,11.313,25.083,25.083c0,6.012,4.848,10.925,10.925,10.925
		c6.012,0,10.925-4.848,10.925-10.925c0-22.109-15.386-40.663-36.008-45.576v-3.103c0-6.012-4.848-10.925-10.925-10.925
		s-10.925,4.848-10.925,10.925v3.103c-20.622,4.913-36.008,23.467-36.008,45.576c0,27.798,22.949,47.968,46.933,46.933l0,0
		c13.834,0,25.083,11.313,25.083,25.083c0,13.77-11.313,25.083-25.083,25.083s-25.083-11.313-25.083-25.083
		c0-6.012-4.848-10.925-10.925-10.925c-6.012,0-10.925,4.848-10.925,10.925c0,22.109,15.386,40.663,36.008,45.576v4.784
		c0,6.012,4.848,10.925,10.925,10.925c6.012,0,10.925-4.848,10.925-10.925v-4.784c20.622-4.978,36.008-23.467,36.008-45.576
		c0-12.541-4.848-24.372-13.77-33.164c-8.921-8.857-20.622-13.705-33.164-13.705l0,0c-13.834,0-25.083-11.313-25.083-25.083
		C171.184,145.778,182.432,134.4,196.267,134.4z"/>
</g>
<g>
</g>
<g>
</g>
<g>
</g>
<g>
</g>
<g>
</g>
<g>
</g>
<g>
</g>
<g>
</g>
<g>
</g>
<g>
</g>
<g>
</g>
<g>
</g>
<g>
</g>
<g>
</g>
<g>
</g>
</svg>
