<?xml version="1.0" encoding="iso-8859-1"?>
<!-- Generator: Adobe Illustrator 19.0.0, SVG Export Plug-In . SVG Version: 6.00 Build 0)  -->
<svg version="1.1" id="Layer_1" xmlns="http://www.w3.org/2000/svg" xmlns:xlink="http://www.w3.org/1999/xlink" x="0px" y="0px"
	 viewBox="0 0 392.533 392.533" style="enable-background:new 0 0 392.533 392.533;" xml:space="preserve">
<path style="fill:#FFFFFF;" d="M95.03,224.194c-40.339,0-73.244,32.84-73.244,73.244c0,40.339,32.84,73.244,73.244,73.244
	c40.339,0,73.244-32.84,73.244-73.244C168.21,257.034,135.37,224.194,95.03,224.194z"/>
<path style="fill:#FFC10D;" d="M297.503,224.194c-40.339,0-73.244,32.84-73.244,73.244c0,40.339,32.84,73.244,73.244,73.244
	c40.339,0,73.244-32.84,73.244-73.244S337.907,224.194,297.503,224.194z"/>
<path style="fill:#56ACE0;" d="M196.267,21.657c-40.339,0-73.244,32.84-73.244,73.244c0,40.339,32.84,73.244,73.244,73.244
	s73.244-32.84,73.244-73.244S236.606,21.657,196.267,21.657z"/>
<g>
	<path style="fill:#194F82;" d="M202.279,121.083h-30.513c-6.012,0-10.925,4.848-10.925,10.925c0,6.012,4.848,10.925,10.925,10.925
		h18.23v3.168c0,6.012,4.848,10.925,10.925,10.925c6.012,0,10.925-4.848,10.925-10.925v-4.848
		c11.507-3.943,19.846-14.804,19.846-27.669c0-16.226-13.188-29.349-29.349-29.349h-12.024c-4.202,0-7.564-3.426-7.564-7.564
		c0-4.202,3.426-7.564,7.564-7.564h30.513c6.012,0,10.925-4.848,10.925-10.925c0-6.012-4.848-10.99-10.925-10.99h-9.051v-3.103
		c0-6.012-4.848-10.925-10.925-10.925s-10.925,4.848-10.925,10.925v3.103c-16.097,0.129-29.156,13.317-29.156,29.349
		c0,16.226,13.188,29.349,29.35,29.349h12.024c4.202,0,7.564,3.426,7.564,7.564C209.842,117.592,206.481,121.083,202.279,121.083z"
		/>
	<path style="fill:#194F82;" d="M345.147,215.402c0-0.711,0.065-1.293,0.065-2.004c0-44.865-19.717-86.303-54.109-114.683
		c0.065-1.228,0.129-2.392,0.129-3.62C291.232,42.602,248.566,0,196.202,0s-95.03,42.667-95.03,95.03
		c0,1.228,0.129,2.392,0.129,3.556c-34.457,28.444-54.109,69.947-54.109,114.747c0,0.711,0.065,1.293,0.065,2.004
		C19.071,231.887,0,262.465,0,297.503c0,52.364,42.667,95.03,95.03,95.03c28.768,0,54.562-12.929,71.952-33.164
		c9.568,1.939,19.394,2.909,29.285,2.909s19.717-1.034,29.285-2.909c17.455,20.234,43.184,33.164,71.952,33.164
		c52.364,0,95.03-42.667,95.03-95.03C392.533,262.465,373.463,231.887,345.147,215.402z M196.267,21.786
		c40.339,0,73.244,32.84,73.244,73.244s-32.84,73.244-73.244,73.244s-73.244-32.84-73.244-73.244S155.927,21.786,196.267,21.786z
		 M95.03,370.747c-40.339,0-73.244-32.84-73.244-73.244s32.84-73.244,73.244-73.244c40.339,0,73.244,32.84,73.244,73.244
		C168.21,337.907,135.37,370.747,95.03,370.747z M180.17,339.394c6.271-12.671,9.891-26.828,9.891-41.891
		c0-52.364-42.667-95.03-95.03-95.03c-8.857,0-17.455,1.293-25.665,3.62c1.745-31.224,14.675-60.057,36.461-82.036
		c12.283,38.271,48.162,66.069,90.44,66.069s78.093-27.733,90.44-66.004c21.786,21.915,34.78,50.877,36.461,81.972
		c-8.21-2.327-16.743-3.62-25.665-3.62c-52.364,0-95.03,42.667-95.03,95.03c0,15.063,3.62,29.285,9.891,41.891
		C201.697,340.752,190.836,340.752,180.17,339.394z M297.503,370.747c-40.339,0-73.244-32.84-73.244-73.244
		s32.84-73.244,73.244-73.244c40.339,0,73.244,32.84,73.244,73.244S337.907,370.747,297.503,370.747z"/>
	<path style="fill:#194F82;" d="M336.808,250.311c-4.719-3.814-11.507-3.103-15.386,1.552l-23.984,29.35l-23.984-29.349
		c-3.814-4.655-10.667-5.301-15.386-1.552c-4.655,3.814-5.301,10.667-1.552,15.386l29.996,36.719v9.503h-8.21
		c-6.012,0-10.925,4.848-10.925,10.925s4.848,10.925,10.925,10.925h8.21v13.511c0,6.012,4.848,10.925,10.925,10.925
		c6.012,0,10.925-4.848,10.925-10.925V333.77h8.145c6.012,0,10.925-4.848,10.925-10.925c0-6.012-4.848-10.925-10.925-10.925h-8.145
		v-9.503l29.931-36.719C342.174,260.913,341.463,254.061,336.808,250.311z"/>
	<path style="fill:#194F82;" d="M107.313,246.626c-25.341,0-37.56,6.659-37.818,43.766h-3.879c-6.012,0-10.925,4.848-10.925,10.925
		c0,6.012,4.978,10.925,10.99,10.925h2.327c-1.552,6.465-4.331,12.929-9.18,16.873c-3.556,2.909-4.978,7.758-3.426,12.154
		c1.552,4.331,5.624,7.24,10.279,7.24h47.386c6.012,0,10.925-4.848,10.925-10.925c0-6.012-4.848-10.925-10.925-10.925H86.368
		c1.939-4.849,3.103-9.762,3.943-14.352h21.851c6.012,0,10.925-4.848,10.925-10.925c0-6.012-4.848-10.925-10.925-10.925H91.345
		c0-21.851,0.517-21.915,15.451-21.915c6.335,0.453,6.594,5.43,6.659,7.046c0.323,6.012,5.236,10.602,11.442,10.343
		c6.012-0.323,10.667-5.43,10.343-11.442C134.206,254.578,118.238,246.949,107.313,246.626z"/>
</g>
<g>
</g>
<g>
</g>
<g>
</g>
<g>
</g>
<g>
</g>
<g>
</g>
<g>
</g>
<g>
</g>
<g>
</g>
<g>
</g>
<g>
</g>
<g>
</g>
<g>
</g>
<g>
</g>
<g>
</g>
</svg>
