<?xml version="1.0" encoding="iso-8859-1"?>
<!-- Generator: Adobe Illustrator 19.0.0, SVG Export Plug-In . SVG Version: 6.00 Build 0)  -->
<svg version="1.1" id="Layer_1" xmlns="http://www.w3.org/2000/svg" xmlns:xlink="http://www.w3.org/1999/xlink" x="0px" y="0px"
	 viewBox="0 0 392.533 392.533" style="enable-background:new 0 0 392.533 392.533;" xml:space="preserve">
<g>
	<path style="fill:#FFFFFF;" d="M245.98,102.659c3.426,16.226,5.495,33.745,6.077,52.234h57.277
		c-1.745-23.079-8.986-44.671-20.299-63.418C274.166,96.129,259.814,99.814,245.98,102.659z"/>
	<path style="fill:#FFFFFF;" d="M176.743,205.317c7.822-11.055,17.455-20.687,28.574-28.574h-28.574V205.317L176.743,205.317z"/>
	<path style="fill:#FFFFFF;" d="M216.824,31.289c9.632,13.317,17.713,30.448,23.661,50.23c11.378-2.327,23.014-5.107,34.974-8.663
		C259.943,54.432,239.774,40.016,216.824,31.289z"/>
	<path style="fill:#FFFFFF;" d="M176.743,24.178v64.905c13.446-0.453,27.604-1.681,42.408-3.879
		C208.873,52.751,193.034,31.03,176.743,24.178z"/>
	<path style="fill:#FFFFFF;" d="M154.828,176.808h-53.527c0.646,17.519,2.521,33.745,5.624,48.356
		c15.903-2.457,31.935-3.943,47.903-4.461V176.808z"/>
	<path style="fill:#FFFFFF;" d="M176.743,154.893h53.527c-0.646-17.455-2.521-33.681-5.56-48.291
		c-16.873,2.651-32.84,4.008-47.903,4.655v43.636L176.743,154.893L176.743,154.893z"/>
	<path style="fill:#FFFFFF;" d="M114.748,300.412c-9.632-13.382-17.713-30.448-23.725-50.295
		c-11.636,2.392-23.337,5.301-34.974,8.727C71.693,277.333,91.798,291.685,114.748,300.412z"/>
	<path style="fill:#FFFFFF;" d="M22.238,154.893H79.58c0.646-18.036,2.651-35.103,5.883-51.006
		c-20.17-4.073-34.909-8.986-43.119-11.96C31.03,110.61,23.919,132.073,22.238,154.893z"/>
	<path style="fill:#FFFFFF;" d="M85.592,228.913c-3.426-16.226-5.495-33.745-6.077-52.234H22.238
		c1.745,23.079,8.986,44.671,20.299,63.418C56.889,235.766,71.24,231.952,85.592,228.913z"/>
	<path style="fill:#FFFFFF;" d="M112.162,86.044c12.735,1.681,27.152,2.844,42.667,3.168V24.178
		C138.408,31.03,122.376,53.139,112.162,86.044z"/>
	<path style="fill:#FFFFFF;" d="M154.828,111.386c-17.713-0.323-33.875-1.681-48.162-3.814c-2.909,14.352-4.784,30.19-5.43,47.321
		h53.527v-43.507H154.828z"/>
	<path style="fill:#FFFFFF;" d="M154.828,307.523v-65.034c-14.158,0.517-28.251,1.875-42.408,3.943
		C122.634,278.885,138.473,300.671,154.828,307.523z"/>
	<path style="fill:#FFFFFF;" d="M55.531,73.374c8.016,2.651,19.911,6.077,35.232,9.115c6.012-20.234,14.158-37.689,23.984-51.2
		C91.539,40.081,71.24,54.756,55.531,73.374z"/>
</g>
<path style="fill:#56ACE0;" d="M287.935,165.624l-11.184,11.184c-1.034-0.065-2.004-0.065-3.038-0.065
	c-53.463,0-97.034,43.507-97.034,97.034c0,1.034,0,2.004,0.065,3.038l-10.925,10.925c-67.362,0-122.182-54.82-122.182-122.182
	S98.392,43.378,165.818,43.378C233.115,43.507,287.935,98.263,287.935,165.624z"/>
<path style="fill:#194F82;" d="M330.861,169.568c0.453-1.164,0.711-2.457,0.711-3.814C331.572,74.343,257.164,0,165.754,0
	S0,74.408,0,165.818s74.343,165.754,165.754,165.754c1.293,0,2.651-0.323,3.814-0.711c20.234,36.719,59.345,61.673,104.145,61.673
	c65.552,0.065,118.82-53.269,118.82-118.756C392.533,228.913,367.58,189.867,330.861,169.568z M114.748,31.289
	c-9.826,13.511-17.907,30.966-23.984,51.2c-15.192-3.038-27.216-6.465-35.232-9.115C71.24,54.756,91.539,40.081,114.748,31.289z
	 M42.279,91.927c8.21,3.038,22.949,7.887,43.119,11.96c-3.232,15.838-5.236,32.97-5.883,51.006H22.238
	C23.919,132.073,31.03,110.61,42.279,91.927z M42.602,240.226c-11.378-18.747-18.618-40.404-20.299-63.418h57.341
	c0.646,18.489,2.715,36.008,6.077,52.234C71.24,231.952,56.889,235.766,42.602,240.226z M56.113,258.844
	c11.572-3.426,23.273-6.335,34.974-8.727c6.012,19.846,14.093,37.042,23.725,50.295C91.798,291.685,71.693,277.333,56.113,258.844z
	 M154.828,307.523c-16.356-6.788-32.194-28.574-42.408-61.091c14.158-2.069,28.251-3.426,42.408-3.943V307.523z M154.828,220.574
	c-15.968,0.646-32,2.069-47.903,4.461c-3.103-14.675-5.042-30.901-5.624-48.356h53.527V220.574z M154.828,154.893h-53.527
	c0.517-17.067,2.457-32.905,5.43-47.321c14.287,2.004,30.448,3.491,48.162,3.814v43.507H154.828z M154.828,89.212
	c-15.58-0.323-29.931-1.487-42.667-3.168c10.214-32.905,26.117-55.014,42.667-61.867V89.212z M288.97,91.475
	c11.378,18.747,18.618,40.404,20.299,63.418h-57.277c-0.646-18.489-2.715-36.008-6.077-52.234
	C259.814,99.814,274.166,96.129,288.97,91.475z M275.523,72.857c-11.96,3.556-23.661,6.335-34.974,8.663
	c-6.012-19.782-14.093-36.913-23.661-50.23C239.774,40.016,259.943,54.432,275.523,72.857z M176.743,24.178
	c16.356,6.788,32.194,28.574,42.408,61.026c-14.869,2.133-28.962,3.297-42.408,3.879V24.178L176.743,24.178z M176.743,111.257
	c15.063-0.517,31.16-2.004,47.903-4.655c3.038,14.61,5.042,30.836,5.56,48.291h-53.527v-43.636L176.743,111.257L176.743,111.257z
	 M176.743,176.808h28.574c-11.055,7.822-20.687,17.455-28.574,28.574V176.808L176.743,176.808z M273.713,370.812
	c-53.463,0-97.034-43.507-97.034-97.034s43.572-96.97,97.034-96.97s97.034,43.507,97.034,97.034S327.24,370.812,273.713,370.812z"/>
<path style="fill:#FFC10D;" d="M273.713,176.808c-53.463,0-97.034,43.507-97.034,97.034s43.572,96.97,97.034,96.97
	s97.034-43.507,97.034-97.034S327.24,176.808,273.713,176.808z"/>
<path style="fill:#194F82;" d="M273.713,226.263c10.15,0,18.36,8.275,18.36,18.36c0,6.012,4.848,10.925,10.925,10.925
	c6.012,0,10.925-4.848,10.925-10.925c0-18.36-12.412-33.875-29.285-38.659v-8.404c0-6.012-4.848-10.925-10.925-10.925
	c-6.012,0-10.925,4.848-10.925,10.925v8.404c-16.873,4.784-29.285,20.234-29.285,38.659c0,22.174,19.523,40.081,41.697,40.081
	c-0.323,0.065,0,0,0.065,0c9.374,0.84,16.743,8.727,16.743,18.295c0,10.15-8.275,18.36-18.36,18.36
	c-10.085,0-18.36-8.275-18.36-18.36c0-6.012-4.848-10.925-10.925-10.925c-6.012,0-10.925,4.848-10.925,10.925
	c0,18.36,12.412,33.875,29.285,38.659v8.339c0,6.012,4.848,10.925,10.925,10.925c6.012,0,10.925-4.848,10.925-10.925v-8.404
	c16.873-4.784,29.285-20.234,29.285-38.659c0-22.174-18.036-40.21-40.21-40.21c0.323-0.065,0,0-0.065,0
	c-9.438-0.84-18.295-8.598-18.295-18.166C255.289,234.473,263.564,226.263,273.713,226.263z"/>
<g>
</g>
<g>
</g>
<g>
</g>
<g>
</g>
<g>
</g>
<g>
</g>
<g>
</g>
<g>
</g>
<g>
</g>
<g>
</g>
<g>
</g>
<g>
</g>
<g>
</g>
<g>
</g>
<g>
</g>
</svg>
