<?xml version="1.0" encoding="UTF-8" standalone="no"?>
<svg
   xmlns:dc="http://purl.org/dc/elements/1.1/"
   xmlns:cc="http://creativecommons.org/ns#"
   xmlns:rdf="http://www.w3.org/1999/02/22-rdf-syntax-ns#"
   xmlns:svg="http://www.w3.org/2000/svg"
   xmlns="http://www.w3.org/2000/svg"
   xmlns:sodipodi="http://sodipodi.sourceforge.net/DTD/sodipodi-0.dtd"
   xmlns:inkscape="http://www.inkscape.org/namespaces/inkscape"
   version="1.1"
   id="Layer_1"
   x="0px"
   y="0px"
   viewBox="0 0 24 24"
   xml:space="preserve"
   sodipodi:docname="NEW_ACC.svg"
   width="24"
   height="24"
   inkscape:version="1.0.2-2 (e86c870879, 2021-01-15)"><metadata
   id="metadata7807"><rdf:RDF><cc:Work
       rdf:about=""><dc:format>image/svg+xml</dc:format><dc:type
         rdf:resource="http://purl.org/dc/dcmitype/StillImage" /><dc:title></dc:title></cc:Work></rdf:RDF></metadata><defs
   id="defs7805" /><sodipodi:namedview
   pagecolor="#ffffff"
   bordercolor="#666666"
   borderopacity="1"
   objecttolerance="10"
   gridtolerance="10"
   guidetolerance="10"
   inkscape:pageopacity="0"
   inkscape:pageshadow="2"
   inkscape:window-width="1582"
   inkscape:window-height="954"
   id="namedview7803"
   showgrid="true"
   inkscape:zoom="17.104471"
   inkscape:cx="13.316012"
   inkscape:cy="20.982148"
   inkscape:window-x="0"
   inkscape:window-y="0"
   inkscape:window-maximized="0"
   inkscape:current-layer="Layer_1"><inkscape:grid
     type="xygrid"
     id="grid8370" /></sodipodi:namedview>
<g
   id="g7800"
   transform="matrix(0.04531679,0,0,0.04531679,1.4990899,0.94322617)">
	<g
   id="g7790">
		<path
   style="fill:#ffc10d"
   d="m 356.57,342.707 c 14.435,0 27.898,4.118 39.32,11.213 V 105.273 L 300.617,10 H 70.783 V 455.916 H 292.35 l 0.188,-0.185 c -6.736,-11.215 -10.615,-24.342 -10.615,-38.377 0,-41.227 33.42,-74.647 74.647,-74.647 z"
   id="path7786" />
		<path
   style="fill:#c7ebff"
   d="m 396.288,354.162 c -0.131,-0.083 -0.267,-0.16 -0.399,-0.242 -11.421,-7.095 -24.885,-11.213 -39.32,-11.213 -41.226,0 -74.647,33.42 -74.647,74.646 0,14.035 3.879,27.162 10.615,38.377 0.071,0.119 0.138,0.241 0.21,0.359 13.097,21.531 36.78,35.911 63.823,35.911 41.226,0 74.647,-33.42 74.647,-74.647 -10e-4,-26.624 -13.951,-49.977 -34.929,-63.191 z"
   id="path7788" />
	</g>
	<g
   id="g7798">
		<path
   style="fill:#194f82"
   d="M 405.889,348.576 V 105.273 c 0,-2.652 -1.054,-5.196 -2.929,-7.071 L 307.688,2.929 C 305.813,1.054 303.27,0 300.617,0 H 70.783 c -5.523,0 -10,4.477 -10,10 v 445.916 c 0,5.523 4.477,10 10,10 h 216.442 c 15.858,22.695 41.39,36.084 69.345,36.084 46.674,0 84.646,-37.972 84.646,-84.646 10e-4,-27.527 -13.114,-52.869 -35.327,-68.778 z M 80.783,20 h 215.691 l 76.158,76.158 h -51.151 c -5.522,0 -10,4.477 -10,10 0,5.523 4.478,10 10,10 h 64.408 v 221.789 c -9.334,-3.451 -19.247,-5.241 -29.319,-5.241 -46.675,0 -84.647,37.973 -84.647,84.647 0,9.793 1.692,19.45 4.955,28.562 H 80.783 Z M 356.57,482 c -22.766,0 -43.43,-11.629 -55.277,-31.107 -6.13,-10.077 -9.37,-21.675 -9.37,-33.539 0,-35.646 29.001,-64.647 64.647,-64.647 11.785,0 23.28,3.21 33.334,9.278 0.474,0.355 0.979,0.67 1.513,0.938 18.668,11.975 29.799,32.278 29.799,54.431 C 421.217,453 392.217,482 356.57,482 Z"
   id="path7792" />
		<path
   style="fill:#194f82"
   d="m 394.345,407.354 h -27.776 v -27.776 c 0,-5.523 -4.478,-10 -10,-10 -5.522,0 -10,4.477 -10,10 v 27.776 h -27.776 c -5.522,0 -10,4.477 -10,10 0,5.523 4.478,10 10,10 h 27.776 v 27.776 c 0,5.523 4.478,10 10,10 5.522,0 10,-4.477 10,-10 v -27.776 h 27.776 c 5.522,0 10,-4.477 10,-10 0,-5.523 -4.477,-10 -10,-10 z"
   id="path7794" />
		<path
   style="fill:#194f82"
   d="m 292.56,106.158 c 0,-5.523 -4.478,-10 -10,-10 h -11.447 c -5.522,0 -10,4.477 -10,10 0,5.523 4.478,10 10,10 h 11.447 c 5.523,0 10,-4.477 10,-10 z"
   id="path7796" />
	</g>
</g>
</svg>
