<?xml version="1.0" encoding="UTF-8" standalone="no"?>
<svg
   xmlns:dc="http://purl.org/dc/elements/1.1/"
   xmlns:cc="http://creativecommons.org/ns#"
   xmlns:rdf="http://www.w3.org/1999/02/22-rdf-syntax-ns#"
   xmlns:svg="http://www.w3.org/2000/svg"
   xmlns="http://www.w3.org/2000/svg"
   xmlns:sodipodi="http://sodipodi.sourceforge.net/DTD/sodipodi-0.dtd"
   xmlns:inkscape="http://www.inkscape.org/namespaces/inkscape"
   width="72px"
   height="72px"
   viewBox="0 0 72 72"
   id="emoji"
   version="1.1"
   sodipodi:docname="open-file-folder-svgrepo-com.svg"
   inkscape:version="1.0.2-2 (e86c870879, 2021-01-15)">
  <metadata
     id="metadata871">
    <rdf:RDF>
      <cc:Work
         rdf:about="">
        <dc:format>image/svg+xml</dc:format>
        <dc:type
           rdf:resource="http://purl.org/dc/dcmitype/StillImage" />
      </cc:Work>
    </rdf:RDF>
  </metadata>
  <defs
     id="defs869" />
  <sodipodi:namedview
     pagecolor="#ffffff"
     bordercolor="#666666"
     borderopacity="1"
     objecttolerance="10"
     gridtolerance="10"
     guidetolerance="10"
     inkscape:pageopacity="0"
     inkscape:pageshadow="2"
     inkscape:window-width="1586"
     inkscape:window-height="1168"
     id="namedview867"
     showgrid="false"
     inkscape:zoom="14"
     inkscape:cx="36"
     inkscape:cy="36"
     inkscape:window-x="0"
     inkscape:window-y="0"
     inkscape:window-maximized="0"
     inkscape:current-layer="emoji" />
  <path
     fill="#9B9B9A"
     stroke="none"
     d="m 15.464,59.6264 c 0.1391,-0.1691 2.3559,-7.8264 2.8998,-9.627 0.457,-1.5137 3.9618,-15.2702 6.1601,-25.071 0.0084,-0.1315 33.4839,-0.6133 33.4839,-0.6133 v -4.0109 c 0,0.5522 -1,-3.356 -1,-3.356 L 29.5147,16.377 c -0.0801,-1.2364 -1.004,-4.1216 -2.1368,-4.1216 L 14.791,12.0571 c -1.1026,0 -2.8321,1.3407 -2.8321,2.4437 0,0 0.5527,39.7248 0,39.7248 -0.5527,0 -0.9999,2.3271 -0.9999,1.7744 0,0 0.3537,3.5947 1.3755,4.566 0.0143,0.0137 0.0302,0.0212 0.0451,0.0335 -0.1325,-0.1559 2.9254,-0.7806 3.0844,-0.9731 z"
     id="path853"
     style="fill:#56ace0;fill-opacity:1" />
  <path
     fill="#D0CFCE"
     stroke="none"
     d="m 23.9444,24.3151 c 0,0.0782 -0.0083,0.1557 -0.0259,0.2318 -0.2749,1.226 -6.7345,30.0417 -7.363,32.1243 -0.3359,1.1164 -0.9593,2.3082 -1.7645,3.291 l 43.1115,0.0104 c 1.1381,0 1.5216,0 2.1521,-2.3899 0.6676,-2.5305 6.6984,-30.2693 7.342,-33.2323 0.0017,-0.009 0.0066,-0.0353 0.0066,-0.0353 z"
     id="path855"
     style="fill:#56ace0;fill-opacity:1;opacity:0.5" />
  <g
     id="hair" />
  <g
     id="skin" />
  <g
     id="skin-shadow" />
  <g
     id="line">
    <path
       fill="none"
       stroke="#194F82"
       stroke-linecap="round"
       stroke-linejoin="round"
       stroke-miterlimit="10"
       stroke-width="2"
       d="M57.0078,20.3044v-3.3562l-27.3383-0.0025c-0.198,0-0.3586-0.165-0.3586-0.3684l-0.0687-1.5169 c-0.116-1.7878-1.3398-3.0033-2.9967-3.0033H14.9589c-1.6569,0-3,1.3432-3,3V56"
       id="path861" />
    <path
       fill="none"
       stroke="#194F82"
       stroke-linecap="round"
       stroke-linejoin="round"
       stroke-miterlimit="10"
       stroke-width="2"
       d="M17.0271,55.5678c-0.5897,1.954-2.2223,4.1389-3.8959,4.394l43.9148,0.0108c1.6569,0,2.3233-0.4388,3-3 c0.6767-2.5612,7-31.6575,7-31.6575c0-0.5523-0.4477-1-1-1H24.9649c-0.5523,0-1,0.4477-1,1 C23.9649,25.3151,17.6168,53.6137,17.0271,55.5678z"
       id="path863" />
  </g>
</svg>
