<?xml version="1.0" encoding="iso-8859-1"?>
<!-- Generator: Adobe Illustrator 19.0.0, SVG Export Plug-In . SVG Version: 6.00 Build 0)  -->
<svg version="1.1" id="Layer_1" xmlns="http://www.w3.org/2000/svg" xmlns:xlink="http://www.w3.org/1999/xlink" x="0px" y="0px"
	 viewBox="0 0 392.734 392.734" style="enable-background:new 0 0 392.734 392.734;" xml:space="preserve">
<path style="fill:#194F82;" d="M381.679,0.165H119.408c-6.012,0-10.925,4.848-10.925,10.925v110.869
	c-28.121,13.059-47.903,43.83-47.903,79.515c0,16.549,4.331,32,11.766,45.123c-22.82,7.499-37.624,15.321-44.994,23.725
	C8.669,291.656,1.364,366.064,0.136,380.739c-1.099,5.495,4.655,11.83,10.925,11.83h255.677c7.111,0,11.378-6.335,10.925-11.83
	c-1.228-14.675-8.598-89.147-27.216-110.416c-7.37-8.404-22.238-16.162-44.994-23.661c3.491-6.271,6.335-13.059,8.339-20.234
	h168.016c6.012,0,10.925-4.848,10.925-10.925V11.09C392.54,5.013,387.691,0.165,381.679,0.165z M138.802,136.957
	c23.402,0,43.572,16.356,52.105,39.628c-41.956,2.392-52.752-18.747-53.139-19.653c-1.681-4.008-5.624-6.594-10.02-6.594
	c-0.065,0-0.129,0-0.129,0c-4.396,0.065-8.339,2.78-9.956,6.982c-0.388,1.099-9.18,22.691-32.194,23.596
	C92.903,155.316,113.978,136.957,138.802,136.957z M129.041,180.27c10.925,9.891,31.16,20.622,66.069,17.842
	c0.065,1.099,0.129,2.133,0.129,3.232c0,35.556-25.341,64.453-56.436,64.453c-30.772,0-55.79-28.251-56.436-63.224
	C103.635,203.737,119.99,191.712,129.041,180.27z M86.245,265.086c13.899,13.964,32.388,22.562,52.622,22.562
	s38.723-8.598,52.622-22.562c30.901,9.438,39.952,16.743,42.473,19.653c9.115,10.408,17.002,53.139,20.687,86.109H23.02
	c3.685-32.97,11.572-75.701,20.687-86.109C46.229,281.829,55.279,274.46,86.245,265.086z M370.754,204.642H216.96
	c0-1.099,0.065-2.133,0.065-3.232c0-47.58-35.103-86.238-78.287-86.238c-2.844,0-5.689,0.259-8.598,0.517V21.951h240.485v182.691
	H370.754z"/>
<path style="fill:#FFFFFF;" d="M130.269,115.688c2.78-0.323,5.624-0.517,8.598-0.517c43.119,0,78.287,38.723,78.287,86.238
	c0,1.099-0.065,2.133-0.065,3.232h153.729V21.951h-240.55V115.688z"/>
<path style="fill:#FFC10D;" d="M348.968,43.607H152.055v72.857c31.289,5.947,56.242,32.323,63.03,66.198h133.754V43.607H348.968z"/>
<path style="fill:#194F82;" d="M289.881,102.242h-11.119c-3.426,0-6.206-2.78-6.206-6.206c0-3.426,2.78-6.206,6.206-6.206h28.186
	c6.012,0,10.925-4.848,10.925-10.925c0-6.077-4.848-10.925-10.925-10.925h-7.499V65.91c0-6.012-4.848-10.925-10.925-10.925
	c-6.012,0-10.925,4.848-10.925,10.925v2.133c-14.933,0.646-26.893,12.8-26.893,27.927c0,15.451,12.606,27.992,27.992,27.992h11.119
	c3.426,0,6.206,2.78,6.206,6.206c0,3.426-2.78,6.206-6.206,6.206h-28.186c-6.012,0-10.925,4.848-10.925,10.925
	c0,6.012,4.848,10.925,10.925,10.925h15.968v2.069c0,6.012,4.848,10.925,10.925,10.925c6.012,0,10.925-4.848,10.925-10.925v-3.943
	c10.667-3.943,18.36-14.158,18.36-26.182C317.808,114.783,305.332,102.242,289.881,102.242z"/>
<path style="fill:#56ACE0;" d="M254.584,370.783c-3.685-32.97-11.572-75.701-20.687-86.109
	c-2.457-2.844-11.507-10.214-42.473-19.652c-13.899,13.964-32.388,22.562-52.622,22.562s-38.723-8.598-52.622-22.562
	c-30.901,9.438-39.952,16.743-42.473,19.652c-9.115,10.408-17.002,53.139-20.687,86.109H254.584z"/>
<path style="fill:#FFFFFF;" d="M117.534,157.32c1.616-4.073,5.56-6.853,9.956-6.982c0.065,0,0.129,0,0.129,0
	c4.331,0,8.275,2.521,10.02,6.594c0.388,0.84,11.184,22.044,53.139,19.653c-8.469-23.273-28.638-39.628-52.105-39.628
	c-24.824,0-45.899,18.489-53.463,43.96C108.354,180.076,117.146,158.355,117.534,157.32z"/>
<path style="fill:#FFC10D;" d="M138.802,265.862c31.16,0,56.436-28.897,56.436-64.453c0-1.099-0.065-2.133-0.129-3.232
	c-34.909,2.715-55.143-8.016-66.069-17.842c-9.05,11.442-25.406,23.402-46.61,22.303
	C83.012,237.547,108.031,265.862,138.802,265.862z"/>
<g>
</g>
<g>
</g>
<g>
</g>
<g>
</g>
<g>
</g>
<g>
</g>
<g>
</g>
<g>
</g>
<g>
</g>
<g>
</g>
<g>
</g>
<g>
</g>
<g>
</g>
<g>
</g>
<g>
</g>
</svg>
