<?xml version="1.0" encoding="iso-8859-1"?>
<!-- Generator: Adobe Illustrator 19.0.0, SVG Export Plug-In . SVG Version: 6.00 Build 0)  -->
<svg version="1.1" id="Layer_1" xmlns="http://www.w3.org/2000/svg" xmlns:xlink="http://www.w3.org/1999/xlink" x="0px" y="0px"
	 viewBox="0 0 502 502" style="enable-background:new 0 0 502 502;" xml:space="preserve">
<g>
	<polygon style="fill:#D1E2EB;" points="492,168.5 10,168.5 10,388.5 61,388.5 61,310.5 441,310.5 441,388.5 492,388.5 	"/>
	<rect x="61" y="310.5" style="fill:#4EC9DC;" width="380" height="168"/>
	<rect x="61" y="23.5" style="fill:#4EC9DC;" width="380" height="145"/>
	<circle style="fill:#4EC9DC;" cx="423" cy="239.5" r="19"/>
	<g>
		<path d="M492,158.5h-41v-135c0-5.522-4.478-10-10-10H61c-5.522,0-10,4.478-10,10v135H10c-5.522,0-10,4.478-10,10v220
			c0,5.522,4.478,10,10,10h41v80c0,5.522,4.478,10,10,10h380c5.522,0,10-4.478,10-10v-80h41c5.522,0,10-4.478,10-10v-220
			C502,162.978,497.522,158.5,492,158.5z M71,33.5h360v125H71V33.5z M431,468.5H71v-148h360V468.5z M482,178.5v200h-31v-68
			c0-5.522-4.478-10-10-10H61c-5.522,0-10,4.478-10,10v68H20v-200H482z"/>
		<path d="M394,239.5c0,15.99,13.01,29,29,29s29-13.01,29-29s-13.01-29-29-29S394,223.51,394,239.5z M432,239.5c0,4.963-4.037,9-9,9
			s-9-4.037-9-9s4.037-9,9-9S432,234.537,432,239.5z"/>
		<path d="M363,228.5h-47c-5.522,0-10,4.478-10,10s4.478,10,10,10h47c5.522,0,10-4.478,10-10S368.522,228.5,363,228.5z"/>
		<path d="M391,342.5h-24c-5.522,0-10,4.478-10,10s4.478,10,10,10h24c5.522,0,10-4.478,10-10S396.522,342.5,391,342.5z"/>
		<path d="M111,362.5h215c5.522,0,10-4.478,10-10s-4.478-10-10-10H111c-5.522,0-10,4.478-10,10S105.478,362.5,111,362.5z"/>
		<path d="M391,383.5H111c-5.522,0-10,4.478-10,10s4.478,10,10,10h280c5.522,0,10-4.478,10-10S396.522,383.5,391,383.5z"/>
		<path d="M391,423.5H111c-5.522,0-10,4.478-10,10s4.478,10,10,10h280c5.522,0,10-4.478,10-10S396.522,423.5,391,423.5z"/>
	</g>
</g>
<g>
</g>
<g>
</g>
<g>
</g>
<g>
</g>
<g>
</g>
<g>
</g>
<g>
</g>
<g>
</g>
<g>
</g>
<g>
</g>
<g>
</g>
<g>
</g>
<g>
</g>
<g>
</g>
<g>
</g>
</svg>
