<?xml version="1.0" encoding="UTF-8" standalone="no"?>
<svg
   xmlns:dc="http://purl.org/dc/elements/1.1/"
   xmlns:cc="http://creativecommons.org/ns#"
   xmlns:rdf="http://www.w3.org/1999/02/22-rdf-syntax-ns#"
   xmlns:svg="http://www.w3.org/2000/svg"
   xmlns="http://www.w3.org/2000/svg"
   xmlns:sodipodi="http://sodipodi.sourceforge.net/DTD/sodipodi-0.dtd"
   xmlns:inkscape="http://www.inkscape.org/namespaces/inkscape"
   version="1.1"
   id="Layer_1"
   x="0px"
   y="0px"
   viewBox="0 0 502 502"
   style="enable-background:new 0 0 502 502;"
   xml:space="preserve"
   sodipodi:docname="PRINT.svg"
   inkscape:version="1.0.2-2 (e86c870879, 2021-01-15)"><metadata
   id="metadata897"><rdf:RDF><cc:Work
       rdf:about=""><dc:format>image/svg+xml</dc:format><dc:type
         rdf:resource="http://purl.org/dc/dcmitype/StillImage" /></cc:Work></rdf:RDF></metadata><defs
   id="defs895">
	
	
	
	
	
</defs><sodipodi:namedview
   pagecolor="#ffffff"
   bordercolor="#666666"
   borderopacity="1"
   objecttolerance="10"
   gridtolerance="10"
   guidetolerance="10"
   inkscape:pageopacity="0"
   inkscape:pageshadow="2"
   inkscape:window-width="2326"
   inkscape:window-height="1231"
   id="namedview893"
   showgrid="false"
   inkscape:zoom="2.0079681"
   inkscape:cx="251"
   inkscape:cy="251"
   inkscape:window-x="0"
   inkscape:window-y="0"
   inkscape:window-maximized="0"
   inkscape:current-layer="Layer_1" />
<polygon
   style="fill:#56ace0;fill-opacity:1;opacity:0.5"
   points="10,388.5 61,388.5 61,310.5 441,310.5 441,388.5 492,388.5 492,168.5 10,168.5 "
   id="polygon866" /><rect
   x="61"
   y="310.5"
   style="fill:#56ace0;fill-opacity:1"
   width="380"
   height="168"
   id="rect868" /><rect
   x="61"
   y="23.5"
   style="fill:#ffc10d;fill-opacity:1"
   width="380"
   height="145"
   id="rect870" /><circle
   style="fill:#4ec9dc"
   cx="423"
   cy="239.5"
   r="19"
   id="circle872" /><g
   id="g888"
   style="fill:#194f82;fill-opacity:1">
		<path
   d="m 492,158.5 h -41 v -135 c 0,-5.522 -4.478,-10 -10,-10 H 61 c -5.522,0 -10,4.478 -10,10 v 135 H 10 c -5.522,0 -10,4.478 -10,10 v 220 c 0,5.522 4.478,10 10,10 h 41 v 80 c 0,5.522 4.478,10 10,10 h 380 c 5.522,0 10,-4.478 10,-10 v -80 h 41 c 5.522,0 10,-4.478 10,-10 v -220 c 0,-5.522 -4.478,-10 -10,-10 z M 71,33.5 h 360 v 125 H 71 Z m 360,435 H 71 v -148 h 360 z m 51,-290 v 200 h -31 v -68 c 0,-5.522 -4.478,-10 -10,-10 H 61 c -5.522,0 -10,4.478 -10,10 v 68 H 20 v -200 z"
   id="path874"
   style="fill:#194f82;fill-opacity:1" />
		<path
   d="m 394,239.5 c 0,15.99 13.01,29 29,29 15.99,0 29,-13.01 29,-29 0,-15.99 -13.01,-29 -29,-29 -15.99,0 -29,13.01 -29,29 z m 38,0 c 0,4.963 -4.037,9 -9,9 -4.963,0 -9,-4.037 -9,-9 0,-4.963 4.037,-9 9,-9 4.963,0 9,4.037 9,9 z"
   id="path876"
   style="fill:#194f82;fill-opacity:1" />
		<path
   d="m 363,228.5 h -47 c -5.522,0 -10,4.478 -10,10 0,5.522 4.478,10 10,10 h 47 c 5.522,0 10,-4.478 10,-10 0,-5.522 -4.478,-10 -10,-10 z"
   id="path878"
   style="fill:#194f82;fill-opacity:1" />
		<path
   d="m 391,342.5 h -24 c -5.522,0 -10,4.478 -10,10 0,5.522 4.478,10 10,10 h 24 c 5.522,0 10,-4.478 10,-10 0,-5.522 -4.478,-10 -10,-10 z"
   id="path880"
   style="fill:#194f82;fill-opacity:1" />
		<path
   d="m 111,362.5 h 215 c 5.522,0 10,-4.478 10,-10 0,-5.522 -4.478,-10 -10,-10 H 111 c -5.522,0 -10,4.478 -10,10 0,5.522 4.478,10 10,10 z"
   id="path882"
   style="fill:#194f82;fill-opacity:1" />
		<path
   d="M 391,383.5 H 111 c -5.522,0 -10,4.478 -10,10 0,5.522 4.478,10 10,10 h 280 c 5.522,0 10,-4.478 10,-10 0,-5.522 -4.478,-10 -10,-10 z"
   id="path884"
   style="fill:#194f82;fill-opacity:1" />
		<path
   d="M 391,423.5 H 111 c -5.522,0 -10,4.478 -10,10 0,5.522 4.478,10 10,10 h 280 c 5.522,0 10,-4.478 10,-10 0,-5.522 -4.478,-10 -10,-10 z"
   id="path886"
   style="fill:#194f82;fill-opacity:1" />
	</g>
</svg>
