<?xml version="1.0" encoding="UTF-8" standalone="no"?>
<svg
   xmlns:dc="http://purl.org/dc/elements/1.1/"
   xmlns:cc="http://creativecommons.org/ns#"
   xmlns:rdf="http://www.w3.org/1999/02/22-rdf-syntax-ns#"
   xmlns:svg="http://www.w3.org/2000/svg"
   xmlns="http://www.w3.org/2000/svg"
   xmlns:sodipodi="http://sodipodi.sourceforge.net/DTD/sodipodi-0.dtd"
   xmlns:inkscape="http://www.inkscape.org/namespaces/inkscape"
   version="1.1"
   id="Layer_1"
   x="0px"
   y="0px"
   viewBox="0 0 24 24"
   xml:space="preserve"
   sodipodi:docname="bank3.svg"
   width="24"
   height="24"
   inkscape:version="1.0.2-2 (e86c870879, 2021-01-15)"><metadata
   id="metadata1606"><rdf:RDF><cc:Work
       rdf:about=""><dc:format>image/svg+xml</dc:format><dc:type
         rdf:resource="http://purl.org/dc/dcmitype/StillImage" /><dc:title></dc:title></cc:Work></rdf:RDF></metadata><defs
   id="defs1604" /><sodipodi:namedview
   pagecolor="#ffffff"
   bordercolor="#666666"
   borderopacity="1"
   objecttolerance="10"
   gridtolerance="10"
   guidetolerance="10"
   inkscape:pageopacity="0"
   inkscape:pageshadow="2"
   inkscape:window-width="1196"
   inkscape:window-height="626"
   id="namedview1602"
   showgrid="false"
   inkscape:zoom="9.8446332"
   inkscape:cx="20.63495"
   inkscape:cy="6.9367023"
   inkscape:window-x="0"
   inkscape:window-y="0"
   inkscape:window-maximized="0"
   inkscape:current-layer="Layer_1" />
<g
   id="g1569"
   transform="matrix(0.04387482,0,0,0.04387482,0.8126255,0.76692591)"
   style="fill:#006633;fill-opacity:1">
	<g
   id="g1567"
   style="fill:#006633;fill-opacity:1">
		<g
   id="g1565"
   style="fill:#006633;fill-opacity:1">
			<path
   style="fill:#006633;fill-opacity:1"
   d="M 490.259,443.918 H 445.69 V 229.78 h 43.482 c 11.958,0 21.741,-9.783 21.741,-20.654 v -88.051 c 0,-9.783 -6.522,-17.393 -15.219,-20.654 L 257.631,25.415 c -4.348,-1.087 -8.696,-1.087 -13.045,0 L 14.132,100.422 C 5.435,103.683 0,112.379 0,121.075 v 88.051 c 0,11.958 9.783,21.741 21.741,21.741 H 65.223 V 443.918 H 21.741 C 9.783,443.918 0,453.702 0,465.659 0,477.616 9.783,487.4 21.741,487.4 h 467.431 c 11.958,0 22.828,-9.783 22.828,-21.741 0,-11.958 -9.783,-21.741 -21.741,-21.741 z M 108.705,230.867 h 47.83 c 11.958,0 21.741,-9.783 21.741,-21.741 0,-11.958 -9.783,-21.741 -21.741,-21.741 H 87.39 c -0.142,-0.003 -0.283,-0.011 -0.426,-0.011 -0.143,0 -0.284,0.008 -0.426,0.011 H 42.395 v -51.091 l 207.626,-68.484 217.41,68.484 v 50.004 H 356.552 c -11.958,0 -21.741,9.783 -21.741,21.741 0,11.958 9.783,21.741 21.741,21.741 h 45.656 V 443.918 H 108.705 Z"
   id="path1561" />
			<path
   style="fill:#006633;fill-opacity:1"
   d="m 309.809,258.033 c -4.348,-5.435 -11.958,-9.783 -19.567,-13.045 -3.261,-2.174 -10.87,-4.348 -20.654,-6.522 v -58.701 c 4.348,2.174 7.609,3.261 9.783,6.522 3.261,3.261 6.522,9.784 7.609,18.48 l 1.087,5.435 35.873,-5.435 -1.087,-5.435 c -2.174,-16.306 -8.696,-29.35 -20.654,-39.134 -7.609,-6.522 -18.48,-10.87 -31.524,-13.045 v -11.958 h -25.002 v 11.958 c -15.219,2.174 -27.176,6.522 -34.786,14.132 -13.045,11.958 -19.567,27.176 -19.567,45.656 0,10.87 2.174,19.567 6.522,28.263 4.348,7.609 10.87,15.219 19.567,19.567 8.696,5.435 18.48,8.696 27.176,10.87 v 66.31 c -5.435,-2.174 -10.87,-5.435 -15.219,-10.87 -4.348,-5.435 -6.522,-14.132 -8.696,-26.089 l -1.087,-5.435 -34.786,6.522 v 4.348 c 1.087,13.045 5.435,23.915 10.87,33.698 6.522,9.783 13.045,16.306 21.741,20.654 6.522,3.261 15.219,5.435 26.089,7.609 v 25.002 h 25.002 v -22.828 c 16.306,-2.174 29.35,-8.696 40.221,-19.567 11.958,-11.958 17.393,-27.176 17.393,-45.656 0,-7.609 -1.087,-15.219 -4.348,-22.828 -2.173,-6.521 -6.521,-13.043 -11.956,-18.478 z M 223.932,203.68 c 0,-7.609 2.174,-13.045 6.522,-18.48 3.261,-3.261 7.609,-5.435 13.045,-7.609 0,0 0,52.189 0,52.178 -6.522,-2.174 -10.87,-5.435 -14.132,-8.696 -3.261,-4.348 -5.435,-10.87 -5.435,-17.393 z m 58.701,119.587 c -4.348,4.348 -8.696,6.522 -14.132,8.696 v -59.788 c 9.783,3.25 14.132,7.609 16.306,10.87 3.261,4.348 5.435,9.783 5.435,17.393 0,9.784 -2.174,16.306 -7.609,22.829 z"
   id="path1563" />
		</g>
	</g>
</g>
<g
   id="g1571"
   transform="matrix(0.04387482,0,0,0.04387482,0.8126255,0.76692591)">
</g>
<g
   id="g1573"
   transform="matrix(0.04387482,0,0,0.04387482,0.8126255,0.76692591)">
</g>
<g
   id="g1575"
   transform="matrix(0.04387482,0,0,0.04387482,0.8126255,0.76692591)">
</g>
<g
   id="g1577"
   transform="matrix(0.04387482,0,0,0.04387482,0.8126255,0.76692591)">
</g>
<g
   id="g1579"
   transform="matrix(0.04387482,0,0,0.04387482,0.8126255,0.76692591)">
</g>
<g
   id="g1581"
   transform="matrix(0.04387482,0,0,0.04387482,0.8126255,0.76692591)">
</g>
<g
   id="g1583"
   transform="matrix(0.04387482,0,0,0.04387482,0.8126255,0.76692591)">
</g>
<g
   id="g1585"
   transform="matrix(0.04387482,0,0,0.04387482,0.8126255,0.76692591)">
</g>
<g
   id="g1587"
   transform="matrix(0.04387482,0,0,0.04387482,0.8126255,0.76692591)">
</g>
<g
   id="g1589"
   transform="matrix(0.04387482,0,0,0.04387482,0.8126255,0.76692591)">
</g>
<g
   id="g1591"
   transform="matrix(0.04387482,0,0,0.04387482,0.8126255,0.76692591)">
</g>
<g
   id="g1593"
   transform="matrix(0.04387482,0,0,0.04387482,0.8126255,0.76692591)">
</g>
<g
   id="g1595"
   transform="matrix(0.04387482,0,0,0.04387482,0.8126255,0.76692591)">
</g>
<g
   id="g1597"
   transform="matrix(0.04387482,0,0,0.04387482,0.8126255,0.76692591)">
</g>
<g
   id="g1599"
   transform="matrix(0.04387482,0,0,0.04387482,0.8126255,0.76692591)">
</g>
</svg>
