<?xml version="1.0" encoding="UTF-8" standalone="no"?>
<svg
   xmlns:dc="http://purl.org/dc/elements/1.1/"
   xmlns:cc="http://creativecommons.org/ns#"
   xmlns:rdf="http://www.w3.org/1999/02/22-rdf-syntax-ns#"
   xmlns:svg="http://www.w3.org/2000/svg"
   xmlns="http://www.w3.org/2000/svg"
   xmlns:sodipodi="http://sodipodi.sourceforge.net/DTD/sodipodi-0.dtd"
   xmlns:inkscape="http://www.inkscape.org/namespaces/inkscape"
   version="1.1"
   id="Layer_1"
   x="0px"
   y="0px"
   viewBox="0 0 24.000001 24.000001"
   xml:space="preserve"
   sodipodi:docname="bank.svg"
   width="24"
   height="24"
   inkscape:version="1.0.2-2 (e86c870879, 2021-01-15)"><metadata
   id="metadata1622"><rdf:RDF><cc:Work
       rdf:about=""><dc:format>image/svg+xml</dc:format><dc:type
         rdf:resource="http://purl.org/dc/dcmitype/StillImage" /><dc:title></dc:title></cc:Work></rdf:RDF></metadata><defs
   id="defs1620" /><sodipodi:namedview
   pagecolor="#ffffff"
   bordercolor="#666666"
   borderopacity="1"
   objecttolerance="10"
   gridtolerance="10"
   guidetolerance="10"
   inkscape:pageopacity="0"
   inkscape:pageshadow="2"
   inkscape:window-width="1377"
   inkscape:window-height="608"
   id="namedview1618"
   showgrid="false"
   inkscape:zoom="13.372819"
   inkscape:cx="11.800224"
   inkscape:cy="18.872147"
   inkscape:window-x="63"
   inkscape:window-y="349"
   inkscape:window-maximized="0"
   inkscape:current-layer="Layer_1" />
<g
   id="g1537"
   style="opacity:0.15;fill:#006633;fill-opacity:1"
   transform="matrix(0.02957724,0,0,0.02957724,4.2859106,4.4863577)">
	<rect
   x="58.084"
   y="208.008"
   style="fill:#006633;fill-opacity:1"
   width="53.171001"
   height="176.44501"
   id="rect1529" />
	<rect
   x="172.3"
   y="208.008"
   style="fill:#006633;fill-opacity:1"
   width="53.171001"
   height="176.44501"
   id="rect1531" />
	<rect
   x="286.52701"
   y="208.008"
   style="fill:#006633;fill-opacity:1"
   width="53.171001"
   height="176.44501"
   id="rect1533" />
	<rect
   x="400.755"
   y="208.008"
   style="fill:#006633;fill-opacity:1"
   width="53.171001"
   height="176.44501"
   id="rect1535" />
</g>

<rect
   x="5.628273"
   y="9.6985769"
   style="fill:#006633;fill-opacity:1;stroke-width:0.0295773"
   width="2.3235285"
   height="1.2680945"
   id="rect1541" />

<rect
   x="5.628273"
   y="15.529965"
   style="opacity:1;fill:#006633;fill-opacity:1;stroke-width:0.0295773"
   width="2.3235285"
   height="1.5958695"
   id="rect1545" />

<rect
   x="9.0067625"
   y="9.6985769"
   style="fill:#006633;fill-opacity:1;stroke-width:0.0295773"
   width="2.3235285"
   height="1.2680945"
   id="rect1549" />

<rect
   x="9.0067625"
   y="15.529965"
   style="opacity:1;fill:#006633;fill-opacity:1;stroke-width:0.0295773"
   width="2.3235285"
   height="1.5958695"
   id="rect1553" />

<rect
   x="12.385283"
   y="9.6985769"
   style="fill:#006633;fill-opacity:1;stroke-width:0.0295773"
   width="2.3235285"
   height="1.2680945"
   id="rect1557" />

<rect
   x="12.385283"
   y="15.529965"
   style="opacity:1;fill:#006633;fill-opacity:1;stroke-width:0.0295773"
   width="2.3235285"
   height="1.5958695"
   id="rect1561" />

<rect
   x="15.763475"
   y="9.6985769"
   style="fill:#006633;fill-opacity:1;stroke-width:0.0295773"
   width="2.3235285"
   height="1.2680945"
   id="rect1565" />

<rect
   x="15.763475"
   y="15.529965"
   style="opacity:1;fill:#006633;fill-opacity:1;stroke-width:0.0295773"
   width="2.3235285"
   height="1.5958695"
   id="rect1569" />
<g
   id="g1575"
   style="opacity:0.99"
   transform="matrix(0.02957724,0,0,0.02957724,4.2859106,4.4863577)">
	<path
   style="opacity:0.15;fill:#006633;fill-opacity:1"
   d="M 506.963,166.339 302.912,27.318 C 274.609,8.036 237.39,8.036 209.087,27.318 L 5.037,166.339 C -4.3,172.7 0.203,187.304 11.5,187.304 h 489 c 11.297,0 15.799,-14.604 6.463,-20.965 z"
   id="path1571" />
	<path
   style="opacity:0.15;fill:#006633;fill-opacity:1"
   d="M 465.648,416.252 H 46.353 c -19.046,0 -34.487,15.44 -34.487,34.487 v 0 28.91 h 488.268 v -28.911 0 c 0,-19.046 -15.44,-34.486 -34.486,-34.486 z"
   id="path1573" />
</g>
<rect
   id="SVGCleanerId_0"
   x="4.2859106"
   y="18.531847"
   style="opacity:0.15;fill:#293133;stroke-width:0.0295773;enable-background:new"
   width="15.143576"
   height="0.71769166" />
<rect
   x="4.2859106"
   y="17.817944"
   style="fill:#006633;fill-opacity:1;stroke-width:0.0295773"
   width="15.143576"
   height="1.4317454"
   id="rect1578" />

<circle
   style="fill:#ffffff;fill-opacity:1;stroke-width:0.0295773"
   cx="11.857536"
   cy="7.5898991"
   r="1.0001543"
   id="circle1583" />
<path
   style="opacity:0.66129;fill:#006633;fill-opacity:1;stroke-width:0.0295773;enable-background:new"
   d="m 11.40385,7.5899865 c 0,-0.4576197 0.307456,-0.8431886 0.727009,-0.9620886 -0.08687,-0.024608 -0.178409,-0.038094 -0.273146,-0.038094 -0.552355,0 -1.000154,0.4477995 -1.000154,1.0001548 0,0.5523847 0.447799,1.0001539 1.000154,1.0001539 0.09477,0 0.186277,-0.013458 0.273146,-0.038094 C 11.711306,8.433172 11.40385,8.0476333 11.40385,7.5899842 Z"
   id="path1585" />
<g
   id="g1587"
   transform="matrix(0.02957724,0,0,0.02957724,4.2859106,4.4863577)">
</g>
<g
   id="g1589"
   transform="matrix(0.02957724,0,0,0.02957724,4.2859106,4.4863577)">
</g>
<g
   id="g1591"
   transform="matrix(0.02957724,0,0,0.02957724,4.2859106,4.4863577)">
</g>
<g
   id="g1593"
   transform="matrix(0.02957724,0,0,0.02957724,4.2859106,4.4863577)">
</g>
<g
   id="g1595"
   transform="matrix(0.02957724,0,0,0.02957724,4.2859106,4.4863577)">
</g>
<g
   id="g1597"
   transform="matrix(0.02957724,0,0,0.02957724,4.2859106,4.4863577)">
</g>
<g
   id="g1599"
   transform="matrix(0.02957724,0,0,0.02957724,4.2859106,4.4863577)">
</g>
<g
   id="g1601"
   transform="matrix(0.02957724,0,0,0.02957724,4.2859106,4.4863577)">
</g>
<g
   id="g1603"
   transform="matrix(0.02957724,0,0,0.02957724,4.2859106,4.4863577)">
</g>
<g
   id="g1605"
   transform="matrix(0.02957724,0,0,0.02957724,4.2859106,4.4863577)">
</g>
<g
   id="g1607"
   transform="matrix(0.02957724,0,0,0.02957724,4.2859106,4.4863577)">
</g>
<g
   id="g1609"
   transform="matrix(0.02957724,0,0,0.02957724,4.2859106,4.4863577)">
</g>
<g
   id="g1611"
   transform="matrix(0.02957724,0,0,0.02957724,4.2859106,4.4863577)">
</g>
<g
   id="g1613"
   transform="matrix(0.02957724,0,0,0.02957724,4.2859106,4.4863577)">
</g>
<g
   id="g1615"
   transform="matrix(0.02957724,0,0,0.02957724,4.2859106,4.4863577)">
</g>
</svg>
