<?xml version="1.0" encoding="UTF-8" standalone="no"?>
<svg
   xmlns:dc="http://purl.org/dc/elements/1.1/"
   xmlns:cc="http://creativecommons.org/ns#"
   xmlns:rdf="http://www.w3.org/1999/02/22-rdf-syntax-ns#"
   xmlns:svg="http://www.w3.org/2000/svg"
   xmlns="http://www.w3.org/2000/svg"
   xmlns:sodipodi="http://sodipodi.sourceforge.net/DTD/sodipodi-0.dtd"
   xmlns:inkscape="http://www.inkscape.org/namespaces/inkscape"
   version="1.1"
   id="Layer_1"
   x="0px"
   y="0px"
   viewBox="0 0 24.000001 24.000001"
   xml:space="preserve"
   sodipodi:docname="bank2.svg"
   width="24"
   height="24"
   inkscape:version="1.0.2-2 (e86c870879, 2021-01-15)"><metadata
   id="metadata1622"><rdf:RDF><cc:Work
       rdf:about=""><dc:format>image/svg+xml</dc:format><dc:type
         rdf:resource="http://purl.org/dc/dcmitype/StillImage" /><dc:title></dc:title></cc:Work></rdf:RDF></metadata><defs
   id="defs1620" /><sodipodi:namedview
   pagecolor="#ffffff"
   bordercolor="#666666"
   borderopacity="1"
   objecttolerance="10"
   gridtolerance="10"
   guidetolerance="10"
   inkscape:pageopacity="0"
   inkscape:pageshadow="2"
   inkscape:window-width="1377"
   inkscape:window-height="608"
   id="namedview1618"
   showgrid="false"
   inkscape:zoom="6.6864096"
   inkscape:cx="-5.6542999"
   inkscape:cy="11.691458"
   inkscape:window-x="212"
   inkscape:window-y="158"
   inkscape:window-maximized="0"
   inkscape:current-layer="Layer_1" />
<g
   id="g1537"
   style="opacity:0.15;fill:#006633;fill-opacity:1"
   transform="matrix(0.02957724,0,0,0.02957724,4.2859106,4.4863577)">
	<rect
   x="58.084"
   y="208.008"
   style="fill:#006633;fill-opacity:1"
   width="53.171001"
   height="176.44501"
   id="rect1529" />
	<rect
   x="172.3"
   y="208.008"
   style="fill:#006633;fill-opacity:1"
   width="53.171001"
   height="176.44501"
   id="rect1531" />
	<rect
   x="286.52701"
   y="208.008"
   style="fill:#006633;fill-opacity:1"
   width="53.171001"
   height="176.44501"
   id="rect1533" />
	<rect
   x="400.755"
   y="208.008"
   style="fill:#006633;fill-opacity:1"
   width="53.171001"
   height="176.44501"
   id="rect1535" />
</g>

<rect
   x="5.628273"
   y="9.6985769"
   style="fill:#006633;fill-opacity:1;stroke-width:0.0295773"
   width="2.3235285"
   height="1.2680945"
   id="rect1541" />

<rect
   x="5.628273"
   y="15.529965"
   style="opacity:1;fill:#006633;fill-opacity:1;stroke-width:0.0295773"
   width="2.3235285"
   height="1.5958695"
   id="rect1545" />

<rect
   x="9.0067625"
   y="9.6985769"
   style="fill:#006633;fill-opacity:1;stroke-width:0.0295773"
   width="2.3235285"
   height="1.2680945"
   id="rect1549" />

<rect
   x="9.0067625"
   y="15.529965"
   style="opacity:1;fill:#006633;fill-opacity:1;stroke-width:0.0295773"
   width="2.3235285"
   height="1.5958695"
   id="rect1553" />

<rect
   x="12.385283"
   y="9.6985769"
   style="fill:#006633;fill-opacity:1;stroke-width:0.0295773"
   width="2.3235285"
   height="1.2680945"
   id="rect1557" />

<rect
   x="12.385283"
   y="15.529965"
   style="opacity:1;fill:#006633;fill-opacity:1;stroke-width:0.0295773"
   width="2.3235285"
   height="1.5958695"
   id="rect1561" />

<rect
   x="15.763475"
   y="9.6985769"
   style="fill:#006633;fill-opacity:1;stroke-width:0.0295773"
   width="2.3235285"
   height="1.2680945"
   id="rect1565" />

<rect
   x="15.763475"
   y="15.529965"
   style="opacity:1;fill:#006633;fill-opacity:1;stroke-width:0.0295773"
   width="2.3235285"
   height="1.5958695"
   id="rect1569" />

<rect
   id="SVGCleanerId_0"
   x="4.2859106"
   y="18.531847"
   style="opacity:0.15;fill:#293133;stroke-width:0.0295773;enable-background:new"
   width="15.143576"
   height="0.71769166" />
<rect
   x="4.2859106"
   y="17.817944"
   style="fill:#006633;fill-opacity:1;stroke-width:0.0295773"
   width="15.143576"
   height="1.4317454"
   id="rect1578" />



<g
   id="g1587"
   transform="matrix(0.02957724,0,0,0.02957724,4.2859106,4.4863577)">
</g>
<g
   id="g1589"
   transform="matrix(0.02957724,0,0,0.02957724,4.2859106,4.4863577)">
</g>
<g
   id="g1591"
   transform="matrix(0.02957724,0,0,0.02957724,4.2859106,4.4863577)">
</g>
<g
   id="g1593"
   transform="matrix(0.02957724,0,0,0.02957724,4.2859106,4.4863577)">
</g>
<g
   id="g1595"
   transform="matrix(0.02957724,0,0,0.02957724,4.2859106,4.4863577)">
</g>
<g
   id="g1597"
   transform="matrix(0.02957724,0,0,0.02957724,4.2859106,4.4863577)">
</g>
<g
   id="g1599"
   transform="matrix(0.02957724,0,0,0.02957724,4.2859106,4.4863577)">
</g>
<g
   id="g1601"
   transform="matrix(0.02957724,0,0,0.02957724,4.2859106,4.4863577)">
</g>
<g
   id="g1603"
   transform="matrix(0.02957724,0,0,0.02957724,4.2859106,4.4863577)">
</g>
<g
   id="g1605"
   transform="matrix(0.02957724,0,0,0.02957724,4.2859106,4.4863577)">
</g>
<g
   id="g1607"
   transform="matrix(0.02957724,0,0,0.02957724,4.2859106,4.4863577)">
</g>
<g
   id="g1609"
   transform="matrix(0.02957724,0,0,0.02957724,4.2859106,4.4863577)">
</g>
<g
   id="g1611"
   transform="matrix(0.02957724,0,0,0.02957724,4.2859106,4.4863577)">
</g>
<g
   id="g1613"
   transform="matrix(0.02957724,0,0,0.02957724,4.2859106,4.4863577)">
</g>
<g
   id="g1615"
   transform="matrix(0.02957724,0,0,0.02957724,4.2859106,4.4863577)">
</g>
<path
   opacity="0.15"
   d="m 4.1515147,9.1936704 8.0000003,-4.0983224 8,4.0983224 v 0 c -8.223216,0.056707 -8.213212,0.043889 -16.0000003,0 z"
   fill="#006633"
   id="path2197"
   style="stroke-width:0.765164"
   sodipodi:nodetypes="cccccc" /><path
   d="m 4.1515147,9.1936704 8.0000003,-4.0983224 8,4.0983224 c -7.82297,0.079108 -7.849138,0.013813 -16.0000003,0 z"
   stroke="#006633"
   stroke-width="1.08343"
   stroke-linecap="round"
   stroke-linejoin="round"
   id="path2199"
   sodipodi:nodetypes="cccc"
   style="fill:none" /><circle
   style="fill:#ffffff;fill-opacity:1;stroke-width:0.0295773"
   cx="12.226294"
   cy="7.2908788"
   id="circle1583-6"
   r="1.0001543" /><path
   style="opacity:1;fill:#006633;fill-opacity:1;stroke-width:0.0295773;enable-background:new"
   d="m 11.772607,7.290967 c 0,-0.45762 0.307456,-0.843189 0.727009,-0.962089 -0.08687,-0.02461 -0.178409,-0.03809 -0.273146,-0.03809 -0.552355,0 -1.000154,0.447799 -1.000154,1.000155 0,0.552384 0.447799,1.000154 1.000154,1.000154 0.09477,0 0.186277,-0.01346 0.273146,-0.03809 C 12.080063,8.13416 11.772607,7.748621 11.772607,7.290972 Z"
   id="path1585-6" /><rect
   x="4.7292833"
   y="16.819696"
   style="fill:#006633;fill-opacity:1;stroke-width:0.0254149;opacity:0.15"
   width="14.134066"
   height="1.1326312"
   id="rect1578-4" /></svg>
