<?xml version="1.0" encoding="UTF-8" standalone="no"?>
<svg
   xmlns:dc="http://purl.org/dc/elements/1.1/"
   xmlns:cc="http://creativecommons.org/ns#"
   xmlns:rdf="http://www.w3.org/1999/02/22-rdf-syntax-ns#"
   xmlns:svg="http://www.w3.org/2000/svg"
   xmlns="http://www.w3.org/2000/svg"
   xmlns:sodipodi="http://sodipodi.sourceforge.net/DTD/sodipodi-0.dtd"
   xmlns:inkscape="http://www.inkscape.org/namespaces/inkscape"
   version="1.1"
   id="Layer_1"
   x="0px"
   y="0px"
   viewBox="0 0 24 24"
   xml:space="preserve"
   sodipodi:docname="safebox-bank-svgrepo-com.svg"
   width="24"
   height="24"
   inkscape:version="1.0.2-2 (e86c870879, 2021-01-15)"><metadata
   id="metadata1011"><rdf:RDF><cc:Work
       rdf:about=""><dc:format>image/svg+xml</dc:format><dc:type
         rdf:resource="http://purl.org/dc/dcmitype/StillImage" /><dc:title></dc:title></cc:Work></rdf:RDF></metadata><defs
   id="defs1009">
	
</defs><sodipodi:namedview
   pagecolor="#ffffff"
   bordercolor="#666666"
   borderopacity="1"
   objecttolerance="10"
   gridtolerance="10"
   guidetolerance="10"
   inkscape:pageopacity="0"
   inkscape:pageshadow="2"
   inkscape:window-width="1276"
   inkscape:window-height="738"
   id="namedview1007"
   showgrid="false"
   inkscape:zoom="17.341954"
   inkscape:cx="17.910805"
   inkscape:cy="10.189383"
   inkscape:window-x="0"
   inkscape:window-y="0"
   inkscape:window-maximized="0"
   inkscape:current-layer="Layer_1" />
<rect
   style="fill:#006633;fill-opacity:1;stroke-width:1.72;stroke-linejoin:round;opacity:0.15"
   id="rect1580"
   width="18.930931"
   height="9.4654655"
   x="2.5966654"
   y="7.6733036" /><rect
   style="opacity:1;fill:#ffffff;fill-opacity:1;stroke-width:1.72;stroke-linejoin:round"
   id="rect1582"
   width="9.4654655"
   height="3.7861774"
   x="5.4363093"
   y="10.512992" /><g
   id="g972"
   style="fill:#006633;fill-opacity:1"
   transform="matrix(0.04436944,0,0,0.04436944,0.7035545,1.0474821)">
		<g
   id="g970"
   style="fill:#006633;fill-opacity:1">
			<path
   d="m 149.333,277.333 c 11.776,0 21.333,-9.557 21.333,-21.333 0,-11.776 -9.557,-21.333 -21.333,-21.333 -11.776,0 -21.333,9.557 -21.333,21.333 0,11.776 9.557,21.333 21.333,21.333 z"
   id="path962"
   style="fill:#006633;fill-opacity:1" />
			<path
   d="M 469.333,106.667 H 42.667 C 19.109,106.667 0,125.775 0,149.333 v 213.333 c 0,23.558 19.109,42.667 42.667,42.667 h 426.667 c 23.558,0 42.667,-19.109 42.667,-42.667 V 149.333 C 512,125.775 492.891,106.667 469.333,106.667 Z m -426.666,256 V 149.333 H 469.334 V 192 H 448 c -11.782,0 -21.333,9.551 -21.333,21.333 0,11.782 9.551,21.333 21.333,21.333 h 21.333 v 42.667 H 448 c -11.782,0 -21.333,9.551 -21.333,21.333 0,11.782 9.551,21.333 21.333,21.333 h 21.333 v 42.667 H 42.667 Z"
   id="path964"
   style="fill:#006633;fill-opacity:1" />
			<path
   d="m 341.333,170.667 h -256 C 73.551,170.667 64,180.218 64,192 v 128 c 0,11.782 9.551,21.333 21.333,21.333 h 256 c 11.782,0 21.333,-9.551 21.333,-21.333 V 192 c 10e-4,-11.782 -9.551,-21.333 -21.333,-21.333 z M 320,298.667 H 106.667 V 213.334 H 320 Z"
   id="path966"
   style="fill:#006633;fill-opacity:1" />
			<path
   d="m 234.667,277.333 h 42.667 c 11.782,0 21.333,-9.551 21.333,-21.333 0,-11.782 -9.551,-21.333 -21.333,-21.333 h -42.667 c -11.782,0 -21.333,9.551 -21.333,21.333 -0.001,11.782 9.551,21.333 21.333,21.333 z"
   id="path968"
   style="fill:#006633;fill-opacity:1" />
		</g>
	</g>
<g
   id="g976"
   transform="matrix(0.04436944,0,0,0.04436944,0.7035545,1.0474821)"
   style="fill:#006633;fill-opacity:1">
</g>
<g
   id="g978"
   transform="matrix(0.04436944,0,0,0.04436944,0.7035545,1.0474821)"
   style="fill:#006633;fill-opacity:1">
</g>
<g
   id="g980"
   transform="matrix(0.04436944,0,0,0.04436944,0.7035545,1.0474821)"
   style="fill:#006633;fill-opacity:1">
</g>
<g
   id="g982"
   transform="matrix(0.04436944,0,0,0.04436944,0.7035545,1.0474821)"
   style="fill:#006633;fill-opacity:1">
</g>
<g
   id="g984"
   transform="matrix(0.04436944,0,0,0.04436944,0.7035545,1.0474821)"
   style="fill:#006633;fill-opacity:1">
</g>
<g
   id="g986"
   transform="matrix(0.04436944,0,0,0.04436944,0.7035545,1.0474821)"
   style="fill:#006633;fill-opacity:1">
</g>
<g
   id="g988"
   transform="matrix(0.04436944,0,0,0.04436944,0.7035545,1.0474821)"
   style="fill:#006633;fill-opacity:1">
</g>
<g
   id="g990"
   transform="matrix(0.04436944,0,0,0.04436944,0.7035545,1.0474821)"
   style="fill:#006633;fill-opacity:1">
</g>
<g
   id="g992"
   transform="matrix(0.04436944,0,0,0.04436944,0.7035545,1.0474821)"
   style="fill:#006633;fill-opacity:1">
</g>
<g
   id="g994"
   transform="matrix(0.04436944,0,0,0.04436944,0.7035545,1.0474821)"
   style="fill:#006633;fill-opacity:1">
</g>
<g
   id="g996"
   transform="matrix(0.04436944,0,0,0.04436944,0.7035545,1.0474821)"
   style="fill:#006633;fill-opacity:1">
</g>
<g
   id="g998"
   transform="matrix(0.04436944,0,0,0.04436944,0.7035545,1.0474821)"
   style="fill:#006633;fill-opacity:1">
</g>
<g
   id="g1000"
   transform="matrix(0.04436944,0,0,0.04436944,0.7035545,1.0474821)"
   style="fill:#006633;fill-opacity:1">
</g>
<g
   id="g1002"
   transform="matrix(0.04436944,0,0,0.04436944,0.7035545,1.0474821)"
   style="fill:#006633;fill-opacity:1">
</g>
<g
   id="g1004"
   transform="matrix(0.04436944,0,0,0.04436944,0.7035545,1.0474821)"
   style="fill:#006633;fill-opacity:1">
</g>
</svg>
