<?xml version="1.0" encoding="UTF-8" standalone="no"?>
<svg
   xmlns:dc="http://purl.org/dc/elements/1.1/"
   xmlns:cc="http://creativecommons.org/ns#"
   xmlns:rdf="http://www.w3.org/1999/02/22-rdf-syntax-ns#"
   xmlns:svg="http://www.w3.org/2000/svg"
   xmlns="http://www.w3.org/2000/svg"
   xmlns:sodipodi="http://sodipodi.sourceforge.net/DTD/sodipodi-0.dtd"
   xmlns:inkscape="http://www.inkscape.org/namespaces/inkscape"
   version="1.1"
   id="Layer_1"
   x="0px"
   y="0px"
   viewBox="0 0 24 24"
   xml:space="preserve"
   sodipodi:docname="safebox-bank-svgrepo-com.svg"
   width="24"
   height="24"
   inkscape:version="1.0.2-2 (e86c870879, 2021-01-15)"><metadata
   id="metadata881"><rdf:RDF><cc:Work
       rdf:about=""><dc:format>image/svg+xml</dc:format><dc:type
         rdf:resource="http://purl.org/dc/dcmitype/StillImage" /><dc:title></dc:title></cc:Work></rdf:RDF></metadata><defs
   id="defs879">
	
	
	

	
	
</defs><sodipodi:namedview
   pagecolor="#ffffff"
   bordercolor="#666666"
   borderopacity="1"
   objecttolerance="10"
   gridtolerance="10"
   guidetolerance="10"
   inkscape:pageopacity="0"
   inkscape:pageshadow="2"
   inkscape:window-width="1437"
   inkscape:window-height="729"
   id="namedview877"
   showgrid="false"
   inkscape:zoom="12.068311"
   inkscape:cx="4.3643597"
   inkscape:cy="26.570787"
   inkscape:window-x="-5"
   inkscape:window-y="-2"
   inkscape:window-maximized="0"
   inkscape:current-layer="Layer_1" />
<rect
   opacity="0.15"
   x="4.122016"
   y="7.389369"
   style="fill:#006633;stroke-width:0.032871"
   width="2.9527707"
   height="2.2381217"
   id="rect858" /><rect
   opacity="0.15"
   x="4.122016"
   y="14.441813"
   style="fill:#006633;stroke-width:0.032871"
   width="2.9527707"
   height="2.2381217"
   id="rect860" />
<path
   style="fill:#006633;stroke-width:0.032871"
   d="M 19.999769,5.0088177 H 5.2417012 c -0.2629024,0 -0.4761038,0.2132016 -0.4761038,0.476104 V 6.9132 H 4.1220158 C 3.8591134,6.913233 3.645912,7.1264016 3.645912,7.389304 v 2.2379899 c 0,0.2629024 0.2132014,0.4761041 0.4761038,0.4761041 h 0.6435816 v 3.862377 H 4.1220158 c -0.2629024,3.3e-5 -0.4761038,0.213234 -0.4761038,0.476136 v 2.237991 c 0,0.262902 0.2132014,0.476104 0.4761038,0.476104 h 0.6435816 v 1.430152 c 0,0.262902 0.2132014,0.476104 0.4761038,0.476104 H 19.999769 c 0.262903,0 0.476103,-0.213202 0.476103,-0.476104 V 5.4849217 c 0,-0.2629024 -0.213135,-0.476104 -0.476103,-0.476104 z M 4.5981196,7.8654081 H 6.5986497 V 9.1511906 H 4.5981196 Z m 1.1196855,2.2379899 h 1.3569156 c 0.2629024,0 0.4761038,-0.2132017 0.4761038,-0.4761041 V 7.8654081 H 17.619283 V 16.205638 H 7.5508245 v -1.763759 c 0,-0.262903 -0.2132014,-0.476104 -0.4761038,-0.476104 H 5.7178051 Z M 4.5981196,14.917982 H 5.240748 c 2.958e-4,0 6.246e-4,3.3e-5 9.203e-4,3.3e-5 2.958e-4,0 6.246e-4,-3.3e-5 9.204e-4,-3.3e-5 h 1.3560282 v 1.285783 H 4.5981196 Z M 19.523665,18.110054 H 5.7178051 v -0.954048 h 1.3569156 c 0.00677,0 0.013345,-7.56e-4 0.019985,-0.001 0.016896,0.0018 0.033988,0.0029 0.051377,0.0029 H 18.095387 c 0.262902,0 0.476103,-0.213201 0.476103,-0.476104 V 7.389304 C 18.57149,7.1264016 18.358289,6.9132 18.095387,6.9132 H 7.1460836 c -0.012031,0 -0.023864,9.44e-4 -0.035698,0.00181 C 7.0985856,6.914066 7.0867836,6.9132 7.0746876,6.9132 H 5.7178051 V 5.961025 H 19.523698 Z"
   id="path864" />
<circle
   opacity="0.15"
   style="fill:#006633;stroke-width:0.032871"
   cx="12.620817"
   cy="12.034669"
   r="2.383806"
   id="circle866" />
<path
   style="fill:#006633;stroke-width:0.032871"
   d="m 14.950945,13.691466 c 0.703242,-0.988037 0.703242,-2.32569 0,-3.313792 l 0.413714,-0.4137149 c 0.185919,-0.1859184 0.185919,-0.4873782 0,-0.6733297 -0.18595,-0.1858531 -0.487345,-0.1858531 -0.673329,0 l -0.413484,0.4134841 c -0.480772,-0.3433706 -1.054569,-0.5292229 -1.65716,-0.5292229 -0.602657,0 -1.176389,0.1858523 -1.65716,0.5292229 L 10.550074,9.2906294 c -0.185918,-0.18582 -0.487279,-0.1858531 -0.6733293,0 -0.1859185,0.1859184 -0.1859185,0.4873452 0,0.6733297 l 0.4137143,0.4137149 c -0.7032422,0.988037 -0.7032422,2.325722 0,3.313825 l -0.4137143,0.413715 c -0.1859185,0.185951 -0.1859185,0.487378 0,0.673329 0.092992,0.09293 0.2148123,0.139439 0.3366653,0.139439 0.121853,0 0.243705,-0.04651 0.336664,-0.139439 l 0.413452,-0.413484 c 0.480771,0.343371 1.054568,0.529223 1.65716,0.529223 0.602657,0 1.176388,-0.185885 1.65716,-0.529223 l 0.413484,0.413484 c 0.09299,0.09293 0.214812,0.139439 0.336632,0.139439 0.12182,0 0.243673,-0.04651 0.336665,-0.139439 0.185919,-0.185918 0.185919,-0.487378 0,-0.673329 z m -3.67899,-0.308034 c -0.743772,-0.743707 -0.743772,-1.953919 0,-2.697626 0.360266,-0.360266 0.839262,-0.558708 1.348797,-0.558708 0.509533,0 0.988529,0.198442 1.348796,0.558708 0.743772,0.743707 0.743772,1.953919 0,2.697626 -0.360267,0.360266 -0.839263,0.558709 -1.348796,0.558709 -0.509535,0 -0.988531,-0.198443 -1.348797,-0.558709 z"
   id="path868" />
</svg>
