<?xml version="1.0" encoding="UTF-8" standalone="no"?>
<svg
   xmlns:dc="http://purl.org/dc/elements/1.1/"
   xmlns:cc="http://creativecommons.org/ns#"
   xmlns:rdf="http://www.w3.org/1999/02/22-rdf-syntax-ns#"
   xmlns:svg="http://www.w3.org/2000/svg"
   xmlns="http://www.w3.org/2000/svg"
   xmlns:sodipodi="http://sodipodi.sourceforge.net/DTD/sodipodi-0.dtd"
   xmlns:inkscape="http://www.inkscape.org/namespaces/inkscape"
   version="1.1"
   id="Layer_1"
   x="0px"
   y="0px"
   viewBox="0 0 24 24"
   xml:space="preserve"
   sodipodi:docname="bank33.svg"
   width="24"
   height="24"
   inkscape:version="1.0.2-2 (e86c870879, 2021-01-15)"><metadata
   id="metadata881"><rdf:RDF><cc:Work
       rdf:about=""><dc:format>image/svg+xml</dc:format><dc:type
         rdf:resource="http://purl.org/dc/dcmitype/StillImage" /><dc:title /></cc:Work></rdf:RDF></metadata><defs
   id="defs879">
	
	
	

	
	
</defs><sodipodi:namedview
   pagecolor="#ffffff"
   bordercolor="#666666"
   borderopacity="1"
   objecttolerance="10"
   gridtolerance="10"
   guidetolerance="10"
   inkscape:pageopacity="0"
   inkscape:pageshadow="2"
   inkscape:window-width="1437"
   inkscape:window-height="729"
   id="namedview877"
   showgrid="false"
   inkscape:zoom="15.508473"
   inkscape:cx="4.603511"
   inkscape:cy="16.05846"
   inkscape:window-x="-5"
   inkscape:window-y="-2"
   inkscape:window-maximized="0"
   inkscape:current-layer="Layer_1"
   inkscape:document-rotation="0" />

<path
   style="opacity:0.15;fill:#006633;fill-opacity:1;stroke:none;stroke-width:1.20978px;stroke-linecap:butt;stroke-linejoin:miter;stroke-opacity:1"
   d="M 4.5404229,13.974812 V 9.302189 L 6.2832174,8.6076901 6.7579714,6.5947156 H 18.938582 V 16.684551 H 6.7579714 L 6.1177382,14.6201 Z"
   id="path851" /><path
   style="fill:#006633;stroke-width:0.0397667"
   d="M 21.818444,3.1388723 H 3.9644424 c -0.3180539,0 -0.5759805,0.2579268 -0.5759805,0.5759807 V 5.4427541 H 2.6098705 C 2.2918166,5.4427941 2.03389,5.700681 2.03389,6.0187348 v 2.7074737 c 0,0.3180533 0.2579266,0.5759805 0.5759805,0.5759805 h 0.7785914 v 4.672623 H 2.6098705 c -0.3180539,4e-5 -0.5759805,0.257966 -0.5759805,0.57602 v 2.707474 c 0,0.318054 0.2579266,0.575981 0.5759805,0.575981 h 0.7785914 v 1.730167 c 0,0.318054 0.2579266,0.575982 0.5759805,0.575982 H 21.818444 c 0.318055,0 0.575979,-0.257928 0.575979,-0.575982 V 3.714853 c 0,-0.3180539 -0.257847,-0.5759807 -0.575979,-0.5759807 z M 3.1858508,6.5947156 H 5.6060502 V 8.1502282 H 3.1858508 Z M 4.5404229,9.302189 H 6.181991 c 0.3180537,0 0.5759804,-0.2579272 0.5759804,-0.5759805 V 6.5947156 H 18.938582 V 16.684551 H 6.7579714 v -2.133758 c 0,-0.318054 -0.2579267,-0.575981 -0.5759804,-0.575981 H 4.5404229 Z m -1.3545721,5.824583 h 0.7774384 c 3.579e-4,0 7.556e-4,4e-5 0.00111,4e-5 3.578e-4,0 7.557e-4,-4e-5 0.00111,-4e-5 h 1.6405007 v 1.555514 H 3.1858508 Z M 21.242462,18.988473 H 4.5404229 V 17.834287 H 6.181991 c 0.00819,0 0.016144,-9.15e-4 0.024177,-0.0013 0.020441,0.0022 0.041118,0.0036 0.062155,0.0036 h 13.246238 c 0.318054,0 0.575981,-0.257926 0.575981,-0.575982 V 6.0187348 c 0,-0.3180538 -0.257927,-0.5759807 -0.575981,-0.5759807 H 6.2683243 c -0.014555,0 -0.028869,0.00114 -0.043186,0.00219 -0.014276,-0.00114 -0.028552,-0.00219 -0.043187,-0.00219 H 4.5404229 V 4.2908327 H 21.242503 Z"
   id="path864" />

<path
   style="fill:#006633;stroke-width:0.0397667"
   d="m 15.710482,13.642958 c 0.850767,-1.195306 0.850767,-2.81357 0,-4.008955 l 0.500503,-0.5005048 c 0.224921,-0.22492 0.224921,-0.5896196 0,-0.8145797 -0.224959,-0.2248413 -0.589579,-0.2248413 -0.81458,0 L 14.896181,8.8191427 C 14.314554,8.4037404 13.620386,8.1789 12.891384,8.1789 c -0.729082,0 -1.423171,0.2248404 -2.004799,0.6402427 L 10.3864,8.3189185 c -0.224919,-0.2248012 -0.5894999,-0.2248413 -0.8145789,0 -0.22492,0.2249201 -0.22492,0.5895796 0,0.8145797 L 10.072323,9.634003 c -0.8507666,1.195306 -0.8507666,2.813609 0,4.008996 l -0.5005019,0.500503 c -0.22492,0.22496 -0.22492,0.58962 0,0.814579 0.1125,0.112425 0.259875,0.168691 0.407291,0.168691 0.1474139,0 0.2948289,-0.05627 0.4072879,-0.168691 l 0.500185,-0.500223 c 0.581628,0.415403 1.275795,0.640243 2.004799,0.640243 0.729081,0 1.42317,-0.224881 2.004797,-0.640243 l 0.500224,0.500223 c 0.112498,0.112425 0.259875,0.168691 0.407251,0.168691 0.147375,0 0.29479,-0.05627 0.40729,-0.168691 0.224921,-0.224919 0.224921,-0.589619 0,-0.814579 z m -4.450765,-0.372652 c -0.899799,-0.899722 -0.899799,-2.36381 0,-3.263531 0.435842,-0.435843 1.015322,-0.6759143 1.631746,-0.6759143 0.616423,0 1.195902,0.2400713 1.631746,0.6759143 0.899799,0.899721 0.899799,2.363809 0,3.263531 -0.435844,0.435841 -1.015323,0.675914 -1.631746,0.675914 -0.616424,0 -1.195904,-0.240073 -1.631746,-0.675914 z"
   id="path868" />
</svg>
