<?xml version="1.0" encoding="UTF-8" standalone="no"?>
<svg
   xmlns:dc="http://purl.org/dc/elements/1.1/"
   xmlns:cc="http://creativecommons.org/ns#"
   xmlns:rdf="http://www.w3.org/1999/02/22-rdf-syntax-ns#"
   xmlns:svg="http://www.w3.org/2000/svg"
   xmlns="http://www.w3.org/2000/svg"
   xmlns:sodipodi="http://sodipodi.sourceforge.net/DTD/sodipodi-0.dtd"
   xmlns:inkscape="http://www.inkscape.org/namespaces/inkscape"
   version="1.1"
   id="Layer_1"
   x="0px"
   y="0px"
   viewBox="0 0 24 24"
   xml:space="preserve"
   sodipodi:docname="bug-svgrepo-com.svg"
   width="24"
   height="24"
   inkscape:version="1.0.2-2 (e86c870879, 2021-01-15)"><metadata
   id="metadata925"><rdf:RDF><cc:Work
       rdf:about=""><dc:format>image/svg+xml</dc:format><dc:type
         rdf:resource="http://purl.org/dc/dcmitype/StillImage" /><dc:title></dc:title></cc:Work></rdf:RDF></metadata><defs
   id="defs923">
		
		
		
	</defs><sodipodi:namedview
   pagecolor="#ffffff"
   bordercolor="#666666"
   borderopacity="1"
   objecttolerance="10"
   gridtolerance="10"
   guidetolerance="10"
   inkscape:pageopacity="0"
   inkscape:pageshadow="2"
   inkscape:window-width="1287"
   inkscape:window-height="698"
   id="namedview921"
   showgrid="false"
   inkscape:zoom="11.935201"
   inkscape:cx="24.530326"
   inkscape:cy="16.138096"
   inkscape:window-x="0"
   inkscape:window-y="0"
   inkscape:window-maximized="0"
   inkscape:current-layer="g888" />
<g
   id="g888">
	<g
   id="g933"
   transform="matrix(0.04597542,0,0,0.04597542,0.75407195,-0.03228733)"><path
     style="opacity:0.15;fill:#006633;fill-opacity:1"
     d="m 269.6,420.35 h -50.2 c -48,0 -86.9,-38.9 -86.9,-86.9 v -143 c 0,-3.9 3.2,-7.1 7.1,-7.1 h 209.8 c 3.9,0 7.1,3.2 7.1,7.1 v 143 c 0,48 -38.9,86.9 -86.9,86.9 z"
     id="path880" /><path
     style="fill:#006633;fill-opacity:1"
     d="m 168.9,135.15 c 0,5 4.1,9.1 9.1,9.1 5,0 9.1,-4.1 9.1,-9.1 0,-31.7 25.8,-57.5 57.5,-57.5 31.7,0 57.5,25.8 57.5,57.5 0,5 4.1,9.1 9.1,9.1 5,0 9.1,-4.1 9.1,-9.1 0,-41.7 -33.9,-75.6 -75.6,-75.6 -41.7,0 -75.8,33.9 -75.8,75.6 z"
     id="path882" /><path
     style="fill:#006633;fill-opacity:1"
     d="M 479.9,274.45 H 365.6 v -37 h 28.9 c 22.2,0 40.4,-18.1 40.4,-40.3 v -45.1 c 0,-5 -4.1,-9.1 -9.1,-9.1 -5,0 -9.1,4.1 -9.1,9.1 v 45.1 c 0,12.3 -10,22.2 -22.2,22.2 h -28.9 v -21.7 c 0,-12.9 -10.5,-23.4 -23.4,-23.4 H 146.8 c -12.9,0 -23.4,10.5 -23.4,23.4 v 21.8 H 94.5 c -12.3,0 -22.2,-10 -22.2,-22.2 v -45.1 c 0,-5 -4.1,-9.1 -9.1,-9.1 -5,0 -9.1,4.1 -9.1,9.1 v 45.1 c 0,22.2 18.1,40.3 40.4,40.3 h 28.9 v 37 H 9.1 c -5,0 -9.1,4.1 -9.1,9.1 0,5 4.1,9.1 9.1,9.1 h 114.3 v 36.7 H 94.5 c -22.2,0 -40.4,18.1 -40.4,40.3 v 45.1 c 0,5 4.1,9.1 9.1,9.1 5,0 9.1,-4.1 9.1,-9.1 v -45.1 c 0,-12.3 10,-22.2 22.2,-22.2 h 30.1 c 7.4,46.4 47.6,81.9 96,81.9 h 47.7 c 48.4,0 88.7,-35.6 96,-81.9 h 30.2 c 12.3,0 22.2,10 22.2,22.2 v 45.1 c 0,5 4.1,9.1 9.1,9.1 5,0 9.1,-4.1 9.1,-9.1 v -45.1 c 0,-22.2 -18.1,-40.3 -40.4,-40.3 h -28.9 v -36.7 h 114.3 c 5,0 9.1,-4.1 9.1,-9.1 -0.1,-5.1 -4.1,-9.2 -9.1,-9.2 z m -338.3,57.7 v -134.5 c 0,-2.9 2.4,-5.3 5.3,-5.3 h 88.6 v 218.9 h -14.8 c -43.7,0 -79.1,-35.5 -79.1,-79.1 z m 126.7,79.1 h -14.8 v -218.9 h 88.6 c 2.9,0 5.3,2.4 5.3,5.3 v 134.5 c 0,43.6 -35.4,79.1 -79.1,79.1 z"
     id="path884" /></g>
</g>
<g
   id="g890">
</g>
<g
   id="g892">
</g>
<g
   id="g894">
</g>
<g
   id="g896">
</g>
<g
   id="g898">
</g>
<g
   id="g900">
</g>
<g
   id="g902">
</g>
<g
   id="g904">
</g>
<g
   id="g906">
</g>
<g
   id="g908">
</g>
<g
   id="g910">
</g>
<g
   id="g912">
</g>
<g
   id="g914">
</g>
<g
   id="g916">
</g>
<g
   id="g918">
</g>
</svg>
