<?xml version="1.0" encoding="UTF-8" standalone="no"?>
<svg
   xmlns:dc="http://purl.org/dc/elements/1.1/"
   xmlns:cc="http://creativecommons.org/ns#"
   xmlns:rdf="http://www.w3.org/1999/02/22-rdf-syntax-ns#"
   xmlns:svg="http://www.w3.org/2000/svg"
   xmlns="http://www.w3.org/2000/svg"
   xmlns:sodipodi="http://sodipodi.sourceforge.net/DTD/sodipodi-0.dtd"
   xmlns:inkscape="http://www.inkscape.org/namespaces/inkscape"
   version="1.1"
   id="Layer_1"
   x="0px"
   y="0px"
   viewBox="0 0 24 24"
   xml:space="preserve"
   sodipodi:docname="clean.svg"
   width="24"
   height="24"
   inkscape:version="1.0.2-2 (e86c870879, 2021-01-15)"><metadata
   id="metadata1035"><rdf:RDF><cc:Work
       rdf:about=""><dc:format>image/svg+xml</dc:format><dc:type
         rdf:resource="http://purl.org/dc/dcmitype/StillImage" /><dc:title></dc:title></cc:Work></rdf:RDF></metadata><defs
   id="defs1033" /><sodipodi:namedview
   pagecolor="#ffffff"
   bordercolor="#666666"
   borderopacity="1"
   objecttolerance="10"
   gridtolerance="10"
   guidetolerance="10"
   inkscape:pageopacity="0"
   inkscape:pageshadow="2"
   inkscape:window-width="1267"
   inkscape:window-height="606"
   id="namedview1031"
   showgrid="false"
   inkscape:zoom="6.671179"
   inkscape:cx="34.141055"
   inkscape:cy="16.207653"
   inkscape:window-x="308"
   inkscape:window-y="125"
   inkscape:window-maximized="0"
   inkscape:current-layer="Layer_1"
   inkscape:document-rotation="0" />
<path
   style="fill:#ff7124;stroke-width:0.0497288"
   d="M 1.9502934,22.216517 H 12.239454 l 5.663781,-9.878202 H 4.9491705 l -4.22156765,7.362848 c -0.62272965,1.086109 0.072005,2.515354 1.22269055,2.515354 z"
   id="path982" />
<polygon
   style="fill:#d9e8e1"
   points="381.137,255.956 501.802,68.461 225.82,68.461 105.156,255.956 "
   id="polygon984"
   transform="matrix(0.0469381,0,0,0.05268544,0.01334445,-1.1468344)" />
<g
   id="g998"
   transform="matrix(0.0469381,0,0,0.05268544,0.01334445,-1.1468344)">
	<path
   style="fill:#006633"
   d="m 6.641,390.189 c -8.282,12.868 -8.85,28.571 -1.521,42.005 7.331,13.433 20.843,21.454 36.146,21.454 h 219.207 c 3.468,0 6.699,-1.763 8.576,-4.679 L 510.378,73.98 c 2.019,-3.138 2.164,-7.128 0.376,-10.403 -1.787,-3.276 -5.221,-5.313 -8.952,-5.313 H 225.82 c -3.468,0 -6.699,1.763 -8.576,4.679 z m 248.267,43.062 H 41.266 c -7.723,0 -14.542,-4.048 -18.241,-10.827 -3.699,-6.779 -3.412,-14.703 0.767,-21.197 L 110.72,266.154 H 362.445 Z M 375.573,245.757 H 123.847 L 231.385,78.66 h 251.726 z"
   id="path986" />
	<path
   style="fill:#006633"
   d="m 352.668,433.34 h -38.449 c -5.633,0 -10.198,4.566 -10.198,10.198 0,5.633 4.566,10.198 10.198,10.198 h 38.449 c 5.633,0 10.198,-4.566 10.198,-10.198 0,-5.632 -4.566,-10.198 -10.198,-10.198 z"
   id="path988" />
	<path
   style="fill:#006633"
   d="m 413.253,433.34 h -17.477 c -5.633,0 -10.198,4.566 -10.198,10.198 0,5.633 4.566,10.198 10.198,10.198 h 17.477 c 5.633,0 10.198,-4.566 10.198,-10.198 10e-4,-5.632 -4.565,-10.198 -10.198,-10.198 z"
   id="path990" />
	<path
   style="fill:#006633"
   d="m 462.917,433.34 h -6.553 c -5.633,0 -10.198,4.566 -10.198,10.198 0,5.633 4.566,10.198 10.198,10.198 h 6.553 c 5.633,0 10.198,-4.566 10.198,-10.198 0,-5.632 -4.566,-10.198 -10.198,-10.198 z"
   id="path992" />
	<path
   style="fill:#006633"
   d="m 110.958,315.734 c 1.73,1.14 3.678,1.685 5.605,1.685 3.313,0 6.564,-1.612 8.524,-4.585 l 3.073,-4.661 c 3.1,-4.702 1.802,-11.028 -2.9,-14.129 -4.702,-3.099 -11.028,-1.802 -14.129,2.9 l -3.073,4.661 c -3.101,4.704 -1.803,11.029 2.9,14.129 z"
   id="path994" />
	<path
   style="fill:#006633"
   d="m 101.443,330.164 c -4.701,-3.101 -11.028,-1.802 -14.128,2.9 l -46.093,69.907 c -3.1,4.702 -1.802,11.028 2.9,14.128 1.729,1.14 3.677,1.685 5.604,1.685 3.313,0 6.564,-1.612 8.524,-4.586 l 46.093,-69.907 c 3.101,-4.701 1.803,-11.027 -2.9,-14.127 z"
   id="path996" />
</g>
<g
   id="g1000">
</g>
<g
   id="g1002">
</g>
<g
   id="g1004">
</g>
<g
   id="g1006">
</g>
<g
   id="g1008">
</g>
<g
   id="g1010">
</g>
<g
   id="g1012">
</g>
<g
   id="g1014">
</g>
<g
   id="g1016">
</g>
<g
   id="g1018">
</g>
<g
   id="g1020">
</g>
<g
   id="g1022">
</g>
<g
   id="g1024">
</g>
<g
   id="g1026">
</g>
<g
   id="g1028">
</g>
</svg>
