<?xml version="1.0" encoding="iso-8859-1"?>
<!-- Generator: Adobe Illustrator 19.0.0, SVG Export Plug-In . SVG Version: 6.00 Build 0)  -->
<svg version="1.1" id="Layer_1" xmlns="http://www.w3.org/2000/svg" xmlns:xlink="http://www.w3.org/1999/xlink" x="0px" y="0px"
	 viewBox="0 0 512.001 512.001" style="enable-background:new 0 0 512.001 512.001;" xml:space="preserve">
<path style="fill:#FF7124;" d="M41.266,443.45h219.207l120.665-187.494H105.156L15.217,395.707
	C1.95,416.322,16.751,443.45,41.266,443.45z"/>
<polygon style="fill:#d9e8e1;" points="225.82,68.461 105.156,255.956 381.137,255.956 501.802,68.461 "/>
<g>
	<path style="fill:#006633;" d="M6.641,390.189c-8.282,12.868-8.85,28.571-1.521,42.005c7.331,13.433,20.843,21.454,36.146,21.454
		h219.207c3.468,0,6.699-1.763,8.576-4.679L510.378,73.98c2.019-3.138,2.164-7.128,0.376-10.403
		c-1.787-3.276-5.221-5.313-8.952-5.313H225.82c-3.468,0-6.699,1.763-8.576,4.679L6.641,390.189z M254.908,433.251H41.266
		c-7.723,0-14.542-4.048-18.241-10.827s-3.412-14.703,0.767-21.197l86.928-135.073h251.725L254.908,433.251z M375.573,245.757
		H123.847L231.385,78.66h251.726L375.573,245.757z"/>
	<path style="fill:#006633;" d="M352.668,433.34h-38.449c-5.633,0-10.198,4.566-10.198,10.198c0,5.633,4.566,10.198,10.198,10.198
		h38.449c5.633,0,10.198-4.566,10.198-10.198C362.866,437.906,358.3,433.34,352.668,433.34z"/>
	<path style="fill:#006633;" d="M413.253,433.34h-17.477c-5.633,0-10.198,4.566-10.198,10.198c0,5.633,4.566,10.198,10.198,10.198
		h17.477c5.633,0,10.198-4.566,10.198-10.198C423.452,437.906,418.886,433.34,413.253,433.34z"/>
	<path style="fill:#006633;" d="M462.917,433.34h-6.553c-5.633,0-10.198,4.566-10.198,10.198c0,5.633,4.566,10.198,10.198,10.198
		h6.553c5.633,0,10.198-4.566,10.198-10.198C473.115,437.906,468.549,433.34,462.917,433.34z"/>
	<path style="fill:#006633;" d="M110.958,315.734c1.73,1.14,3.678,1.685,5.605,1.685c3.313,0,6.564-1.612,8.524-4.585l3.073-4.661
		c3.1-4.702,1.802-11.028-2.9-14.129c-4.702-3.099-11.028-1.802-14.129,2.9l-3.073,4.661
		C104.957,306.309,106.255,312.634,110.958,315.734z"/>
	<path style="fill:#006633;" d="M101.443,330.164c-4.701-3.101-11.028-1.802-14.128,2.9l-46.093,69.907
		c-3.1,4.702-1.802,11.028,2.9,14.128c1.729,1.14,3.677,1.685,5.604,1.685c3.313,0,6.564-1.612,8.524-4.586l46.093-69.907
		C107.444,339.59,106.146,333.264,101.443,330.164z"/>
</g>
<g>
</g>
<g>
</g>
<g>
</g>
<g>
</g>
<g>
</g>
<g>
</g>
<g>
</g>
<g>
</g>
<g>
</g>
<g>
</g>
<g>
</g>
<g>
</g>
<g>
</g>
<g>
</g>
<g>
</g>
</svg>
