<?xml version="1.0" encoding="UTF-8" standalone="no"?>
<svg
   xmlns:dc="http://purl.org/dc/elements/1.1/"
   xmlns:cc="http://creativecommons.org/ns#"
   xmlns:rdf="http://www.w3.org/1999/02/22-rdf-syntax-ns#"
   xmlns:svg="http://www.w3.org/2000/svg"
   xmlns="http://www.w3.org/2000/svg"
   xmlns:sodipodi="http://sodipodi.sourceforge.net/DTD/sodipodi-0.dtd"
   xmlns:inkscape="http://www.inkscape.org/namespaces/inkscape"
   version="1.1"
   id="Capa_1"
   x="0px"
   y="0px"
   width="24"
   height="24"
   viewBox="0 0 24 24"
   xml:space="preserve"
   sodipodi:docname="clean2.svg"
   inkscape:version="1.0.2-2 (e86c870879, 2021-01-15)"><metadata
   id="metadata921"><rdf:RDF><cc:Work
       rdf:about=""><dc:format>image/svg+xml</dc:format><dc:type
         rdf:resource="http://purl.org/dc/dcmitype/StillImage" /><dc:title></dc:title></cc:Work></rdf:RDF></metadata><defs
   id="defs919" /><sodipodi:namedview
   pagecolor="#ffffff"
   bordercolor="#666666"
   borderopacity="1"
   objecttolerance="10"
   gridtolerance="10"
   guidetolerance="10"
   inkscape:pageopacity="0"
   inkscape:pageshadow="2"
   inkscape:window-width="1507"
   inkscape:window-height="743"
   id="namedview917"
   showgrid="false"
   inkscape:zoom="3.6172892"
   inkscape:cx="76.139681"
   inkscape:cy="47.392725"
   inkscape:window-x="213"
   inkscape:window-y="87"
   inkscape:window-maximized="0"
   inkscape:current-layer="g882"
   units="px"
   inkscape:document-rotation="0" />
<g
   id="g884">
	<g
   id="g882">
		
		<g
   id="g925"
   transform="matrix(0.07910751,0,0,0.07910751,-7.6342004,-21.813831)"><path
     d="m 357.24283,282.62568 -4.494,-1.635 c -0.793,-0.286 -1.625,-0.43 -2.457,-0.43 -3.002,0 -5.719,1.894 -6.742,4.714 L 324.891,338.102 c -1.627,-0.201 -3.271,-0.354 -4.916,-0.479 -1.654,-0.124 -3.328,-0.191 -5.001,-0.229 -26.02,-0.641 -53.751,8.874 -74.138,31.537 l 58.485,11.37 4.752,0.928 4.752,0.928 19.011,3.7 4.753,0.928 4.752,0.928 52.25,10.155 c -0.115,-2.113 -0.287,-4.16 -0.555,-6.13 -2.793,-20.626 -17.107,-36.558 -36.5,-45.708 -1.434,-0.68 -2.889,-1.339 -4.379,-1.941 -1.473,-0.593 -2.975,-1.129 -4.486,-1.654 l 17.85783,-50.60932 c 1.347,-3.72 -0.575,-7.841 -4.286,-9.2 z"
     id="path878"
     sodipodi:nodetypes="ccscccccccccccccccccc"
     style="fill:#006633;fill-opacity:1" /><path
     d="M 301.721,400.258 228.3,385.98 c -26.88,43.061 -36.625,96.639 -60.798,123.691 -9.008,10.089 -27.091,34.989 -55.778,39.847 l 156.385,19.125 42.83,-63.753 -18.895,66.68 41.205,5.039 c 0,0 48.5,-95.797 55.596,-159.407 l -62.338,-12.125 z"
     id="path880"
     style="fill:#006633;fill-opacity:1" /></g>
	</g>
</g>
<g
   id="g886">
</g>
<g
   id="g888">
</g>
<g
   id="g890">
</g>
<g
   id="g892">
</g>
<g
   id="g894">
</g>
<g
   id="g896">
</g>
<g
   id="g898">
</g>
<g
   id="g900">
</g>
<g
   id="g902">
</g>
<g
   id="g904">
</g>
<g
   id="g906">
</g>
<g
   id="g908">
</g>
<g
   id="g910">
</g>
<g
   id="g912">
</g>
<g
   id="g914">
</g>
</svg>
