<?xml version="1.0" encoding="UTF-8" standalone="no"?>
<!DOCTYPE svg PUBLIC "-//W3C//DTD SVG 1.1//EN" "http://www.w3.org/Graphics/SVG/1.1/DTD/svg11.dtd">
<svg version="1.1" xmlns="http://www.w3.org/2000/svg" xmlns:xlink="http://www.w3.org/1999/xlink" preserveAspectRatio="xMidYMid meet" viewBox="0 0 640 640" width="32" height="32"><defs><path d="M320 0C144.56 0 44.25 49.11 30.79 99.03C29.81 100.74 29.09 102.61 29.09 104.73C29.09 105.12 29.09 107.05 29.09 110.55L29.09 244.36L29.09 250.18L29.09 256L29.09 384L29.09 389.82L29.09 395.64C29.09 479.42 29.09 525.96 29.09 535.27C29.09 537.16 29.59 538.94 30.45 540.52C44.19 597.48 167.14 640 320 640C472.51 640 595.26 597.66 609.45 540.9C610.39 539.24 610.91 537.32 610.91 535.27C610.91 525.96 610.91 479.42 610.91 395.64L610.91 389.82L610.91 384L610.91 256L610.91 250.18L610.91 244.36L610.91 110.55C610.91 107.05 610.91 105.12 610.91 104.73C610.91 102.61 610.19 100.74 609.21 99.03C595.74 49.11 495.44 0 320 0ZM585.37 399.69C584.9 400.84 584.33 401.99 583.7 403.14C582.92 404.57 582.05 406 581.02 407.44C580.25 408.52 579.37 409.59 578.47 410.66C577.18 412.18 575.8 413.71 574.24 415.22C573.3 416.14 572.26 417.05 571.22 417.97C569.31 419.63 567.32 421.28 565.1 422.92C564.14 423.63 563.12 424.32 562.11 425.02C559.48 426.83 556.73 428.64 553.72 430.41C552.93 430.88 552.08 431.34 551.25 431.8C547.78 433.76 544.16 435.7 540.25 437.59C539.75 437.83 539.23 438.06 538.72 438.3C534.35 440.35 529.79 442.38 524.92 444.33C524.78 444.39 524.64 444.44 524.5 444.5C498.07 455.05 464.27 463.93 424.88 469.75C424.68 469.77 424.48 469.79 424.29 469.83C416.63 470.96 408.77 471.96 400.71 472.84C399.39 472.98 398.01 473.08 396.68 473.22C389.64 473.95 382.52 474.62 375.19 475.16C371.84 475.4 368.33 475.52 364.92 475.73C359.4 476.06 353.94 476.42 348.29 476.61C339.05 476.9 329.62 477.09 320 477.09C310.38 477.09 300.95 476.9 291.7 476.58C286.05 476.38 280.59 476.01 275.07 475.69C271.66 475.5 268.15 475.37 264.8 475.12C257.47 474.59 250.34 473.91 243.3 473.18C241.98 473.04 240.59 472.95 239.28 472.81C231.21 471.92 223.36 470.91 215.7 469.79C215.51 469.77 215.31 469.75 215.11 469.71C175.72 463.9 141.92 455.02 115.49 444.46C115.35 444.42 115.21 444.36 115.07 444.3C110.2 442.34 105.62 440.32 101.27 438.26C100.77 438.02 100.24 437.78 99.74 437.55C95.83 435.67 92.21 433.73 88.74 431.77C87.92 431.3 87.06 430.85 86.27 430.37C83.26 428.6 80.51 426.8 77.88 424.98C76.88 424.29 75.85 423.6 74.89 422.89C72.67 421.25 70.68 419.6 68.77 417.93C67.74 417.02 66.69 416.12 65.75 415.19C64.19 413.67 62.81 412.16 61.52 410.62C60.61 409.55 59.74 408.48 58.97 407.4C57.95 405.97 57.08 404.54 56.29 403.11C55.66 401.95 55.1 400.8 54.62 399.65C54.05 398.24 53.6 396.83 53.27 395.43C52.84 393.58 52.36 391.69 52.36 389.82C52.36 388.5 52.51 387.19 52.72 385.89C53.02 384.13 52.85 382.37 52.36 380.71C52.36 372.07 52.36 302.96 52.36 294.32C52.69 294.62 53.1 294.91 53.43 295.21C55.97 297.45 58.55 299.67 61.46 301.81C105.3 334.96 192.95 360.73 320 360.73C446.51 360.73 533.95 335.17 577.97 302.22C581.48 299.66 584.65 297.02 587.62 294.33C587.63 294.33 587.63 294.33 587.64 294.32C587.64 346.15 587.64 374.95 587.64 380.71C587.15 382.37 586.98 384.13 587.28 385.89C587.5 387.19 587.64 388.5 587.64 389.82C587.64 391.69 587.16 393.58 586.72 395.46C586.39 396.87 585.94 398.27 585.37 399.69ZM587.64 241.07C587.15 242.73 586.98 244.49 587.28 246.25C587.5 247.55 587.64 248.87 587.64 250.18C587.64 252.06 587.16 253.94 586.72 255.83C586.39 257.23 585.94 258.63 585.37 260.05C584.9 261.2 584.33 262.35 583.7 263.51C582.92 264.94 582.05 266.37 581.02 267.8C580.25 268.88 579.37 269.95 578.47 271.02C577.18 272.55 575.8 274.07 574.24 275.58C573.3 276.5 572.26 277.41 571.22 278.33C569.31 279.99 567.32 281.65 565.1 283.29C564.14 284 563.12 284.68 562.11 285.38C559.48 287.2 556.73 289 553.72 290.77C552.93 291.25 552.08 291.7 551.25 292.17C547.78 294.12 544.16 296.06 540.25 297.95C539.75 298.19 539.23 298.43 538.72 298.66C534.35 300.72 529.79 302.74 524.92 304.7C524.78 304.76 524.64 304.8 524.5 304.86C498.07 315.42 464.27 324.29 424.88 330.11C424.68 330.14 424.48 330.16 424.29 330.19C416.63 331.32 408.77 332.32 400.71 333.21C399.39 333.35 398.01 333.44 396.68 333.58C389.64 334.31 382.52 334.99 375.19 335.52C371.84 335.77 368.33 335.88 364.92 336.09C359.4 336.42 353.94 336.78 348.29 336.98C339.05 337.27 329.62 337.45 320 337.45C310.38 337.45 300.95 337.27 291.7 336.94C286.05 336.74 280.59 336.37 275.07 336.06C271.66 335.86 268.15 335.73 264.8 335.49C257.47 334.95 250.34 334.28 243.3 333.54C241.98 333.41 240.59 333.31 239.28 333.17C231.21 332.29 223.36 331.28 215.7 330.16C215.51 330.14 215.31 330.11 215.11 330.08C175.72 324.26 141.92 315.38 115.49 304.83C115.35 304.78 115.21 304.72 115.07 304.66C110.2 302.71 105.62 300.68 101.27 298.62C100.77 298.38 100.24 298.15 99.74 297.91C95.83 296.03 92.21 294.1 88.74 292.13C87.92 291.67 87.06 291.21 86.27 290.73C83.26 288.97 80.51 287.16 77.88 285.35C76.88 284.65 75.85 283.96 74.89 283.25C72.67 281.61 70.68 279.96 68.77 278.3C67.74 277.39 66.69 276.48 65.75 275.55C64.19 274.04 62.81 272.52 61.52 270.99C60.61 269.92 59.74 268.85 58.97 267.76C57.95 266.33 57.08 264.9 56.29 263.47C55.66 262.32 55.1 261.17 54.62 260.01C54.05 258.61 53.6 257.2 53.27 255.79C52.84 253.94 52.36 252.06 52.36 250.18C52.36 248.87 52.51 247.55 52.72 246.25C53.02 244.49 52.85 242.73 52.36 241.07C52.36 232.43 52.36 163.32 52.36 154.68C53.76 155.95 55.35 157.2 56.87 158.45C57.7 159.15 58.48 159.85 59.37 160.55C62.86 163.29 66.63 166 70.71 168.65C71.56 169.19 72.52 169.73 73.4 170.27C76.82 172.4 80.44 174.49 84.25 176.54C85.66 177.29 87.06 178.04 88.52 178.78C92.77 180.95 97.22 183.05 101.91 185.09C102.68 185.43 103.38 185.77 104.16 186.1C109.61 188.42 115.41 190.63 121.44 192.77C123.1 193.36 124.85 193.92 126.56 194.5C131.35 196.12 136.31 197.67 141.44 199.17C143.29 199.7 145.11 200.26 147 200.77C153.81 202.66 160.84 204.45 168.22 206.1C169.23 206.34 170.32 206.52 171.35 206.74C177.85 208.16 184.6 209.48 191.53 210.71C193.89 211.13 196.27 211.53 198.67 211.92C205.27 213 212.06 213.99 219.03 214.9C220.82 215.13 222.53 215.4 224.35 215.62C233.01 216.67 241.97 217.57 251.17 218.33C253.44 218.52 255.8 218.66 258.11 218.82C265.47 219.36 273 219.8 280.7 220.15C283.51 220.28 286.3 220.4 289.16 220.51C299.19 220.85 309.41 221.09 320 221.09C330.59 221.09 340.81 220.85 350.84 220.51C353.69 220.4 356.48 220.28 359.3 220.15C367 219.8 374.53 219.36 381.89 218.82C384.2 218.65 386.55 218.52 388.83 218.33C398.03 217.58 406.99 216.67 415.65 215.62C417.47 215.4 419.18 215.13 420.97 214.9C427.94 213.99 434.72 213 441.33 211.92C443.73 211.53 446.11 211.13 448.47 210.71C455.4 209.48 462.15 208.16 468.65 206.74C469.68 206.52 470.77 206.32 471.78 206.1C479.16 204.45 486.19 202.65 493 200.77C494.89 200.25 496.71 199.7 498.56 199.17C503.69 197.67 508.65 196.12 513.44 194.5C515.15 193.92 516.9 193.36 518.56 192.77C524.59 190.63 530.4 188.42 535.84 186.1C536.62 185.77 537.32 185.43 538.09 185.09C542.78 183.04 547.23 180.95 551.48 178.78C552.94 178.04 554.36 177.29 555.75 176.54C559.56 174.5 563.18 172.42 566.6 170.27C567.48 169.73 568.44 169.19 569.29 168.65C573.37 166 577.14 163.3 580.63 160.55C581.5 159.85 582.28 159.15 583.13 158.45C584.65 157.2 586.24 155.95 587.64 154.68C587.64 171.96 587.64 232.43 587.64 241.07ZM587.64 110.55C587.64 151.83 477.73 197.82 320 197.82C162.27 197.82 52.36 151.83 52.36 110.55C52.36 69.26 162.27 23.27 320 23.27C477.73 23.27 587.64 69.26 587.64 110.55ZM587.26 533.39C580.67 573.64 471.69 616.73 320 616.73C168.31 616.73 59.33 573.64 52.74 533.39C52.64 532.86 52.51 532.35 52.36 531.86C52.36 522.07 52.36 443.75 52.36 433.95C52.69 434.26 53.1 434.55 53.43 434.85C55.97 437.09 58.55 439.31 61.46 441.45C105.3 474.6 192.95 500.36 320 500.36C446.51 500.36 533.95 474.81 577.97 441.86C581.48 439.3 584.65 436.65 587.62 433.97C587.63 433.97 587.63 433.96 587.64 433.95L587.64 531.82C587.45 532.51 587.33 533.03 587.26 533.39Z" id="eixd8vBXr"></path></defs><g><g><g><use xlink:href="#eixd8vBXr" opacity="1" fill="#006633" fill-opacity="1"></use><g><use xlink:href="#eixd8vBXr" opacity="1" fill-opacity="0" stroke="#000000" stroke-width="1" stroke-opacity="0"></use></g></g></g></g></svg>