<?xml version="1.0" encoding="UTF-8" standalone="no"?>
<svg
   xmlns:dc="http://purl.org/dc/elements/1.1/"
   xmlns:cc="http://creativecommons.org/ns#"
   xmlns:rdf="http://www.w3.org/1999/02/22-rdf-syntax-ns#"
   xmlns:svg="http://www.w3.org/2000/svg"
   xmlns="http://www.w3.org/2000/svg"
   xmlns:sodipodi="http://sodipodi.sourceforge.net/DTD/sodipodi-0.dtd"
   xmlns:inkscape="http://www.inkscape.org/namespaces/inkscape"
   width="24px"
   height="24px"
   viewBox="0 0 24 24"
   fill="none"
   version="1.1"
   id="svg866"
   sodipodi:docname="edit_acc.svg"
   inkscape:version="1.0.2-2 (e86c870879, 2021-01-15)">
  <metadata
     id="metadata872">
    <rdf:RDF>
      <cc:Work
         rdf:about="">
        <dc:format>image/svg+xml</dc:format>
        <dc:type
           rdf:resource="http://purl.org/dc/dcmitype/StillImage" />
        <dc:title></dc:title>
      </cc:Work>
    </rdf:RDF>
  </metadata>
  <defs
     id="defs870" />
  <sodipodi:namedview
     pagecolor="#ffffff"
     bordercolor="#666666"
     borderopacity="1"
     objecttolerance="10"
     gridtolerance="10"
     guidetolerance="10"
     inkscape:pageopacity="0"
     inkscape:pageshadow="2"
     inkscape:window-width="1012"
     inkscape:window-height="592"
     id="namedview868"
     showgrid="false"
     showguides="false"
     inkscape:zoom="4.2947797"
     inkscape:cx="-22.171693"
     inkscape:cy="31.782706"
     inkscape:window-x="88"
     inkscape:window-y="133"
     inkscape:window-maximized="0"
     inkscape:current-layer="svg866" />
  <path
     opacity="0.15"
     d="m 13.470031,8.1268469 c 3.194058,1.0546315 5.889806,1.0874197 5.46741,0.1537776 -1.567656,-2.2337617 -3.808432,-3.5385601 -6.020853,-5.0477837 1.338577,6.1304795 0.03938,1.7447223 0.553443,4.8940061 z"
     fill="#006633"
     id="path862"
     sodipodi:nodetypes="cccc" />
  <path
     d="M 5,3 V 2.25 C 4.58579,2.25 4.25,2.58579 4.25,3 Z M 5,21 H 4.25 c 0,0.4142 0.33579,0.75 0.75,0.75 z M 14,3 14.5303,2.46967 C 14.3897,2.32902 14.1989,2.25 14,2.25 Z m 5,5 h 0.75 c 0,-0.19891 -0.079,-0.38968 -0.2197,-0.53033 z M 9.0061922,20.19179 5,20.25 v 1.5 l 4.0061922,0.01 c 0,0 0.4947867,-0.142001 0.4947867,-0.746117 0,-0.654504 -0.4947867,-0.822093 -0.4947867,-0.822093 z M 5.75,21 V 3 H 4.25 V 21 Z M 5,3.75 h 9 V 2.25 H 5 Z m 13.25,4.2088392 0.11642,4.3961758 c 0,0 0.106081,0.507755 0.671038,0.507755 0.607299,0 0.712542,-0.541855 0.712542,-0.541855 V 7.9588392 Z M 13.4697,3.53033 l 5,5 1.0606,-1.06066 -5,-5 z M 12.25,3 v 4 h 1.5 V 3 Z M 15,9.75 h 4 V 8.25 H 15 Z M 12.25,7 c 0,1.51878 1.2312,2.75 2.75,2.75 V 8.25 C 14.3096,8.25 13.75,7.69036 13.75,7 Z"
     fill="#006633"
     id="path864"
     sodipodi:nodetypes="ccccccccccccccccccccscccccccccccccsccccccccccccccccccccccc" />
  <path
     style="fill:#006633;fill-opacity:1;stroke:none;stroke-width:1px;stroke-linecap:butt;stroke-linejoin:miter;stroke-opacity:1;opacity:0.15"
     d="m 11.018245,21.805577 -0.75,-2.75 6.2197,-6.5303 2,2 1.0606,1.0606 -6.2196,6.2197 z"
     id="path1473"
     sodipodi:nodetypes="ccccccc" />
  <path
     d="m 11.018245,19.055577 -0.5303,-0.5303 -0.2197,0.2196 v 0.3107 z m 6,-6 0.5303,-0.5303 c -0.2929,-0.2929 -0.7677,-0.2929 -1.0606,0 z m 2,2 0.5303,0.5303 c 0.2929,-0.2929 0.2929,-0.7677 0,-1.0606 z m -6,6 v 0.75 h 0.3107 l 0.2196,-0.2197 z m -2,0 h -0.75 c 0,0.4142 0.3358,0.75 0.75,0.75 z m 0.5303,-1.4697 6,-6 -1.0606,-1.0606 -6,6 z m 4.9394,-6 2,2 1.0606,-1.0606 -2,-2 z m 2,0.9394 -6,6 1.0606,1.0606 6,-6 z m -5.4697,5.7803 h -2 v 1.5 h 2 z m -1.25,0.75 v -2 h -1.5 v 2 z m 3.2197,-5.9697 2,2 1.0606,-1.0606 -2,-2 z"
     fill="#006633"
     id="path843"
     sodipodi:nodetypes="cccccccccccccccccccccccccccccccccccccccccccccccccccc"
     style="fill:#006633;fill-opacity:1;stroke:none;stroke-opacity:1" />
  <path
     d="m 15.903113,21.849574 3.861886,0.0091 -0.008,-4.224992 c 0,0 -0.181788,-0.401532 -0.6707,-0.409592 -0.48891,-0.0081 -0.740282,0.414192 -0.740282,0.414192 l 0.002,2.662456 -2.444283,-0.0284 c 0,0 -0.64054,0.013 -0.626098,0.799769 0.01444,0.786765 0.62543,0.77747 0.62543,0.77747 z"
     fill="#006633"
     id="path843-4"
     sodipodi:nodetypes="ccczcccccc"
     style="stroke-width:1.12734" />
</svg>
