<?xml version="1.0" encoding="UTF-8" standalone="no"?>
<svg
   xmlns:dc="http://purl.org/dc/elements/1.1/"
   xmlns:cc="http://creativecommons.org/ns#"
   xmlns:rdf="http://www.w3.org/1999/02/22-rdf-syntax-ns#"
   xmlns:svg="http://www.w3.org/2000/svg"
   xmlns="http://www.w3.org/2000/svg"
   xmlns:sodipodi="http://sodipodi.sourceforge.net/DTD/sodipodi-0.dtd"
   xmlns:inkscape="http://www.inkscape.org/namespaces/inkscape"
   version="1.1"
   id="Layer_1"
   x="0px"
   y="0px"
   viewBox="0 0 24 24"
   xml:space="preserve"
   sodipodi:docname="translate-language-svgrepo-com.svg"
   width="24"
   height="24"
   inkscape:version="1.0.2-2 (e86c870879, 2021-01-15)"><metadata
   id="metadata12449"><rdf:RDF><cc:Work
       rdf:about=""><dc:format>image/svg+xml</dc:format><dc:type
         rdf:resource="http://purl.org/dc/dcmitype/StillImage" /><dc:title></dc:title></cc:Work></rdf:RDF></metadata><defs
   id="defs12447" /><sodipodi:namedview
   pagecolor="#ffffff"
   bordercolor="#666666"
   borderopacity="1"
   objecttolerance="10"
   gridtolerance="10"
   guidetolerance="10"
   inkscape:pageopacity="0"
   inkscape:pageshadow="2"
   inkscape:window-width="1193"
   inkscape:window-height="682"
   id="namedview12445"
   showgrid="false"
   inkscape:zoom="5.5268225"
   inkscape:cx="32.724606"
   inkscape:cy="32.161247"
   inkscape:window-x="485"
   inkscape:window-y="55"
   inkscape:window-maximized="0"
   inkscape:current-layer="Layer_1" />
<path
   style="opacity:0.15;fill:#006633;fill-opacity:1;stroke-width:0.0421101"
   d="m 20.540446,6.8908917 h -5.94303 c -0.209961,0 -0.40872,0.093737 -0.542293,0.2559025 -0.133574,0.1617025 -0.187474,0.3749478 -0.147638,0.5806972 l 1.562619,8.0685756 H 9.1042892 c -0.2109291,0 -0.4101094,0.0942 -0.5441457,0.257335 -0.1335736,0.162629 -0.1865473,0.377305 -0.1452795,0.583518 l 1.1248851,5.624342 c 0.068428,0.341681 0.3585668,0.552104 0.6641589,0.565242 h 10.336579 c 1.162828,0 2.109124,-0.946296 2.109124,-2.109122 V 9.0000144 C 22.649568,7.8371881 21.703272,6.8908917 20.540446,6.8908917 Z"
   id="path12404" />
<path
   style="fill:#e6f3ff;stroke-width:0.0421101"
   d="m 20.540446,13.21826 h -2.109123 v -0.703027 c 0,-0.388254 -0.314772,-0.703027 -0.703027,-0.703027 -0.388254,0 -0.703027,0.314773 -0.703027,0.703027 v 0.703027 h -2.109122 c -0.388255,0 -0.703027,0.314773 -0.703027,0.703027 0,0.388254 0.314772,0.703027 0.703027,0.703027 h 0.757222 c 0.134539,0.836389 0.516311,1.470314 1.076037,2.111859 -0.300538,0.292919 -0.590845,0.572781 -0.924315,0.906251 -0.274557,0.274514 -0.274557,0.71966 0,0.994259 0.274516,0.274557 0.719702,0.274557 0.99426,0 0.328205,-0.328163 0.617923,-0.607436 0.908987,-0.891174 0.290643,0.283359 0.580656,0.562927 0.908987,0.891174 0.274516,0.274557 0.719661,0.2746 0.994259,0 0.274558,-0.274557 0.274558,-0.719702 0,-0.994259 -0.333257,-0.33326 -0.623311,-0.612912 -0.924315,-0.906251 0.55977,-0.641503 0.941455,-1.275427 1.076038,-2.111859 h 0.757223 c 0.388255,0 0.703027,-0.314773 0.703027,-0.703027 0,-0.388254 -0.314857,-0.703027 -0.703111,-0.703027 z m -2.81215,2.501673 c -0.308372,-0.367874 -0.511721,-0.70547 -0.616997,-1.095577 h 1.233952 c -0.105275,0.390107 -0.308667,0.727745 -0.616955,1.095577 z"
   id="path12406" />
<path
   style="opacity:0.493548;fill:#006633;fill-opacity:1;stroke-width:0.0421101"
   d="M 16.976969,16.243234 C 16.871526,15.97373 16.61137,15.79611 16.322201,15.79611 H 9.1042892 c -0.2109291,0 -0.4101094,0.0942 -0.5441457,0.257333 -0.1335736,0.16263 -0.1865473,0.377307 -0.1452795,0.583519 l 1.1248851,5.624342 c 0.068428,0.34168 0.3585668,0.552105 0.6641589,0.565243 0.02017,4.62e-4 0.0403,4.62e-4 0.06047,0 0.15606,-0.0071 0.312162,-0.06658 0.441987,-0.186085 l 6.093025,-5.62434 c 0.21274,-0.196402 0.283022,-0.503385 0.177578,-0.772888 z"
   id="path12408" />
<path
   style="fill:#006633;fill-opacity:1;stroke-width:0.0421101"
   d="M 16.322201,17.202163 H 3.1987374 c -1.1630367,0 -2.1091227,-0.946085 -2.1091227,-2.109122 V 3.3756732 c 0,-1.1629946 0.9461281,-2.1091227 2.1091227,-2.1091227 H 13.510009 c 0.33688,0 0.626134,0.2389323 0.690225,0.5693697 l 2.81215,14.5295168 c 0.03983,0.206002 -0.01419,0.419247 -0.147806,0.580865 -0.133654,0.16204 -0.332291,0.255861 -0.542377,0.255861 z"
   id="path12410" />
<path
   style="fill:#e6f3ff;stroke-width:0.0421101"
   d="m 8.1200517,12.046549 c -1.5502384,0 -2.8121495,-1.261912 -2.8121495,-2.8121503 0,-1.5502384 1.2619111,-2.8121495 2.8121495,-2.8121495 0.3803378,0 0.7497269,0.075502 1.0957449,0.2224251 0.3570088,0.1524384 0.523175,0.5657061 0.3707367,0.922757 C 9.434095,7.9230926 9.0221747,8.0906063 8.6637763,7.938168 8.4934834,7.8653597 8.3095047,7.8283029 8.1200096,7.8283029 c -0.7758352,0 -1.4060959,0.6302607 -1.4060959,1.4060958 0,0.7758353 0.6302607,1.4060963 1.4060959,1.4060963 0.5190481,0 0.9735415,-0.282853 1.2179482,-0.7030274 H 8.8230364 c -0.3885912,0 -0.7030268,-0.3144354 -0.7030268,-0.7030268 0,-0.3885912 0.3144356,-0.7030269 0.7030268,-0.7030269 h 1.4060956 c 0.388592,0 0.703027,0.3144357 0.703027,0.7030269 4.2e-5,1.5501542 -1.261869,2.8121082 -2.8121073,2.8121082 z"
   id="path12412" />
<g
   id="g12414"
   transform="matrix(0.04211002,0,0,0.04211002,1.0894463,1.2665505)">
</g>
<g
   id="g12416"
   transform="matrix(0.04211002,0,0,0.04211002,1.0894463,1.2665505)">
</g>
<g
   id="g12418"
   transform="matrix(0.04211002,0,0,0.04211002,1.0894463,1.2665505)">
</g>
<g
   id="g12420"
   transform="matrix(0.04211002,0,0,0.04211002,1.0894463,1.2665505)">
</g>
<g
   id="g12422"
   transform="matrix(0.04211002,0,0,0.04211002,1.0894463,1.2665505)">
</g>
<g
   id="g12424"
   transform="matrix(0.04211002,0,0,0.04211002,1.0894463,1.2665505)">
</g>
<g
   id="g12426"
   transform="matrix(0.04211002,0,0,0.04211002,1.0894463,1.2665505)">
</g>
<g
   id="g12428"
   transform="matrix(0.04211002,0,0,0.04211002,1.0894463,1.2665505)">
</g>
<g
   id="g12430"
   transform="matrix(0.04211002,0,0,0.04211002,1.0894463,1.2665505)">
</g>
<g
   id="g12432"
   transform="matrix(0.04211002,0,0,0.04211002,1.0894463,1.2665505)">
</g>
<g
   id="g12434"
   transform="matrix(0.04211002,0,0,0.04211002,1.0894463,1.2665505)">
</g>
<g
   id="g12436"
   transform="matrix(0.04211002,0,0,0.04211002,1.0894463,1.2665505)">
</g>
<g
   id="g12438"
   transform="matrix(0.04211002,0,0,0.04211002,1.0894463,1.2665505)">
</g>
<g
   id="g12440"
   transform="matrix(0.04211002,0,0,0.04211002,1.0894463,1.2665505)">
</g>
<g
   id="g12442"
   transform="matrix(0.04211002,0,0,0.04211002,1.0894463,1.2665505)">
</g>
</svg>
