<?xml version="1.0" encoding="iso-8859-1"?>
<!-- Generator: Adobe Illustrator 19.0.0, SVG Export Plug-In . SVG Version: 6.00 Build 0)  -->
<svg version="1.1" id="Layer_1" xmlns="http://www.w3.org/2000/svg" xmlns:xlink="http://www.w3.org/1999/xlink" x="0px" y="0px"
	 viewBox="0 0 392.485 392.485" style="enable-background:new 0 0 392.485 392.485;" xml:space="preserve">
<path style="fill:#FFC10D;" d="M219.636,286.19c-49.455,16.614-90.053-4.461-110.933-25.406
	c-26.764-26.764-37.43-66.327-27.798-103.111l0,0c2.069-8.21,12.283-10.925,18.23-4.913l42.796,42.796l46.222-7.176l7.176-46.222
	l-42.796-42.796c-5.947-5.947-3.168-16.162,4.913-18.23c36.848-9.568,76.347,1.099,103.111,27.798
	c29.996,29.996,38.4,73.309,25.406,110.933l17.648,17.325c3.232-7.176,5.818-14.545,7.628-22.044c0.84-3.62,3.556-6.594,7.046-7.758
	l29.414-10.15v-25.212l-29.414-10.02c-3.556-1.228-6.206-4.202-7.046-7.758c-3.168-13.188-8.404-25.729-15.515-37.43
	c-1.939-3.168-2.133-7.111-0.517-10.537l13.576-27.992l-17.778-17.778l-27.992,13.576c-3.297,1.616-7.24,1.487-10.537-0.517
	c-11.572-7.111-24.178-12.283-37.43-15.515c-3.62-0.84-6.594-3.556-7.758-7.046l-10.02-29.285h-25.212l-10.15,29.414
	c-1.228,3.556-4.202,6.206-7.758,7.046c-13.188,3.168-25.794,8.404-37.43,15.515c-3.168,1.939-7.111,2.133-10.537,0.517
	L78.19,60.509L60.412,78.287l13.576,27.992c1.616,3.297,1.487,7.24-0.517,10.537c-7.111,11.572-12.283,24.178-15.451,37.43
	c-0.84,3.62-3.556,6.594-7.046,7.758l-29.414,10.15v25.212l29.414,10.15c3.556,1.228,6.206,4.202,7.046,7.758
	c3.168,13.188,8.339,25.729,15.515,37.301c1.939,3.168,2.133,7.111,0.517,10.537l-13.576,27.992l17.778,17.778l27.992-13.576
	c3.297-1.616,7.24-1.487,10.537,0.517c11.572,7.111,24.178,12.347,37.43,15.515c3.62,0.84,6.594,3.556,7.758,7.046l10.15,29.414
	h25.212l10.15-29.414c1.228-3.556,4.202-6.206,7.758-7.046c7.499-1.745,14.869-4.396,22.044-7.564L219.636,286.19z"/>
<path style="fill:#FFFFFF;" d="M130.489,214.82l-31.224-31.224c-0.323,22.885,8.469,45.253,24.889,61.737
	c33.358,33.358,87.725,33.358,121.083,0s33.358-87.725,0-121.083c-16.356-16.356-39.046-25.083-61.737-24.889l31.224,31.224
	c2.457,2.457,3.62,5.947,3.103,9.374l-9.309,59.539c-0.711,4.719-4.396,8.339-9.115,9.115l-59.604,9.244
	C136.436,218.44,132.945,217.277,130.489,214.82z"/>
<path style="fill:#56ACE0;" d="M276.202,240.808c-4.331,7.111-9.438,13.834-15.58,19.911c-6.077,6.077-12.929,11.313-19.911,15.58
	l31.354,31.354l18.683-18.683c4.267-4.267,11.119-4.267,15.451,0c4.267,4.267,4.267,11.119,0,15.451l-18.683,18.683l10.99,10.99
	l7.564-7.564c4.267-4.267,11.119-4.267,15.451,0c4.267,4.267,4.267,11.119,0,15.451l-7.564,7.564l13.899,13.899
	c9.826,9.826,25.729,9.826,35.556,0s9.826-25.729,0-35.556L276.202,240.808z"/>
<path style="fill:#194F82;" d="M378.667,312.436l-58.699-58.699c4.59-8.857,8.21-18.036,10.925-27.41l31.289-10.796
	c4.396-1.552,7.37-5.624,7.37-10.279v-40.727c0-4.655-2.909-8.792-7.37-10.279l-31.289-10.796
	c-3.232-11.378-7.758-22.238-13.511-32.582l14.481-29.737c2.004-4.202,1.228-9.18-2.069-12.541l-28.897-28.962
	c-3.297-3.297-8.275-4.073-12.541-2.069L258.618,52.04c-10.214-5.624-21.075-10.214-32.453-13.382L215.37,7.37
	C213.818,2.974,209.745,0,205.091,0h-40.727c-4.655,0-8.792,2.909-10.279,7.37l-10.796,31.289
	c-11.378,3.232-22.238,7.758-32.582,13.511L80.97,37.689c-4.202-2.004-9.18-1.164-12.541,2.069L39.661,68.525
	c-3.297,3.297-4.073,8.275-2.069,12.541l14.481,29.737c-5.689,10.279-10.279,21.204-13.446,32.517L7.402,154.117
	c-4.396,1.552-7.37,5.624-7.37,10.279v40.727c0,4.655,2.909,8.792,7.37,10.279l31.224,10.796
	c3.232,11.378,7.758,22.238,13.511,32.582l-14.481,29.737c-2.004,4.202-1.228,9.18,2.069,12.541l28.832,28.832
	c3.297,3.297,8.275,4.073,12.541,2.069l29.737-14.481c10.343,5.818,21.269,10.279,32.582,13.511l10.796,31.289
	c1.552,4.396,5.624,7.37,10.279,7.37h40.727c4.655,0,8.792-2.909,10.279-7.37l10.796-31.289c9.438-2.715,18.554-6.335,27.41-10.925
	l58.699,58.699c18.295,18.295,48.032,18.295,66.392,0C397.026,360.469,397.026,330.731,378.667,312.436z M363.216,363.313
	c-9.826,9.826-25.729,9.826-35.556,0l-13.899-13.899l7.564-7.564c4.267-4.267,4.267-11.119,0-15.451
	c-4.267-4.267-11.119-4.267-15.451,0l-7.564,7.564l-10.99-10.99l18.683-18.683c4.267-4.267,4.267-11.119,0-15.451
	c-4.267-4.267-11.119-4.267-15.451,0l-18.683,18.683l-31.354-31.354c7.111-4.331,13.834-9.438,19.911-15.58
	c6.077-6.077,11.313-12.929,15.58-19.911l87.079,87.014C373.107,337.584,373.107,353.487,363.216,363.313z M207.483,318.384
	l-10.214,29.35h-25.212l-10.15-29.35c-1.228-3.556-4.202-6.206-7.758-7.046c-13.188-3.168-25.729-8.339-37.43-15.515
	c-3.168-1.939-7.111-2.133-10.537-0.517L78.19,308.881l-17.778-17.778l13.576-27.992c1.616-3.297,1.487-7.24-0.517-10.537
	c-7.111-11.572-12.347-24.178-15.515-37.301c-0.84-3.62-3.556-6.594-7.046-7.758L21.624,197.43v-25.212l29.414-10.149
	c3.556-1.228,6.206-4.202,7.046-7.758c3.168-13.188,8.339-25.729,15.451-37.43c1.939-3.168,2.133-7.111,0.517-10.537L60.477,78.352
	l17.778-17.778l27.992,13.705c3.297,1.616,7.37,1.487,10.537-0.517c11.572-7.111,24.178-12.283,37.43-15.515
	c3.62-0.84,6.594-3.556,7.758-7.046l10.15-29.414h25.212l10.15,29.414c1.228,3.556,4.202,6.206,7.758,7.046
	c13.188,3.168,25.794,8.404,37.43,15.515c3.168,1.939,7.111,2.133,10.537,0.517L291.2,60.703l17.455,17.907l-13.576,27.992
	c-1.616,3.297-1.487,7.24,0.517,10.537c7.111,11.572,12.283,24.178,15.515,37.43c0.84,3.62,3.556,6.594,7.046,7.758l29.414,10.15
	v25.212l-29.35,10.02c-3.556,1.228-6.206,4.202-7.046,7.758c-1.745,7.499-4.396,14.869-7.628,22.044l-17.455-17.455
	c12.929-37.624,4.461-81.002-25.406-110.933c-26.764-26.764-66.327-37.43-103.111-27.798c-8.21,2.069-10.925,12.283-4.913,18.23
	l42.796,42.796l-7.176,46.222l-46.222,7.176l-42.796-42.796c-5.947-5.947-16.162-3.168-18.23,4.913l0,0
	c-9.568,36.848,1.099,76.347,27.798,103.111c20.945,20.945,61.608,42.02,110.933,25.406l17.455,17.455
	c-7.176,3.232-14.545,5.818-22.044,7.564C211.555,312.178,208.582,314.828,207.483,318.384z M208.517,199.499l9.244-59.604
	c0.517-3.491-0.646-6.982-3.103-9.374l-31.224-31.224c22.691-0.259,45.382,8.469,61.737,24.889
	c33.358,33.358,33.358,87.725,0,121.083s-87.725,33.358-121.083,0c-16.356-16.356-25.212-38.853-24.889-61.737l31.224,31.224
	c2.457,2.457,5.947,3.62,9.374,3.103l59.604-9.244C204.057,207.838,207.741,204.154,208.517,199.499z"/>
<g>
</g>
<g>
</g>
<g>
</g>
<g>
</g>
<g>
</g>
<g>
</g>
<g>
</g>
<g>
</g>
<g>
</g>
<g>
</g>
<g>
</g>
<g>
</g>
<g>
</g>
<g>
</g>
<g>
</g>
</svg>
