<?xml version="1.0" encoding="UTF-8" standalone="no"?>
<svg
   xmlns:dc="http://purl.org/dc/elements/1.1/"
   xmlns:cc="http://creativecommons.org/ns#"
   xmlns:rdf="http://www.w3.org/1999/02/22-rdf-syntax-ns#"
   xmlns:svg="http://www.w3.org/2000/svg"
   xmlns="http://www.w3.org/2000/svg"
   xmlns:sodipodi="http://sodipodi.sourceforge.net/DTD/sodipodi-0.dtd"
   xmlns:inkscape="http://www.inkscape.org/namespaces/inkscape"
   version="1.1"
   id="Capa_1"
   x="0px"
   y="0px"
   width="24"
   height="24"
   viewBox="0 0 23.999999 24.000001"
   xml:space="preserve"
   sodipodi:docname="three-circles-of-different-sizes-one-inside-other-svgrepo-com.svg"
   inkscape:version="1.0.2-2 (e86c870879, 2021-01-15)"><metadata
   id="metadata1533"><rdf:RDF><cc:Work
       rdf:about=""><dc:format>image/svg+xml</dc:format><dc:type
         rdf:resource="http://purl.org/dc/dcmitype/StillImage" /><dc:title></dc:title></cc:Work></rdf:RDF></metadata><defs
   id="defs1531" /><sodipodi:namedview
   pagecolor="#ffffff"
   bordercolor="#666666"
   borderopacity="1"
   objecttolerance="10"
   gridtolerance="10"
   guidetolerance="10"
   inkscape:pageopacity="0"
   inkscape:pageshadow="2"
   inkscape:window-width="1103"
   inkscape:window-height="551"
   id="namedview1529"
   showgrid="false"
   inkscape:zoom="9.7678239"
   inkscape:cx="13.267767"
   inkscape:cy="17.241304"
   inkscape:window-x="125"
   inkscape:window-y="202"
   inkscape:window-maximized="0"
   inkscape:current-layer="Capa_1" />
    <path
   d="m 22.044676,11.867325 c 0,-5.2980063 -4.310274,-9.6083124 -9.60828,-9.6083124 -5.2978798,0 -9.6081859,4.3103061 -9.6081859,9.6083124 0,4.643977 3.3119811,8.52853 7.6978949,9.416749 0.609158,0.165855 1.249273,0.255977 1.910291,0.255977 0.660986,0 1.300975,-0.09013 1.910101,-0.255977 4.386072,-0.888219 7.698179,-4.772772 7.698179,-9.416749 z M 5.2938396,15.674785 C 4.6860412,14.539191 4.3401328,13.243022 4.3401328,11.867483 c 0,-4.4643665 3.6318967,-8.0964213 8.0962632,-8.0964213 4.464366,0 8.096389,3.6318967 8.096389,8.0964213 0,1.375824 -0.345908,2.672024 -0.953833,3.807744 0.09085,-0.458544 0.139389,-0.932109 0.139389,-1.416962 0,-4.015309 -3.266669,-7.281945 -7.281945,-7.281945 -4.0153085,0 -7.2819442,3.266636 -7.2819442,7.281945 -3.17e-5,0.484569 0.048665,0.957944 0.1393878,1.41652 z m 7.1425564,4.27293 c -1.483021,0 -2.6895421,-1.20649 -2.6895421,-2.689701 0,-1.482989 1.2064901,-2.68951 2.6895421,-2.68951 1.483147,0 2.689669,1.206489 2.689669,2.68951 -3.2e-5,1.483053 -1.206522,2.689701 -2.689669,2.689701 z M 16.490599,18.3593 c 0.09553,-0.35119 0.147356,-0.720277 0.147356,-1.101254 0,-2.316724 -1.884867,-4.201433 -4.201559,-4.201433 -2.316692,0 -4.2014332,1.884583 -4.2014332,4.201401 0,0.381167 0.052018,0.750222 0.1474199,1.101443 -1.0586589,-1.046706 -1.7160084,-2.498452 -1.7160084,-4.101192 0,-3.181669 2.5883846,-5.7700539 5.7700527,-5.7700539 3.181638,0 5.770053,2.5883849 5.770053,5.7700539 -6.3e-5,1.602645 -0.657318,3.05436 -1.715881,4.101035 z"
   id="path1526"
   style="stroke-width:0.0316215;fill:#006633;fill-opacity:1" />
</svg>
