<?xml version="1.0" encoding="UTF-8" standalone="no"?>
<svg
   xmlns:dc="http://purl.org/dc/elements/1.1/"
   xmlns:cc="http://creativecommons.org/ns#"
   xmlns:rdf="http://www.w3.org/1999/02/22-rdf-syntax-ns#"
   xmlns:svg="http://www.w3.org/2000/svg"
   xmlns="http://www.w3.org/2000/svg"
   xmlns:sodipodi="http://sodipodi.sourceforge.net/DTD/sodipodi-0.dtd"
   xmlns:inkscape="http://www.inkscape.org/namespaces/inkscape"
   width="24"
   height="24"
   viewBox="-23 0 24 24"
   preserveAspectRatio="xMidYMid"
   version="1.1"
   id="svg857"
   sodipodi:docname="paypal-icon-logo-svgrepo-com.svg"
   inkscape:version="1.0.2-2 (e86c870879, 2021-01-15)">
  <metadata
     id="metadata863">
    <rdf:RDF>
      <cc:Work
         rdf:about="">
        <dc:format>image/svg+xml</dc:format>
        <dc:type
           rdf:resource="http://purl.org/dc/dcmitype/StillImage" />
        <dc:title></dc:title>
      </cc:Work>
    </rdf:RDF>
  </metadata>
  <defs
     id="defs861" />
  <sodipodi:namedview
     pagecolor="#ffffff"
     bordercolor="#666666"
     borderopacity="1"
     objecttolerance="10"
     gridtolerance="10"
     guidetolerance="10"
     inkscape:pageopacity="0"
     inkscape:pageshadow="2"
     inkscape:window-width="1240"
     inkscape:window-height="743"
     id="namedview859"
     showgrid="false"
     inkscape:zoom="7.4149349"
     inkscape:cx="32.532266"
     inkscape:cy="35.451998"
     inkscape:window-x="0"
     inkscape:window-y="0"
     inkscape:window-maximized="0"
     inkscape:current-layer="svg857" />
  <path
     d="m -4.2664689,3.3400021 c -0.970217,-1.1058546 -2.724043,-1.5799614 -4.967712,-1.5799614 h -6.5117451 a 0.93254696,0.93254696 0 0 0 -0.920988,0.7863948 l -2.71137,17.1961715 c -0.05389,0.339096 0.208679,0.646162 0.55237,0.646162 h 4.020125 l 1.009627,-6.403889 -0.03133,0.200533 c 0.07193,-0.452661 0.459067,-0.786534 0.917507,-0.786534 h 1.910353 c 3.7528871,0 6.6914581,-1.524328 7.5498491,-5.9338902 0.02549,-0.1304159 0.04756,-0.2573503 0.06664,-0.3813604 -0.108344,-0.057375 -0.108344,-0.057375 0,0 0.255609,-1.629816 -0.0017,-2.7392218 -0.883319,-3.7436263"
     fill="#27346a"
     id="path849"
     style="stroke-width:0.0696294" />
  <path
     d="m -12.257909,6.4965131 a 0.81724063,0.81724063 0 0 1 0.351838,-0.079378 h 5.1050901 c 0.604523,0 1.168382,0.039341 1.68364,0.1222693 a 7.0743502,7.0743502 0 0 1 0.430101,0.082302 6.2616354,6.2616354 0 0 1 0.598117,0.1634203 c 0.253312,0.0846 0.489216,0.1831254 0.706042,0.2985013 0.25554,-1.6304423 -0.00181,-2.7392214 -0.883388,-3.7436259 -0.970774,-1.1058546 -2.724043,-1.5799614 -4.967712,-1.5799614 h -6.5123021 c -0.458509,0 -0.848573,0.3338035 -0.920431,0.7863948 l -2.71137,17.1955455 c -0.05389,0.339652 0.208679,0.6463 0.551813,0.6463 h 4.020682 l 2.094662,-13.2832067 a 0.81584804,0.81584804 0 0 1 0.453218,-0.6085612 z"
     fill="#27346a"
     id="path851"
     style="stroke-width:0.0696294" />
  <path
     d="m -3.4497859,7.4649888 c -0.858391,4.4089362 -3.796893,5.9338902 -7.5498491,5.9338902 h -1.91091 c -0.458441,0 -0.84565,0.333873 -0.916881,0.786534 l -1.256045,7.962473 c -0.04693,0.296761 0.182568,0.56567 0.48281,0.56567 h 3.388865 a 0.81536063,0.81536063 0 0 0 0.805125,-0.687939 l 0.033,-0.172681 0.6387107,-4.047976 0.041151,-0.22372 a 0.81536063,0.81536063 0 0 1 0.8050554,-0.687939 h 0.507181 c 3.282819,0 5.853329,-1.333682 6.604491,-5.190874 0.313541,-1.611921 0.151305,-2.9577189 -0.678121,-3.903008 -0.251571,-0.2863162 -0.563998,-0.5227778 -0.927951,-0.7157906 -0.01971,0.1246367 -0.04108,0.2509445 -0.06664,0.3813604 z"
     fill="#2790c3"
     id="path853"
     style="stroke-width:0.0696294" />
  <path
     d="m -4.2815089,6.7254547 a 6.2616354,6.2616354 0 0 0 -0.405104,-0.1037479 7.6525529,7.6525529 0 0 0 -0.430101,-0.081745 c -0.515815,-0.083486 -1.079257,-0.122896 -1.684336,-0.122896 h -5.1044641 a 0.80561251,0.80561251 0 0 0 -0.351838,0.080004 0.81348064,0.81348064 0 0 0 -0.453287,0.6085613 l -1.084966,6.8792489 -0.03133,0.200533 c 0.07137,-0.452661 0.45851,-0.786534 0.917019,-0.786534 h 1.910911 c 3.7528861,0 6.6913881,-1.524328 7.5497791,-5.9338905 0.02555,-0.1304159 0.047,-0.2567933 0.06671,-0.3813604 -0.217388,-0.1147493 -0.452666,-0.2139016 -0.706047,-0.2979443 a 5.7973464,5.7973464 0 0 0 -0.192874,-0.060229"
     fill="#1f264f"
     id="path855"
     style="stroke-width:0.0696294" />
</svg>
