<?xml version="1.0" encoding="iso-8859-1"?>
<!-- Generator: Adobe Illustrator 19.0.0, SVG Export Plug-In . SVG Version: 6.00 Build 0)  -->
<svg version="1.1" id="Layer_1" xmlns="http://www.w3.org/2000/svg" xmlns:xlink="http://www.w3.org/1999/xlink" x="0px" y="0px"
	 viewBox="0 0 392.533 392.533" style="enable-background:new 0 0 392.533 392.533;" xml:space="preserve">
<path style="fill:#56ACE0;" d="M327.111,80.808l-112.356,112.42l142.481,70.594c8.986-21.333,13.511-44.024,13.511-67.491
	C370.747,153.277,355.297,112.743,327.111,80.808z"/>
<g>
	<path style="fill:#FFFFFF;" d="M207.192,22.174V170.02L311.725,65.487C282.505,39.628,246.044,24.501,207.192,22.174z"/>
	<path style="fill:#FFFFFF;" d="M347.475,283.281l-156.057-77.253c-3.685-1.875-6.077-5.624-6.077-9.762V22.174
		C94.19,27.798,21.786,103.693,21.786,196.267c0,96.194,78.287,174.481,174.481,174.481
		C259.426,370.747,316.38,337.519,347.475,283.281z"/>
</g>
<path style="fill:#194F82;" d="M196.267,0C87.855,0,0,87.855,0,196.267s87.855,196.267,196.267,196.267
	s196.267-87.855,196.267-196.267S304.679,0,196.267,0z M21.786,196.267c0-92.574,72.404-168.469,163.556-174.093v174.093
	c0,4.202,2.327,7.952,6.077,9.762l156.121,77.253c-31.16,54.238-88.113,87.467-151.208,87.467
	C100.073,370.747,21.786,292.461,21.786,196.267z M207.192,22.174c38.853,2.392,75.313,17.455,104.533,43.248L207.192,169.891
	V22.174z M214.756,193.228L327.111,80.873c28.186,31.935,43.636,72.469,43.636,115.459c0,23.467-4.59,46.158-13.511,67.491
	L214.756,193.228z"/>
<path style="fill:#FFC10D;" d="M163.556,216.372V46.869c-22.432,4.913-42.861,14.869-60.509,28.444h19.523
	c6.012,0,10.925,4.848,10.925,10.925c0,6.012-4.848,10.925-10.925,10.925H80.226c-5.689,6.723-10.99,13.964-15.451,21.657
	l26.764,0.129c6.012,0,10.925,4.913,10.796,10.99c0,6.012-4.978,10.796-10.925,10.796h-0.065l-37.107-0.259
	c-6.723,17.261-10.602,35.943-10.602,55.531c0,84.17,68.461,152.695,152.695,152.695c47.192,0,90.57-21.333,119.143-57.212
	L163.556,216.372z"/>
<g>
</g>
<g>
</g>
<g>
</g>
<g>
</g>
<g>
</g>
<g>
</g>
<g>
</g>
<g>
</g>
<g>
</g>
<g>
</g>
<g>
</g>
<g>
</g>
<g>
</g>
<g>
</g>
<g>
</g>
</svg>
