<?xml version="1.0" encoding="UTF-8" standalone="no"?>
<svg
   xmlns:dc="http://purl.org/dc/elements/1.1/"
   xmlns:cc="http://creativecommons.org/ns#"
   xmlns:rdf="http://www.w3.org/1999/02/22-rdf-syntax-ns#"
   xmlns:svg="http://www.w3.org/2000/svg"
   xmlns="http://www.w3.org/2000/svg"
   xmlns:sodipodi="http://sodipodi.sourceforge.net/DTD/sodipodi-0.dtd"
   xmlns:inkscape="http://www.inkscape.org/namespaces/inkscape"
   version="1.1"
   id="Layer_1"
   x="0px"
   y="0px"
   viewBox="0 0 24 24"
   xml:space="preserve"
   sodipodi:docname="safe.svg"
   width="24"
   height="24"
   inkscape:version="1.0.2-2 (e86c870879, 2021-01-15)"><metadata
   id="metadata901"><rdf:RDF><cc:Work
       rdf:about=""><dc:format>image/svg+xml</dc:format><dc:type
         rdf:resource="http://purl.org/dc/dcmitype/StillImage" /><dc:title></dc:title></cc:Work></rdf:RDF></metadata><defs
   id="defs899" /><sodipodi:namedview
   pagecolor="#ffffff"
   bordercolor="#666666"
   borderopacity="1"
   objecttolerance="10"
   gridtolerance="10"
   guidetolerance="10"
   inkscape:pageopacity="0"
   inkscape:pageshadow="2"
   inkscape:window-width="1459"
   inkscape:window-height="752"
   id="namedview897"
   showgrid="false"
   inkscape:zoom="4.4423578"
   inkscape:cx="-34.154552"
   inkscape:cy="4.3577332"
   inkscape:window-x="0"
   inkscape:window-y="0"
   inkscape:window-maximized="0"
   inkscape:current-layer="Layer_1" />
<g
   id="g874"
   transform="matrix(0.03873725,0,0,0.03873725,2.138504,2.6309836)">
	<path
   style="fill:#006633"
   d="M 462.392,477.531 H 49.607 C 22.254,477.531 0,455.277 0,427.924 V 84.075 C 0,56.722 22.254,34.468 49.607,34.468 h 270.89 c 7.799,0 14.124,6.323 14.124,14.124 0,7.801 -6.325,14.124 -14.124,14.124 H 49.607 c -11.777,0 -21.359,9.58 -21.359,21.359 v 343.849 c 0,11.777 9.582,21.359 21.359,21.359 h 412.785 c 11.777,0 21.359,-9.582 21.359,-21.359 V 84.075 c 0,-11.777 -9.582,-21.359 -21.359,-21.359 h -60.567 c -7.799,0 -14.124,-6.323 -14.124,-14.124 0,-7.801 6.325,-14.124 14.124,-14.124 h 60.567 c 27.353,0 49.607,22.254 49.607,49.607 v 343.849 c 10e-4,27.353 -22.253,49.607 -49.607,49.607 z"
   id="path868" />
	<path
   style="fill:#006633"
   d="M 411.687,415.309 H 138.569 c -7.801,0 -14.124,-6.323 -14.124,-14.124 0,-7.801 6.323,-14.124 14.124,-14.124 h 273.118 c 5.428,0 9.843,-4.415 9.843,-9.843 V 134.781 c 0,-5.428 -4.415,-9.843 -9.843,-9.843 H 138.569 c -7.801,0 -14.124,-6.323 -14.124,-14.124 0,-7.801 6.323,-14.124 14.124,-14.124 h 273.118 c 21.003,0 38.091,17.087 38.091,38.091 v 242.437 c 10e-4,21.004 -17.088,38.091 -38.091,38.091 z"
   id="path870" />
	<path
   style="fill:#006633"
   d="m 76.345,415.309 c -7.801,0 -14.124,-6.323 -14.124,-14.124 V 110.813 c 0,-7.801 6.323,-14.124 14.124,-14.124 7.801,0 14.124,6.323 14.124,14.124 v 290.372 c 0.001,7.801 -6.323,14.124 -14.124,14.124 z"
   id="path872" />
</g>
<path
   style="fill:#006633;stroke-width:0.0387373"
   opacity="0.15"
   d="m 14.770993,8.7366726 c -2.10475,0 -3.811009,1.7062214 -3.811009,3.8110094 0,2.104789 1.706221,3.81101 3.811009,3.81101 2.104789,0 3.81101,-1.706221 3.81101,-3.81101 0,-2.104788 -1.706221,-3.8110094 -3.81101,-3.8110094 z m 0,5.2366564 c -0.787373,0 -1.425647,-0.638273 -1.425647,-1.425647 0,-0.787373 0.638274,-1.425647 1.425647,-1.425647 0.787374,0 1.425647,0.638274 1.425647,1.425647 3.9e-5,0.787374 -0.638235,1.425647 -1.425647,1.425647 z"
   id="path876" />
<path
   style="fill:#006633;stroke-width:0.0387373"
   d="m 14.770993,16.905856 c -2.403104,0 -4.358134,-1.955069 -4.358134,-4.358135 0,-2.403065 1.95503,-4.3581354 4.358134,-4.3581354 2.403105,0 4.358135,1.9550704 4.358135,4.3581354 0,2.403066 -1.954992,4.358135 -4.358135,4.358135 z m 0,-7.6220584 c -1.799732,0 -3.263846,1.4641904 -3.263846,3.2638464 0,1.799655 1.464191,3.263846 3.263846,3.263846 1.799656,0 3.263846,-1.464191 3.263846,-3.263846 0,-1.799656 -1.464074,-3.2638464 -3.263846,-3.2638464 z m 0,5.2366564 c -1.087819,0 -1.97281,-0.884991 -1.97281,-1.97281 0,-1.08782 0.884991,-1.972811 1.97281,-1.972811 1.08782,0 1.972811,0.884991 1.972811,1.972811 0,1.087819 -0.884991,1.97281 -1.972811,1.97281 z m 0,-2.851333 c -0.484448,0 -0.878522,0.394113 -0.878522,0.878523 0,0.484409 0.394113,0.878522 0.878522,0.878522 0.48441,0 0.878522,-0.394113 0.878522,-0.878522 3.9e-5,-0.48441 -0.394074,-0.878523 -0.878522,-0.878523 z"
   id="path878" />
<rect
   x="5.0957446"
   y="14.58414"
   style="fill:#006633;stroke-width:0.0387373"
   opacity="0.15"
   width="2.4101157"
   height="1.7708348"
   id="rect880" />
<path
   style="fill:#006633;stroke-width:0.0387373"
   d="M 7.5062864,16.902408 H 5.0958996 c -0.3021893,0 -0.547125,-0.244936 -0.547125,-0.547125 v -1.770835 c 0,-0.302189 0.2449357,-0.547125 0.547125,-0.547125 h 2.4103868 c 0.3021893,0 0.547125,0.244936 0.547125,0.547125 v 1.770835 c 3.87e-5,0.302151 -0.2449357,0.547125 -0.547125,0.547125 z M 5.6430633,15.808119 H 6.9592002 V 15.131535 H 5.6430633 Z"
   id="path882" />
<rect
   x="5.0957446"
   y="8.7402372"
   style="fill:#006633;stroke-width:0.0387373"
   opacity="0.15"
   width="2.4101157"
   height="1.7708348"
   id="rect884" />

	<path
   style="fill:#006633;stroke-width:0.0387373"
   d="M 7.5062864,11.058119 H 5.0958996 c -0.3021893,0 -0.547125,-0.244936 -0.547125,-0.547125 V 8.7401586 c 0,-0.302189 0.2449357,-0.547125 0.547125,-0.547125 h 2.4103868 c 0.3021893,0 0.547125,0.244936 0.547125,0.547125 v 1.7708354 c 3.87e-5,0.30215 -0.2449357,0.547125 -0.547125,0.547125 z M 5.6430633,9.9638296 H 6.9592002 V 9.2872446 H 5.6430633 Z"
   id="path886" />
	<path
   style="fill:#006633;stroke-width:0.0387373;opacity:0.5"
   d="m 12.199266,15.666535 c -0.140074,0 -0.280032,-0.05342 -0.386869,-0.160256 -0.213636,-0.213675 -0.213636,-0.560102 0,-0.773738 l 1.563629,-1.563629 c 0.213752,-0.213636 0.560102,-0.213636 0.773815,0 0.213714,0.213674 0.213636,0.560102 0,0.773738 l -1.563629,1.563629 c -0.106915,0.106876 -0.246911,0.160256 -0.386946,0.160256 z"
   id="path888" />
	<path
   style="fill:#006633;stroke-width:0.0387373;opacity:0.5"
   d="m 15.87977,11.986031 c -0.140074,0 -0.280032,-0.05342 -0.386869,-0.160256 -0.213636,-0.213636 -0.213636,-0.560102 0,-0.773738 l 1.46299,-1.4629904 c 0.213829,-0.213636 0.56014,-0.213597 0.773815,0 0.213636,0.213636 0.213636,0.5601024 0,0.7737384 l -1.46299,1.46299 c -0.106915,0.106876 -0.246989,0.160256 -0.386946,0.160256 z"
   id="path890" />
	<path
   style="fill:#006633;stroke-width:0.0387373;opacity:0.5"
   d="m 13.636767,11.960542 c -0.140074,0 -0.280032,-0.05342 -0.386869,-0.160256 l -1.437424,-1.437423 c -0.213636,-0.213636 -0.213636,-0.5601024 0,-0.7738164 0.213714,-0.213636 0.560102,-0.213636 0.773816,0 l 1.437423,1.4374234 c 0.213675,0.213636 0.213675,0.560102 0,0.773816 -0.106954,0.106837 -0.24695,0.160256 -0.386946,0.160256 z"
   id="path892" />
	<path
   style="fill:#006633;stroke-width:0.0387373;opacity:0.5"
   d="m 17.34276,15.666535 c -0.140074,0 -0.280032,-0.05342 -0.386869,-0.160256 l -1.45838,-1.45838 c -0.213636,-0.213636 -0.213636,-0.560102 0,-0.773816 0.213713,-0.213636 0.560024,-0.213636 0.773815,0 l 1.45838,1.45838 c 0.213636,0.213636 0.213636,0.560102 0,0.773816 -0.106915,0.106876 -0.246873,0.160256 -0.386946,0.160256 z"
   id="path894" />

</svg>
