<?xml version="1.0" encoding="UTF-8" standalone="no"?>
<svg
   xmlns:dc="http://purl.org/dc/elements/1.1/"
   xmlns:cc="http://creativecommons.org/ns#"
   xmlns:rdf="http://www.w3.org/1999/02/22-rdf-syntax-ns#"
   xmlns:svg="http://www.w3.org/2000/svg"
   xmlns="http://www.w3.org/2000/svg"
   xmlns:sodipodi="http://sodipodi.sourceforge.net/DTD/sodipodi-0.dtd"
   xmlns:inkscape="http://www.inkscape.org/namespaces/inkscape"
   version="1.1"
   id="Capa_1"
   x="0px"
   y="0px"
   viewBox="0 0 24 24"
   xml:space="preserve"
   sodipodi:docname="up-arrow2.svg"
   width="24"
   height="24"
   inkscape:version="1.0.2-2 (e86c870879, 2021-01-15)"><metadata
   id="metadata1035"><rdf:RDF><cc:Work
       rdf:about=""><dc:format>image/svg+xml</dc:format><dc:type
         rdf:resource="http://purl.org/dc/dcmitype/StillImage" /><dc:title></dc:title></cc:Work></rdf:RDF></metadata><defs
   id="defs1033" /><sodipodi:namedview
   pagecolor="#ffffff"
   bordercolor="#666666"
   borderopacity="1"
   objecttolerance="10"
   gridtolerance="10"
   guidetolerance="10"
   inkscape:pageopacity="0"
   inkscape:pageshadow="2"
   inkscape:window-width="1476"
   inkscape:window-height="480"
   id="namedview1031"
   showgrid="false"
   inkscape:zoom="11.311805"
   inkscape:cx="13.3875"
   inkscape:cy="6.3152418"
   inkscape:window-x="0"
   inkscape:window-y="0"
   inkscape:window-maximized="0"
   inkscape:current-layer="Capa_1" />
<g
   id="g998"
   style="fill:#006633;fill-opacity:1"
   transform="matrix(0.8551733,0,0,0.8551733,0.78956542,0.57341187)">
	<path
   style="fill:#006633;fill-opacity:1"
   d="m 13.915,0.379 8.258,9.98 c 0,0 1.252,1.184 -0.106,1.184 -1.363,0 -4.653,0 -4.653,0 0,0 0,0.801 0,2.025 0,3.514 0,9.9 0,12.498 0,0 0.184,0.709 -0.885,0.709 -1.072,0 -5.783,0 -6.55,0 -0.765,0 -0.749,-0.592 -0.749,-0.592 0,-2.531 0,-9.133 0,-12.527 0,-1.102 0,-1.816 0,-1.816 0,0 -2.637,0 -4.297,0 -1.654,0 -0.408,-1.24 -0.408,-1.24 0,0 7.025,-9.325 8.001,-10.305 0.714,-0.709 1.389,0.084 1.389,0.084 z"
   id="path996" />
</g>
<g
   id="g1000">
</g>
<g
   id="g1002">
</g>
<g
   id="g1004">
</g>
<g
   id="g1006">
</g>
<g
   id="g1008">
</g>
<g
   id="g1010">
</g>
<g
   id="g1012">
</g>
<g
   id="g1014">
</g>
<g
   id="g1016">
</g>
<g
   id="g1018">
</g>
<g
   id="g1020">
</g>
<g
   id="g1022">
</g>
<g
   id="g1024">
</g>
<g
   id="g1026">
</g>
<g
   id="g1028">
</g>
</svg>
